<svg xmlns="http://www.w3.org/2000/svg" viewBox="0 0 900 1000" width="900" height="1000" role="img">
<defs>
<radialGradient id="degPetaleVif" cx="50%" cy="92%" r="88%">
  <stop offset="0" stop-color="#ffe3ef"/><stop offset="0.35" stop-color="#ff77b4"/>
  <stop offset="1" stop-color="#d70f61"/>
</radialGradient>
<radialGradient id="degPetaleDoux" cx="50%" cy="92%" r="88%">
  <stop offset="0" stop-color="#fffafc"/><stop offset="0.45" stop-color="#ffc0da"/>
  <stop offset="1" stop-color="#ff6aa9"/>
</radialGradient>
<radialGradient id="degPetaleProfond" cx="50%" cy="92%" r="88%">
  <stop offset="0" stop-color="#ffc7de"/><stop offset="0.3" stop-color="#f43a86"/>
  <stop offset="1" stop-color="#a80b48"/>
</radialGradient>
<filter id="lueur" x="-30%" y="-30%" width="160%" height="160%">
  <feGaussianBlur stdDeviation="7"/>
</filter>
<filter id="flou" x="-30%" y="-30%" width="160%" height="160%">
  <feGaussianBlur stdDeviation="9"/>
</filter>

<linearGradient id="bordsmhoodieface881" x1="0" y1="0" x2="1" y2="0">
  <stop offset="0" stop-color="#000" stop-opacity="0.6"/>
  <stop offset="0.16" stop-color="#000" stop-opacity="0"/>
  <stop offset="0.84" stop-color="#000" stop-opacity="0"/>
  <stop offset="1" stop-color="#000" stop-opacity="0.6"/>
</linearGradient>
<linearGradient id="hautmhoodieface881" x1="0" y1="0" x2="0" y2="1">
  <stop offset="0" stop-color="#fff" stop-opacity="0.09"/>
  <stop offset="0.45" stop-color="#fff" stop-opacity="0"/>
  <stop offset="1" stop-color="#000" stop-opacity="0.35"/>
</linearGradient>
<g id="mhoodieface881f0"><path d="M0,0 C-51.6,-21.5 -62,-68.8 -27.5,-99 C-18.1,-107.6 -9.5,-106.5 0,-86.1 C9.5,-106.5 18.1,-107.6 27.5,-99 C62,-68.8 51.6,-21.5 0,0 Z" transform="rotate(70)" fill="url(#degPetaleDoux)"/><path d="M0,0 C-43.1,-18 -51.7,-57.5 -23,-82.6 C-15.1,-89.8 -7.9,-88.9 0,-71.9 C7.9,-88.9 15.1,-89.8 23,-82.6 C51.7,-57.5 43.1,-18 0,0 Z" transform="rotate(142.6)" fill="url(#degPetaleDoux)"/><path d="M0,0 C-44.5,-18.5 -53.4,-59.3 -23.7,-85.3 C-15.6,-92.7 -8.2,-91.7 0,-74.1 C8.2,-91.7 15.6,-92.7 23.7,-85.3 C53.4,-59.3 44.5,-18.5 0,0 Z" transform="rotate(210.5)" fill="url(#degPetaleDoux)"/><path d="M0,0 C-42.1,-17.6 -50.6,-56.2 -22.5,-80.8 C-14.7,-87.8 -7.7,-86.9 0,-70.2 C7.7,-86.9 14.7,-87.8 22.5,-80.8 C50.6,-56.2 42.1,-17.6 0,0 Z" transform="rotate(286.8)" fill="url(#degPetaleDoux)"/><path d="M0,0 C-42.8,-17.8 -51.3,-57 -22.8,-82 C-15,-89.1 -7.8,-88.2 0,-71.3 C7.8,-88.2 15,-89.1 22.8,-82 C51.3,-57 42.8,-17.8 0,0 Z" transform="rotate(362.9)" fill="url(#degPetaleDoux)"/><circle r="13" fill="#fff2f7" opacity=".92"/><line x2="5.2" y2="23.6" stroke="#fff7fa" stroke-width="4.5" stroke-linecap="round" opacity=".8"/><line x2="-17.5" y2="15.1" stroke="#fff7fa" stroke-width="4.5" stroke-linecap="round" opacity=".8"/><line x2="-27.1" y2="-5.3" stroke="#fff7fa" stroke-width="4.5" stroke-linecap="round" opacity=".8"/><line x2="-11.6" y2="-21.9" stroke="#fff7fa" stroke-width="4.5" stroke-linecap="round" opacity=".8"/><line x2="15" y2="-13.6" stroke="#fff7fa" stroke-width="4.5" stroke-linecap="round" opacity=".8"/><line x2="23.9" y2="4.1" stroke="#fff7fa" stroke-width="4.5" stroke-linecap="round" opacity=".8"/></g><g id="mhoodieface881f1"><path d="M0,0 C-52.1,-21.7 -62.5,-69.4 -27.8,-99.8 C-18.2,-108.5 -9.5,-107.4 0,-86.8 C9.5,-107.4 18.2,-108.5 27.8,-99.8 C62.5,-69.4 52.1,-21.7 0,0 Z" transform="rotate(55.1)" fill="url(#degPetaleDoux)"/><path d="M0,0 C-47.1,-19.6 -56.6,-62.8 -25.1,-90.3 C-16.5,-98.2 -8.6,-97.2 0,-78.6 C8.6,-97.2 16.5,-98.2 25.1,-90.3 C56.6,-62.8 47.1,-19.6 0,0 Z" transform="rotate(131.1)" fill="url(#degPetaleDoux)"/><path d="M0,0 C-41.9,-17.5 -50.3,-55.9 -22.4,-80.4 C-14.7,-87.4 -7.7,-86.5 0,-69.9 C7.7,-86.5 14.7,-87.4 22.4,-80.4 C50.3,-55.9 41.9,-17.5 0,0 Z" transform="rotate(197.7)" fill="url(#degPetaleDoux)"/><path d="M0,0 C-48.8,-20.3 -58.6,-65.1 -26,-93.6 C-17.1,-101.7 -9,-100.7 0,-81.4 C9,-100.7 17.1,-101.7 26,-93.6 C58.6,-65.1 48.8,-20.3 0,0 Z" transform="rotate(263)" fill="url(#degPetaleDoux)"/><path d="M0,0 C-52.6,-21.9 -63.1,-70.1 -28,-100.7 C-18.4,-109.5 -9.6,-108.4 0,-87.6 C9.6,-108.4 18.4,-109.5 28,-100.7 C63.1,-70.1 52.6,-21.9 0,0 Z" transform="rotate(333.3)" fill="url(#degPetaleDoux)"/><circle r="13" fill="#fff2f7" opacity=".92"/><line x2="16.5" y2="23.8" stroke="#fff7fa" stroke-width="4.5" stroke-linecap="round" opacity=".8"/><line x2="-10" y2="17.5" stroke="#fff7fa" stroke-width="4.5" stroke-linecap="round" opacity=".8"/><line x2="-28.1" y2="6.1" stroke="#fff7fa" stroke-width="4.5" stroke-linecap="round" opacity=".8"/><line x2="-13.4" y2="-13.7" stroke="#fff7fa" stroke-width="4.5" stroke-linecap="round" opacity=".8"/><line x2="10.1" y2="-19.6" stroke="#fff7fa" stroke-width="4.5" stroke-linecap="round" opacity=".8"/><line x2="18.9" y2="-6" stroke="#fff7fa" stroke-width="4.5" stroke-linecap="round" opacity=".8"/></g><g id="mhoodieface881f2"><path d="M0,0 C-42.5,-17.7 -51.1,-56.7 -22.7,-81.6 C-14.9,-88.6 -7.8,-87.8 0,-70.9 C7.8,-87.8 14.9,-88.6 22.7,-81.6 C51.1,-56.7 42.5,-17.7 0,0 Z" transform="rotate(-4)" fill="url(#degPetaleDoux)"/><path d="M0,0 C-46.3,-19.3 -55.5,-61.7 -24.7,-88.7 C-16.2,-96.4 -8.5,-95.5 0,-77.1 C8.5,-95.5 16.2,-96.4 24.7,-88.7 C55.5,-61.7 46.3,-19.3 0,0 Z" transform="rotate(77.9)" fill="url(#degPetaleDoux)"/><path d="M0,0 C-45.5,-18.9 -54.6,-60.6 -24.2,-87.1 C-15.9,-94.7 -8.3,-93.8 0,-75.8 C8.3,-93.8 15.9,-94.7 24.2,-87.1 C54.6,-60.6 45.5,-18.9 0,0 Z" transform="rotate(140.7)" fill="url(#degPetaleDoux)"/><path d="M0,0 C-52.4,-21.8 -62.9,-69.8 -27.9,-100.4 C-18.3,-109.1 -9.6,-108 0,-87.3 C9.6,-108 18.3,-109.1 27.9,-100.4 C62.9,-69.8 52.4,-21.8 0,0 Z" transform="rotate(211.3)" fill="url(#degPetaleDoux)"/><path d="M0,0 C-43.4,-18.1 -52.1,-57.9 -23.2,-83.2 C-15.2,-90.5 -8,-89.6 0,-72.4 C8,-89.6 15.2,-90.5 23.2,-83.2 C52.1,-57.9 43.4,-18.1 0,0 Z" transform="rotate(290.2)" fill="url(#degPetaleDoux)"/><circle r="13" fill="#fff2f7" opacity=".92"/><line x2="28.3" y2="-0.8" stroke="#fff7fa" stroke-width="4.5" stroke-linecap="round" opacity=".8"/><line x2="12.6" y2="18.6" stroke="#fff7fa" stroke-width="4.5" stroke-linecap="round" opacity=".8"/><line x2="-8.3" y2="18.8" stroke="#fff7fa" stroke-width="4.5" stroke-linecap="round" opacity=".8"/><line x2="-24.6" y2="1.1" stroke="#fff7fa" stroke-width="4.5" stroke-linecap="round" opacity=".8"/><line x2="-9" y2="-21.6" stroke="#fff7fa" stroke-width="4.5" stroke-linecap="round" opacity=".8"/><line x2="8.4" y2="-21.1" stroke="#fff7fa" stroke-width="4.5" stroke-linecap="round" opacity=".8"/></g><g id="mhoodieface881f3"><path d="M0,0 C-50.1,-20.9 -60.1,-66.8 -26.7,-96 C-17.5,-104.4 -9.2,-103.3 0,-83.5 C9.2,-103.3 17.5,-104.4 26.7,-96 C60.1,-66.8 50.1,-20.9 0,0 Z" transform="rotate(61.6)" fill="url(#degPetaleProfond)"/><path d="M0,0 C-47,-19.6 -56.4,-62.7 -25.1,-90.1 C-16.5,-98 -8.6,-97 0,-78.4 C8.6,-97 16.5,-98 25.1,-90.1 C56.4,-62.7 47,-19.6 0,0 Z" transform="rotate(139.1)" fill="url(#degPetaleProfond)"/><path d="M0,0 C-48.1,-20 -57.7,-64.1 -25.6,-92.1 C-16.8,-100.1 -8.8,-99.1 0,-80.1 C8.8,-99.1 16.8,-100.1 25.6,-92.1 C57.7,-64.1 48.1,-20 0,0 Z" transform="rotate(215.1)" fill="url(#degPetaleProfond)"/><path d="M0,0 C-49.9,-20.8 -59.9,-66.5 -26.6,-95.7 C-17.5,-104 -9.1,-102.9 0,-83.2 C9.1,-102.9 17.5,-104 26.6,-95.7 C59.9,-66.5 49.9,-20.8 0,0 Z" transform="rotate(276.5)" fill="url(#degPetaleProfond)"/><path d="M0,0 C-52,-21.7 -62.4,-69.3 -27.7,-99.6 C-18.2,-108.3 -9.5,-107.2 0,-86.6 C9.5,-107.2 18.2,-108.3 27.7,-99.6 C62.4,-69.3 52,-21.7 0,0 Z" transform="rotate(347)" fill="url(#degPetaleProfond)"/><circle r="13" fill="#fff2f7" opacity=".92"/><line x2="10.4" y2="15.9" stroke="#fff7fa" stroke-width="4.5" stroke-linecap="round" opacity=".8"/><line x2="-14" y2="14.7" stroke="#fff7fa" stroke-width="4.5" stroke-linecap="round" opacity=".8"/><line x2="-19.8" y2="-4.4" stroke="#fff7fa" stroke-width="4.5" stroke-linecap="round" opacity=".8"/><line x2="-9.2" y2="-16.9" stroke="#fff7fa" stroke-width="4.5" stroke-linecap="round" opacity=".8"/><line x2="14.9" y2="-16.7" stroke="#fff7fa" stroke-width="4.5" stroke-linecap="round" opacity=".8"/><line x2="18.6" y2="2.3" stroke="#fff7fa" stroke-width="4.5" stroke-linecap="round" opacity=".8"/></g><g id="mhoodieface881f4"><path d="M0,0 C-46,-19.2 -55.2,-61.4 -24.5,-88.2 C-16.1,-95.9 -8.4,-94.9 0,-76.7 C8.4,-94.9 16.1,-95.9 24.5,-88.2 C55.2,-61.4 46,-19.2 0,0 Z" transform="rotate(47.8)" fill="url(#degPetaleVif)"/><path d="M0,0 C-41.8,-17.4 -50.2,-55.7 -22.3,-80.1 C-14.6,-87.1 -7.7,-86.2 0,-69.7 C7.7,-86.2 14.6,-87.1 22.3,-80.1 C50.2,-55.7 41.8,-17.4 0,0 Z" transform="rotate(124.1)" fill="url(#degPetaleVif)"/><path d="M0,0 C-52.1,-21.7 -62.5,-69.4 -27.8,-99.8 C-18.2,-108.5 -9.5,-107.4 0,-86.8 C9.5,-107.4 18.2,-108.5 27.8,-99.8 C62.5,-69.4 52.1,-21.7 0,0 Z" transform="rotate(192.8)" fill="url(#degPetaleVif)"/><path d="M0,0 C-44.8,-18.7 -53.8,-59.7 -23.9,-85.9 C-15.7,-93.3 -8.2,-92.4 0,-74.7 C8.2,-92.4 15.7,-93.3 23.9,-85.9 C53.8,-59.7 44.8,-18.7 0,0 Z" transform="rotate(270.1)" fill="url(#degPetaleVif)"/><path d="M0,0 C-44.9,-18.7 -53.8,-59.8 -23.9,-86 C-15.7,-93.4 -8.2,-92.5 0,-74.8 C8.2,-92.5 15.7,-93.4 23.9,-86 C53.8,-59.8 44.9,-18.7 0,0 Z" transform="rotate(334.6)" fill="url(#degPetaleVif)"/><circle r="13" fill="#fff2f7" opacity=".92"/><line x2="11.1" y2="15.9" stroke="#fff7fa" stroke-width="4.5" stroke-linecap="round" opacity=".8"/><line x2="-10.4" y2="27.7" stroke="#fff7fa" stroke-width="4.5" stroke-linecap="round" opacity=".8"/><line x2="-18.6" y2="4.7" stroke="#fff7fa" stroke-width="4.5" stroke-linecap="round" opacity=".8"/><line x2="-15.9" y2="-16.5" stroke="#fff7fa" stroke-width="4.5" stroke-linecap="round" opacity=".8"/><line x2="7.2" y2="-16.8" stroke="#fff7fa" stroke-width="4.5" stroke-linecap="round" opacity=".8"/><line x2="21.1" y2="-5.8" stroke="#fff7fa" stroke-width="4.5" stroke-linecap="round" opacity=".8"/></g><g id="mhoodieface881f5"><path d="M0,0 C-44.3,-18.4 -53.1,-59 -23.6,-84.8 C-15.5,-92.2 -8.1,-91.3 0,-73.8 C8.1,-91.3 15.5,-92.2 23.6,-84.8 C53.1,-59 44.3,-18.4 0,0 Z" transform="rotate(25.7)" fill="url(#degPetaleProfond)"/><path d="M0,0 C-47.1,-19.6 -56.5,-62.8 -25.1,-90.3 C-16.5,-98.2 -8.6,-97.2 0,-78.5 C8.6,-97.2 16.5,-98.2 25.1,-90.3 C56.5,-62.8 47.1,-19.6 0,0 Z" transform="rotate(96)" fill="url(#degPetaleProfond)"/><path d="M0,0 C-42.1,-17.5 -50.5,-56.1 -22.4,-80.6 C-14.7,-87.6 -7.7,-86.8 0,-70.1 C7.7,-86.8 14.7,-87.6 22.4,-80.6 C50.5,-56.1 42.1,-17.5 0,0 Z" transform="rotate(170.1)" fill="url(#degPetaleProfond)"/><path d="M0,0 C-48.9,-20.4 -58.7,-65.2 -26.1,-93.7 C-17.1,-101.9 -9,-100.8 0,-81.5 C9,-100.8 17.1,-101.9 26.1,-93.7 C58.7,-65.2 48.9,-20.4 0,0 Z" transform="rotate(240.8)" fill="url(#degPetaleProfond)"/><path d="M0,0 C-41.6,-17.4 -50,-55.5 -22.2,-79.8 C-14.6,-86.8 -7.6,-85.9 0,-69.4 C7.6,-85.9 14.6,-86.8 22.2,-79.8 C50,-55.5 41.6,-17.4 0,0 Z" transform="rotate(314.8)" fill="url(#degPetaleProfond)"/><circle r="13" fill="#fff2f7" opacity=".92"/><line x2="19.9" y2="9.3" stroke="#fff7fa" stroke-width="4.5" stroke-linecap="round" opacity=".8"/><line x2="2" y2="23.1" stroke="#fff7fa" stroke-width="4.5" stroke-linecap="round" opacity=".8"/><line x2="-15.1" y2="14.5" stroke="#fff7fa" stroke-width="4.5" stroke-linecap="round" opacity=".8"/><line x2="-27.1" y2="-12.7" stroke="#fff7fa" stroke-width="4.5" stroke-linecap="round" opacity=".8"/><line x2="-3.8" y2="-23.7" stroke="#fff7fa" stroke-width="4.5" stroke-linecap="round" opacity=".8"/><line x2="23.4" y2="-15.5" stroke="#fff7fa" stroke-width="4.5" stroke-linecap="round" opacity=".8"/></g><g id="mhoodieface881f6"><path d="M0,0 C-46.9,-19.5 -56.3,-62.5 -25,-89.8 C-16.4,-97.7 -8.6,-96.7 0,-78.1 C8.6,-96.7 16.4,-97.7 25,-89.8 C56.3,-62.5 46.9,-19.5 0,0 Z" transform="rotate(71.3)" fill="url(#degPetaleProfond)"/><path d="M0,0 C-46.2,-19.2 -55.4,-61.6 -24.6,-88.5 C-16.2,-96.2 -8.5,-95.2 0,-76.9 C8.5,-95.2 16.2,-96.2 24.6,-88.5 C55.4,-61.6 46.2,-19.2 0,0 Z" transform="rotate(139.6)" fill="url(#degPetaleProfond)"/><path d="M0,0 C-43.7,-18.2 -52.5,-58.3 -23.3,-83.8 C-15.3,-91.1 -8,-90.2 0,-72.9 C8,-90.2 15.3,-91.1 23.3,-83.8 C52.5,-58.3 43.7,-18.2 0,0 Z" transform="rotate(214.9)" fill="url(#degPetaleProfond)"/><path d="M0,0 C-45.9,-19.1 -55,-61.1 -24.5,-87.9 C-16,-95.5 -8.4,-94.6 0,-76.4 C8.4,-94.6 16,-95.5 24.5,-87.9 C55,-61.1 45.9,-19.1 0,0 Z" transform="rotate(284.8)" fill="url(#degPetaleProfond)"/><path d="M0,0 C-50.1,-20.9 -60.1,-66.8 -26.7,-96 C-17.5,-104.3 -9.2,-103.3 0,-83.5 C9.2,-103.3 17.5,-104.3 26.7,-96 C60.1,-66.8 50.1,-20.9 0,0 Z" transform="rotate(355.6)" fill="url(#degPetaleProfond)"/><circle r="13" fill="#fff2f7" opacity=".92"/><line x2="7.8" y2="23.4" stroke="#fff7fa" stroke-width="4.5" stroke-linecap="round" opacity=".8"/><line x2="-10.4" y2="16.7" stroke="#fff7fa" stroke-width="4.5" stroke-linecap="round" opacity=".8"/><line x2="-23.2" y2="-7.3" stroke="#fff7fa" stroke-width="4.5" stroke-linecap="round" opacity=".8"/><line x2="-9.3" y2="-17.2" stroke="#fff7fa" stroke-width="4.5" stroke-linecap="round" opacity=".8"/><line x2="13" y2="-20.9" stroke="#fff7fa" stroke-width="4.5" stroke-linecap="round" opacity=".8"/><line x2="29.8" y2="2.4" stroke="#fff7fa" stroke-width="4.5" stroke-linecap="round" opacity=".8"/></g><g id="mhoodieface881f7"><path d="M0,0 C-44.9,-18.7 -53.9,-59.9 -23.9,-86 C-15.7,-93.5 -8.2,-92.6 0,-74.8 C8.2,-92.6 15.7,-93.5 23.9,-86 C53.9,-59.9 44.9,-18.7 0,0 Z" transform="rotate(25.7)" fill="url(#degPetaleProfond)"/><path d="M0,0 C-46.3,-19.3 -55.5,-61.7 -24.7,-88.7 C-16.2,-96.4 -8.5,-95.4 0,-77.1 C8.5,-95.4 16.2,-96.4 24.7,-88.7 C55.5,-61.7 46.3,-19.3 0,0 Z" transform="rotate(98.2)" fill="url(#degPetaleProfond)"/><path d="M0,0 C-50,-20.8 -60,-66.7 -26.7,-95.8 C-17.5,-104.2 -9.2,-103.1 0,-83.3 C9.2,-103.1 17.5,-104.2 26.7,-95.8 C60,-66.7 50,-20.8 0,0 Z" transform="rotate(164.7)" fill="url(#degPetaleProfond)"/><path d="M0,0 C-50.7,-21.1 -60.9,-67.7 -27.1,-97.2 C-17.8,-105.7 -9.3,-104.6 0,-84.6 C9.3,-104.6 17.8,-105.7 27.1,-97.2 C60.9,-67.7 50.7,-21.1 0,0 Z" transform="rotate(235.1)" fill="url(#degPetaleProfond)"/><path d="M0,0 C-45.6,-19 -54.8,-60.9 -24.3,-87.5 C-16,-95.1 -8.4,-94.1 0,-76.1 C8.4,-94.1 16,-95.1 24.3,-87.5 C54.8,-60.9 45.6,-19 0,0 Z" transform="rotate(311.7)" fill="url(#degPetaleProfond)"/><circle r="13" fill="#fff2f7" opacity=".92"/><line x2="18" y2="3.4" stroke="#fff7fa" stroke-width="4.5" stroke-linecap="round" opacity=".8"/><line x2="1.5" y2="22.1" stroke="#fff7fa" stroke-width="4.5" stroke-linecap="round" opacity=".8"/><line x2="-20.3" y2="18.3" stroke="#fff7fa" stroke-width="4.5" stroke-linecap="round" opacity=".8"/><line x2="-21" y2="-6.5" stroke="#fff7fa" stroke-width="4.5" stroke-linecap="round" opacity=".8"/><line x2="-0.7" y2="-22.9" stroke="#fff7fa" stroke-width="4.5" stroke-linecap="round" opacity=".8"/><line x2="16.2" y2="-11.6" stroke="#fff7fa" stroke-width="4.5" stroke-linecap="round" opacity=".8"/></g><g id="mhoodieface881f8"><path d="M0,0 C-46.5,-19.4 -55.8,-62 -24.8,-89.1 C-16.3,-96.8 -8.5,-95.8 0,-77.4 C8.5,-95.8 16.3,-96.8 24.8,-89.1 C55.8,-62 46.5,-19.4 0,0 Z" transform="rotate(-0.8)" fill="url(#degPetaleVif)"/><path d="M0,0 C-42.9,-17.9 -51.5,-57.2 -22.9,-82.3 C-15,-89.4 -7.9,-88.5 0,-71.5 C7.9,-88.5 15,-89.4 22.9,-82.3 C51.5,-57.2 42.9,-17.9 0,0 Z" transform="rotate(74.1)" fill="url(#degPetaleVif)"/><path d="M0,0 C-42,-17.5 -50.4,-56 -22.4,-80.6 C-14.7,-87.6 -7.7,-86.7 0,-70 C7.7,-86.7 14.7,-87.6 22.4,-80.6 C50.4,-56 42,-17.5 0,0 Z" transform="rotate(142.8)" fill="url(#degPetaleVif)"/><path d="M0,0 C-52.4,-21.8 -62.9,-69.9 -28,-100.5 C-18.3,-109.2 -9.6,-108.1 0,-87.4 C9.6,-108.1 18.3,-109.2 28,-100.5 C62.9,-69.9 52.4,-21.8 0,0 Z" transform="rotate(222.3)" fill="url(#degPetaleVif)"/><path d="M0,0 C-43,-17.9 -51.7,-57.4 -23,-82.5 C-15.1,-89.7 -7.9,-88.8 0,-71.7 C7.9,-88.8 15.1,-89.7 23,-82.5 C51.7,-57.4 43,-17.9 0,0 Z" transform="rotate(288.8)" fill="url(#degPetaleVif)"/><circle r="13" fill="#fff2f7" opacity=".92"/><line x2="27.1" y2="1" stroke="#fff7fa" stroke-width="4.5" stroke-linecap="round" opacity=".8"/><line x2="9.3" y2="15.7" stroke="#fff7fa" stroke-width="4.5" stroke-linecap="round" opacity=".8"/><line x2="-15.1" y2="24.5" stroke="#fff7fa" stroke-width="4.5" stroke-linecap="round" opacity=".8"/><line x2="-19.2" y2="0.9" stroke="#fff7fa" stroke-width="4.5" stroke-linecap="round" opacity=".8"/><line x2="-9.5" y2="-19.3" stroke="#fff7fa" stroke-width="4.5" stroke-linecap="round" opacity=".8"/><line x2="10.9" y2="-17.6" stroke="#fff7fa" stroke-width="4.5" stroke-linecap="round" opacity=".8"/></g><g id="mhoodieface881f9"><path d="M0,0 C-44.1,-18.4 -53,-58.9 -23.5,-84.6 C-15.4,-92 -8.1,-91 0,-73.6 C8.1,-91 15.4,-92 23.5,-84.6 C53,-58.9 44.1,-18.4 0,0 Z" transform="rotate(22.9)" fill="url(#degPetaleVif)"/><path d="M0,0 C-42.9,-17.9 -51.5,-57.2 -22.9,-82.2 C-15,-89.4 -7.9,-88.5 0,-71.5 C7.9,-88.5 15,-89.4 22.9,-82.2 C51.5,-57.2 42.9,-17.9 0,0 Z" transform="rotate(85.7)" fill="url(#degPetaleVif)"/><path d="M0,0 C-48.1,-20 -57.7,-64.1 -25.6,-92.1 C-16.8,-100.2 -8.8,-99.1 0,-80.1 C8.8,-99.1 16.8,-100.2 25.6,-92.1 C57.7,-64.1 48.1,-20 0,0 Z" transform="rotate(164.5)" fill="url(#degPetaleVif)"/><path d="M0,0 C-51.5,-21.5 -61.8,-68.6 -27.5,-98.7 C-18,-107.3 -9.4,-106.2 0,-85.8 C9.4,-106.2 18,-107.3 27.5,-98.7 C61.8,-68.6 51.5,-21.5 0,0 Z" transform="rotate(229.1)" fill="url(#degPetaleVif)"/><path d="M0,0 C-41.4,-17.3 -49.7,-55.2 -22.1,-79.4 C-14.5,-86.3 -7.6,-85.4 0,-69 C7.6,-85.4 14.5,-86.3 22.1,-79.4 C49.7,-55.2 41.4,-17.3 0,0 Z" transform="rotate(306.1)" fill="url(#degPetaleVif)"/><circle r="13" fill="#fff2f7" opacity=".92"/><line x2="25.4" y2="11.4" stroke="#fff7fa" stroke-width="4.5" stroke-linecap="round" opacity=".8"/><line x2="6" y2="21" stroke="#fff7fa" stroke-width="4.5" stroke-linecap="round" opacity=".8"/><line x2="-13.5" y2="15.2" stroke="#fff7fa" stroke-width="4.5" stroke-linecap="round" opacity=".8"/><line x2="-19.5" y2="-4" stroke="#fff7fa" stroke-width="4.5" stroke-linecap="round" opacity=".8"/><line x2="-7.8" y2="-22.8" stroke="#fff7fa" stroke-width="4.5" stroke-linecap="round" opacity=".8"/><line x2="18.8" y2="-17.3" stroke="#fff7fa" stroke-width="4.5" stroke-linecap="round" opacity=".8"/></g><g id="mhoodieface881f10"><path d="M0,0 C-44,-18.3 -52.8,-58.6 -23.5,-84.3 C-15.4,-91.6 -8.1,-90.7 0,-73.3 C8.1,-90.7 15.4,-91.6 23.5,-84.3 C52.8,-58.6 44,-18.3 0,0 Z" transform="rotate(13.1)" fill="url(#degPetaleProfond)"/><path d="M0,0 C-50.3,-21 -60.4,-67.1 -26.9,-96.5 C-17.6,-104.9 -9.2,-103.8 0,-83.9 C9.2,-103.8 17.6,-104.9 26.9,-96.5 C60.4,-67.1 50.3,-21 0,0 Z" transform="rotate(86.3)" fill="url(#degPetaleProfond)"/><path d="M0,0 C-44.5,-18.6 -53.5,-59.4 -23.8,-85.4 C-15.6,-92.8 -8.2,-91.9 0,-74.2 C8.2,-91.9 15.6,-92.8 23.8,-85.4 C53.5,-59.4 44.5,-18.6 0,0 Z" transform="rotate(162.3)" fill="url(#degPetaleProfond)"/><path d="M0,0 C-42.8,-17.9 -51.4,-57.1 -22.9,-82.1 C-15,-89.3 -7.9,-88.4 0,-71.4 C7.9,-88.4 15,-89.3 22.9,-82.1 C51.4,-57.1 42.8,-17.9 0,0 Z" transform="rotate(234.1)" fill="url(#degPetaleProfond)"/><path d="M0,0 C-48.8,-20.3 -58.6,-65.1 -26,-93.6 C-17.1,-101.7 -9,-100.7 0,-81.4 C9,-100.7 17.1,-101.7 26,-93.6 C58.6,-65.1 48.8,-20.3 0,0 Z" transform="rotate(303.9)" fill="url(#degPetaleProfond)"/><circle r="13" fill="#fff2f7" opacity=".92"/><line x2="18.7" y2="5.7" stroke="#fff7fa" stroke-width="4.5" stroke-linecap="round" opacity=".8"/><line x2="3.6" y2="24" stroke="#fff7fa" stroke-width="4.5" stroke-linecap="round" opacity=".8"/><line x2="-15" y2="15.2" stroke="#fff7fa" stroke-width="4.5" stroke-linecap="round" opacity=".8"/><line x2="-27" y2="-5" stroke="#fff7fa" stroke-width="4.5" stroke-linecap="round" opacity=".8"/><line x2="-6.5" y2="-25" stroke="#fff7fa" stroke-width="4.5" stroke-linecap="round" opacity=".8"/><line x2="14.2" y2="-12.9" stroke="#fff7fa" stroke-width="4.5" stroke-linecap="round" opacity=".8"/></g><g id="mhoodieface881f11"><path d="M0,0 C-45.9,-19.1 -55.1,-61.2 -24.5,-88 C-16.1,-95.7 -8.4,-94.7 0,-76.6 C8.4,-94.7 16.1,-95.7 24.5,-88 C55.1,-61.2 45.9,-19.1 0,0 Z" transform="rotate(63.7)" fill="url(#degPetaleDoux)"/><path d="M0,0 C-50.4,-21 -60.5,-67.3 -26.9,-96.7 C-17.7,-105.1 -9.2,-104 0,-84.1 C9.2,-104 17.7,-105.1 26.9,-96.7 C60.5,-67.3 50.4,-21 0,0 Z" transform="rotate(134.2)" fill="url(#degPetaleDoux)"/><path d="M0,0 C-51.6,-21.5 -61.9,-68.8 -27.5,-98.9 C-18.1,-107.5 -9.5,-106.5 0,-86 C9.5,-106.5 18.1,-107.5 27.5,-98.9 C61.9,-68.8 51.6,-21.5 0,0 Z" transform="rotate(203.6)" fill="url(#degPetaleDoux)"/><path d="M0,0 C-44.6,-18.6 -53.6,-59.5 -23.8,-85.5 C-15.6,-93 -8.2,-92.1 0,-74.4 C8.2,-92.1 15.6,-93 23.8,-85.5 C53.6,-59.5 44.6,-18.6 0,0 Z" transform="rotate(283.1)" fill="url(#degPetaleDoux)"/><path d="M0,0 C-46.9,-19.5 -56.3,-62.5 -25,-89.9 C-16.4,-97.7 -8.6,-96.7 0,-78.2 C8.6,-96.7 16.4,-97.7 25,-89.9 C56.3,-62.5 46.9,-19.5 0,0 Z" transform="rotate(353.7)" fill="url(#degPetaleDoux)"/><circle r="13" fill="#fff2f7" opacity=".92"/><line x2="13.4" y2="20.3" stroke="#fff7fa" stroke-width="4.5" stroke-linecap="round" opacity=".8"/><line x2="-12.5" y2="15.1" stroke="#fff7fa" stroke-width="4.5" stroke-linecap="round" opacity=".8"/><line x2="-19.5" y2="-1.3" stroke="#fff7fa" stroke-width="4.5" stroke-linecap="round" opacity=".8"/><line x2="-12" y2="-22.8" stroke="#fff7fa" stroke-width="4.5" stroke-linecap="round" opacity=".8"/><line x2="14" y2="-15.4" stroke="#fff7fa" stroke-width="4.5" stroke-linecap="round" opacity=".8"/><line x2="28.5" y2="6.4" stroke="#fff7fa" stroke-width="4.5" stroke-linecap="round" opacity=".8"/></g><g id="mhoodieface881p0"><path d="M0,0 C-42.3,-18.1 -50.7,-57.8 -22.5,-83.1 C-14.8,-90.3 -7.8,-89.4 0,-72.3 C7.8,-89.4 14.8,-90.3 22.5,-83.1 C50.7,-57.8 42.3,-18.1 0,0 Z" fill="url(#degPetaleDoux)"/></g><g id="mhoodieface881p1"><path d="M0,0 C-44.9,-19.2 -53.8,-61.3 -23.9,-88.2 C-15.7,-95.8 -8.2,-94.9 0,-76.7 C8.2,-94.9 15.7,-95.8 23.9,-88.2 C53.8,-61.3 44.9,-19.2 0,0 Z" fill="url(#degPetaleProfond)"/></g><g id="mhoodieface881p2"><path d="M0,0 C-43.3,-18.5 -52,-59.2 -23.1,-85.1 C-15.2,-92.6 -7.9,-91.6 0,-74 C7.9,-91.6 15.2,-92.6 23.1,-85.1 C52,-59.2 43.3,-18.5 0,0 Z" fill="url(#degPetaleDoux)"/></g><g id="mhoodieface881p3"><path d="M0,0 C-49.2,-21 -59.1,-67.3 -26.2,-96.7 C-17.2,-105.2 -9,-104.1 0,-84.1 C9,-104.1 17.2,-105.2 26.2,-96.7 C59.1,-67.3 49.2,-21 0,0 Z" fill="url(#degPetaleVif)"/></g><g id="mhoodieface881p4"><path d="M0,0 C-46.5,-19.9 -55.8,-63.6 -24.8,-91.4 C-16.3,-99.3 -8.5,-98.3 0,-79.5 C8.5,-98.3 16.3,-99.3 24.8,-91.4 C55.8,-63.6 46.5,-19.9 0,0 Z" fill="url(#degPetaleProfond)"/></g><g id="mhoodieface881p5"><path d="M0,0 C-47.5,-20.3 -57,-64.9 -25.3,-93.4 C-16.6,-101.5 -8.7,-100.5 0,-81.2 C8.7,-100.5 16.6,-101.5 25.3,-93.4 C57,-64.9 47.5,-20.3 0,0 Z" fill="url(#degPetaleVif)"/></g>
<mask id="mhoodieface881" maskUnits="userSpaceOnUse" x="0" y="0" width="900" height="1000"><rect width="900" height="1000" fill="#000"/><path d="M286,258 C286,238 304,228 324,228 L576,228 C596,228 614,238 614,258 L646,844 C648,872 636,886 612,886 L288,886 C264,886 252,872 254,844 Z" fill="#fff"/><path d="M304,240 C244,256 198,296 178,352 L104,620 C95,652 108,672 139,680 L216,700 C246,708 262,694 266,664 L322,396 Z" fill="#fff"/><path d="M596,240 C656,256 702,296 722,352 L796,620 C805,652 792,672 761,680 L684,700 C654,708 638,694 634,664 L578,396 Z" fill="#fff"/><path d="M330,246 C332,150 374,92 450,92 C526,92 568,150 570,246 C528,214 486,202 450,202 C414,202 372,214 330,246 Z" fill="#fff"/></mask>
</defs>
<g mask="url(#mhoodieface881)">
  <rect width="900" height="1000" fill="#0a0a0a"/>
  <g transform="translate(-100,-120)"><g filter="url(#lueur)" opacity=".5"><polygon points="245.2,-95.1 262.2,51.9 287.1,232.7 326.7,386.9 273.6,497.2 309.8,642.9 330.6,813.8 357.1,995.8 334.4,1179.1 338.3,1312.3 341.2,1312.2 338.6,1179.4 362.8,995.8 337.7,812.9 318.3,641.4 283.6,498 338.2,387.5 299.8,230.3 276.5,50.1 261,-96.9" fill="#ffd9ea"/><polygon points="332.4,809.9 263.1,844.7 221.9,900.9 156,941.6 92.2,996.9 50.7,1020.9 4.1,1053.1 -44.5,1091.4 -80.9,1141.7 -121.1,1183.1 -120.1,1184.1 -79.2,1143 -42.5,1093.3 6.2,1055.9 53,1024.5 95.1,1000.9 159.4,946.2 226.2,905.7 267.6,850.2 335.9,816.9" fill="#ffd9ea"/><polygon points="-43.8,1090.3 -77.5,1095.5 -114.7,1092.5 -151,1085.4 -172,1081.8 -201.5,1086.7 -229.5,1080 -260.7,1080.2 -283.9,1081.9 -283.9,1082.6 -260.7,1081.4 -229.7,1081.6 -201.6,1088.7 -172,1084.2 -151.5,1088.2 -115.1,1095.8 -77.4,1099.2 -43.2,1094.4" fill="#ffd9ea"/><polygon points="3,1054.5 3.4,1075.6 -3.2,1094.4 -14.6,1115.5 -13.5,1148.3 -13.5,1171.4 -12.7,1202.2 -17.5,1232.8 -16.7,1233 -11.4,1202.3 -11.6,1171.4 -11.1,1148.2 -11.8,1116.1 -0.1,1095.9 7.3,1076.3 7.4,1054.5" fill="#ffd9ea"/><polygon points="155.6,943.5 146.4,989 127.1,1028.6 120.8,1077.3 96,1108.5 78,1148.4 71.1,1182.2 47.6,1222.2 48.2,1222.6 72.3,1182.7 79.7,1149 98,1109.7 123.4,1078.3 130.3,1029.5 150,990.3 159.8,944.3" fill="#ffd9ea"/><polygon points="93.6,997.3 56.6,999.5 25.4,1001 -29.1,1003.6 -68.3,1015 -117.3,1040.6 -166,1053.7 -165.8,1054.2 -116.9,1041.6 -67.8,1016.3 -28.8,1005.5 25.5,1003.4 56.7,1002.2 93.7,1000.5" fill="#ffd9ea"/><polygon points="266.1,47.8 209.1,105.6 151,188.3 84.8,243.2 23.8,315.2 -28,357.7 -117.3,396.1 -156.5,455.3 -206.1,508.3 -204.9,509.4 -154.5,456.9 -115.2,398.9 -25.8,361.5 27.6,319 89.2,247.6 156.3,193.2 215.3,110.8 272.5,54.2" fill="#ffd9ea"/><polygon points="209.6,108.2 209.2,155.3 201.2,203.5 189.3,249.5 176.8,301.4 167.3,365.9 160,419 155.6,461 156.5,461.1 161.5,419.2 169.4,366.2 179.5,301.9 192.6,250.3 205,204.4 213.7,155.7 214.8,108.2" fill="#ffd9ea"/><polygon points="-26.2,357.6 -47.3,350 -63.6,340.1 -85.2,340.5 -101.3,340.8 -131.8,338 -147.9,335.8 -176.5,335.3 -199.1,325.3 -214.4,318.6 -237.7,317 -259.7,315.6 -259.7,316.4 -237.8,318.1 -214.7,319.9 -199.8,326.8 -176.9,337.3 -148.1,338.1 -132.1,340.6 -101.4,343.8 -85.2,343.7 -64.5,343.6 -49,353.5 -27.6,361.5" fill="#ffd9ea"/><polygon points="23.7,317.8 34.1,349.5 25.2,374.8 26.5,414 29.8,460.6 44.7,483.9 40,510 50.4,541.2 43.8,584.4 44.6,584.5 51.6,541.1 41.7,509.8 46.8,483.5 32.2,459.9 29.4,413.9 28.6,375.2 38,349.4 27.8,316.5" fill="#ffd9ea"/><polygon points="678.8,-94.5 705.7,44.2 707.7,184.1 735.1,364.5 734.3,541.7 673.1,704.8 635.7,798.4 627.7,950.2 627.3,1068.7 664.8,1177.3 687.3,1336 685.8,1488.4 688.7,1488.5 691.3,1335.8 669.9,1176.2 633.6,1067.7 635.2,950.4 644.3,800 682.4,708.4 745.3,543.7 747.4,363.6 721.1,183 720.3,42.8 694.3,-97.5" fill="#ffd9ea"/><polygon points="739.4,367.3 808.1,407.2 851.7,452.2 891.9,513.5 929.4,552.9 974.4,581 1001.2,636.1 1043.4,702.8 1076.3,762 1098.9,827.4 1142.8,901.7 1171.7,941.4 1172.8,940.7 1144.4,900.7 1101.1,826.3 1079,760.8 1046.5,701 1004.8,634.1 978,578 932.7,548.9 896.4,510 856.6,448.3 812.2,401.7 743.1,360.9" fill="#ffd9ea"/><polygon points="1044.4,703.7 1075.3,713.4 1116.5,709 1136.4,704.2 1158,711.5 1187.9,721.8 1219.2,730.3 1249.4,735 1268.8,745.2 1304.6,746.6 1333.4,741.8 1333.3,741.1 1304.6,745.6 1269.1,743.9 1249.9,733.4 1219.7,728.4 1188.6,719.6 1158.9,709.1 1136.6,701.4 1116,705.8 1075.6,709.9 1045.5,700.1" fill="#ffd9ea"/><polygon points="931.1,552.7 956.5,552 983.2,555.9 1019.4,555.8 1055.4,557.9 1088.6,544.6 1108.9,546.7 1136.6,553 1167.4,554 1199,544.3 1225,533.7 1224.7,533.1 1198.7,543.4 1167.2,552.8 1136.8,551.5 1109.2,544.9 1088.2,542.5 1055,555.5 1019.5,553.1 983.4,552.9 956.7,548.7 931,549.1" fill="#ffd9ea"/><polygon points="1142.3,900 1114.5,932.3 1103.5,960.3 1082.7,987.8 1072.8,1034.6 1057.9,1087 1055.8,1139.4 1054.5,1196.6 1028.2,1241 1004.8,1269 1005.3,1269.4 1029,1241.6 1055.7,1197 1057.5,1139.5 1059.8,1087.3 1075,1035.1 1085.1,988.8 1106,961.8 1117.2,934.1 1145,902.3" fill="#ffd9ea"/><polygon points="1141.6,901 1138.1,941.2 1136,979.6 1148.5,1010.1 1160.1,1039.8 1155.4,1070.2 1164.8,1104.5 1165,1139 1161.4,1170.4 1162.9,1211.9 1163.6,1211.8 1162.5,1170.5 1166.4,1139.1 1166.6,1104.3 1157.6,1070.1 1162.7,1039.5 1151.3,1009.1 1139.3,979.1 1141.8,941.5 1145.7,901.4" fill="#ffd9ea"/><polygon points="630.3,953.5 724.1,986.9 780.2,1055.4 898.2,1094.6 1019.8,1135.2 1116.6,1173.3 1206.2,1219.1 1300.4,1266.3 1300.9,1265.2 1207.1,1217.3 1117.8,1170.7 1021,1131.8 899.6,1090.5 783,1051 727.5,982 632.6,947.1" fill="#ffd9ea"/><polygon points="1204.7,1218.4 1210.6,1275.7 1224.2,1331 1231,1373.2 1232.4,1421.2 1226.3,1476.7 1234.3,1516.4 1250.8,1566.7 1251.5,1566.5 1235.4,1516.1 1228,1476.7 1234.5,1421.3 1233.5,1373 1227.1,1330.4 1214,1275.2 1208.6,1218" fill="#ffd9ea"/><polygon points="781.2,1055.2 819.8,1062.2 847.8,1062.3 881.1,1066.7 915.9,1064.6 947.7,1067.7 984.2,1062.5 1036.1,1053.6 1068.5,1044.8 1068.3,1044.1 1035.9,1052.5 984,1060.9 947.6,1065.7 915.9,1062.2 881.2,1063.9 848,1059 820.2,1058.6 782,1051.2" fill="#ffd9ea"/><polygon points="1115.3,1172.4 1122.9,1212.7 1122.4,1248.8 1123.3,1279.2 1141.6,1310 1143.2,1339.6 1143.4,1369.2 1155.3,1396.3 1164.6,1421.9 1183.4,1443.4 1184,1442.9 1165.5,1421.4 1156.6,1395.8 1145.1,1368.9 1145.3,1339.6 1143.9,1309.3 1125.9,1278.4 1125.5,1248.8 1126.3,1212.4 1119.1,1171.7" fill="#ffd9ea"/><polygon points="1021.5,1134.8 1040.6,1118.6 1073.3,1108.4 1094.7,1085.9 1121.1,1071.9 1147.5,1050.4 1181.4,1047.1 1212.8,1024.6 1212.4,1024.1 1181,1046.2 1146.9,1049.2 1120.2,1070.5 1093.5,1084.2 1072,1106.3 1039.3,1116 1019.4,1132.2" fill="#ffd9ea"/><polygon points="945.8,-99.4 856.1,92.8 871,250.3 832,424.5 816.2,665.2 854.1,887.7 824.2,1053.5 781.3,1221.8 784.1,1222.6 828.7,1054.5 860.6,887.6 824.6,664.8 842.1,425.8 883.1,251.2 869.7,95.8 960.1,-92.6" fill="#ffd9ea"/><polygon points="854.6,890.6 925,955.1 992.4,997 1079.8,1047.5 1126.1,1106.9 1210.4,1138.9 1277.5,1212.3 1278.5,1211.4 1211.9,1136.8 1128.2,1103.9 1082.8,1043.9 995.4,992 929.2,949.7 860,884.8" fill="#ffd9ea"/><polygon points="1209.4,1137.9 1210.3,1174.7 1207.1,1220.9 1215.4,1261.2 1219,1306.3 1227.1,1354.4 1233.2,1379.8 1232.3,1405.5 1232.9,1405.5 1234.2,1379.7 1228.5,1354.1 1220.8,1306 1217.5,1260.9 1209.7,1220.7 1213.3,1174.8 1212.8,1137.8" fill="#ffd9ea"/><polygon points="925,952.4 925.2,984.2 935.5,1006 941.4,1026.6 950.6,1050.2 959,1080 958.7,1102.4 977.3,1125 984.7,1147.7 984.4,1168.4 985.1,1168.4 985.8,1147.6 978.6,1124.2 960.5,1101.7 961.3,1079.6 953.1,1049.4 944.3,1025.7 938.6,1004.8 928.9,983.5 929.1,952.4" fill="#ffd9ea"/><polygon points="835.5,422.1 771.9,454.8 692.9,489.5 629.6,546.4 572.6,564.4 518.9,612.7 466.4,654.3 405.5,721.7 365,766.1 365.9,767 406.9,723 468.2,656.2 521,615.2 574.6,567.8 632,550.3 695.8,494 774.5,460.3 838.6,428.1" fill="#ffd9ea"/><polygon points="693.1,490.3 675,506.7 657,527.8 637,551.2 619.9,570.4 610.9,603.5 588.5,627.9 570,662.4 553.3,689 547.8,725.9 529.1,743.3 529.6,743.8 548.7,726.3 554.6,689.5 571.4,663.2 590.1,629 612.8,604.6 622.1,571.5 639.2,553.1 659.4,529.9 677.5,509.1 695.6,493.1" fill="#ffd9ea"/><polygon points="405,721.3 371.7,758.7 347.7,805.8 308.4,849.3 263.3,884.4 240.1,926 206.7,969.3 177.4,1019.5 177.9,1019.8 207.5,969.8 241.2,926.7 264.6,885.6 309.8,850.8 349.8,807.3 374.1,760.3 407.4,723.4" fill="#ffd9ea"/><polygon points="-59.1,538.9 -0.6,643.3 75.8,694.8 113.7,762 170.6,827.5 208.7,916.6 294.2,972.9 364.4,1031.8 419.7,1124.7 421.1,1123.9 366.4,1030.2 296.3,970 212.2,913.6 175.3,824.6 119,758.2 81.2,689.6 5.8,637.8 -50.9,534.4" fill="#ffd9ea"/><polygon points="292.6,971.8 298.5,1012.5 290.2,1041.4 291.4,1086 305.3,1121.4 296,1174.3 277.6,1230.4 275.6,1267.1 283.1,1303.9 272.5,1338.1 273.5,1338.4 284.5,1303.9 277.6,1266.9 280,1230.9 298.9,1175 308.8,1121.2 295.3,1085.2 294.6,1041.9 303.4,1012.7 297.9,971.1" fill="#ffd9ea"/><polygon points="115.3,762.1 162.6,784.9 238.5,825 286.8,826.3 342.5,833.4 402.2,839 476.4,879.5 476.8,878.8 402.7,837.6 342.8,831.4 287.1,823.7 239.5,821.9 164.4,781.4 117.3,758" fill="#ffd9ea"/><polygon points="-0.1,641.4 12.2,681.9 36.1,712 40.5,748.8 45.4,776 49.9,808.1 51.3,842.5 57.2,875.2 65,911.4 60.1,946.7 61.1,946.8 66.6,911.3 59.2,874.8 53.8,842.2 53,807.9 49,775.4 44.6,748.3 40.4,710.2 16.8,679.5 5.3,639.7" fill="#ffd9ea"/><polygon points="77.5,694.6 114.5,708.8 143.9,728.1 177,738.4 223.6,736.7 271.9,740.1 311.4,740.8 352,746.6 389.3,743.8 438.4,742.7 438.4,741.8 389.3,742.4 352.1,744.7 311.6,738.5 272,737.3 223.6,733.5 177.4,734.7 145.7,724.3 116.7,704.7 79.4,689.8" fill="#ffd9ea"/><polygon points="1152.5,884.5 1077.7,931.1 995.7,968.1 928.8,965.7 857.1,1005.2 768.3,1019.5 674.3,1022.9 617.7,1041.9 618.2,1043.5 674.7,1025.6 768.7,1023.3 858.6,1010 930.4,971.5 997.3,975.1 1081.6,938.5 1157.5,892.5" fill="#ffd9ea"/><polygon points="855.3,1006.3 838.8,1040 811.9,1060.5 775.2,1073.4 756.9,1110.2 719.9,1135.1 691.2,1156.1 691.8,1157 720.9,1136.5 758.8,1111.9 777.4,1075.9 813.7,1064.1 842.5,1043.1 860.4,1008.9" fill="#ffd9ea"/><polygon points="998.1,969.6 961.1,940.2 932.8,908.7 905.3,883.2 853.1,862.3 831.1,828.8 798.9,815.2 798.6,816.1 830,830.1 851.7,864.2 903.7,885.9 930,911.4 958,943.4 994.8,973.6" fill="#ffd9ea"/><polygon points="672.6,1023.7 665.3,1051.5 662.3,1103.4 656.4,1134.4 637.8,1170.9 617.7,1206 609.8,1233 610.5,1233.2 618.8,1206.5 639.3,1171.8 658.6,1135.3 665.2,1103.7 668.7,1052 676.4,1024.8" fill="#ffd9ea"/></g><g><polygon points="245.2,-95.1 262.2,51.9 287.1,232.7 326.7,386.9 273.6,497.2 309.8,642.9 330.6,813.8 357.1,995.8 334.4,1179.1 338.3,1312.3 341.2,1312.2 338.6,1179.4 362.8,995.8 337.7,812.9 318.3,641.4 283.6,498 338.2,387.5 299.8,230.3 276.5,50.1 261,-96.9" fill="#ffffff"/><polygon points="332.4,809.9 263.1,844.7 221.9,900.9 156,941.6 92.2,996.9 50.7,1020.9 4.1,1053.1 -44.5,1091.4 -80.9,1141.7 -121.1,1183.1 -120.1,1184.1 -79.2,1143 -42.5,1093.3 6.2,1055.9 53,1024.5 95.1,1000.9 159.4,946.2 226.2,905.7 267.6,850.2 335.9,816.9" fill="#ffffff"/><polygon points="-43.8,1090.3 -77.5,1095.5 -114.7,1092.5 -151,1085.4 -172,1081.8 -201.5,1086.7 -229.5,1080 -260.7,1080.2 -283.9,1081.9 -283.9,1082.6 -260.7,1081.4 -229.7,1081.6 -201.6,1088.7 -172,1084.2 -151.5,1088.2 -115.1,1095.8 -77.4,1099.2 -43.2,1094.4" fill="#ffffff"/><polygon points="3,1054.5 3.4,1075.6 -3.2,1094.4 -14.6,1115.5 -13.5,1148.3 -13.5,1171.4 -12.7,1202.2 -17.5,1232.8 -16.7,1233 -11.4,1202.3 -11.6,1171.4 -11.1,1148.2 -11.8,1116.1 -0.1,1095.9 7.3,1076.3 7.4,1054.5" fill="#ffffff"/><polygon points="155.6,943.5 146.4,989 127.1,1028.6 120.8,1077.3 96,1108.5 78,1148.4 71.1,1182.2 47.6,1222.2 48.2,1222.6 72.3,1182.7 79.7,1149 98,1109.7 123.4,1078.3 130.3,1029.5 150,990.3 159.8,944.3" fill="#ffffff"/><polygon points="93.6,997.3 56.6,999.5 25.4,1001 -29.1,1003.6 -68.3,1015 -117.3,1040.6 -166,1053.7 -165.8,1054.2 -116.9,1041.6 -67.8,1016.3 -28.8,1005.5 25.5,1003.4 56.7,1002.2 93.7,1000.5" fill="#ffffff"/><polygon points="266.1,47.8 209.1,105.6 151,188.3 84.8,243.2 23.8,315.2 -28,357.7 -117.3,396.1 -156.5,455.3 -206.1,508.3 -204.9,509.4 -154.5,456.9 -115.2,398.9 -25.8,361.5 27.6,319 89.2,247.6 156.3,193.2 215.3,110.8 272.5,54.2" fill="#ffffff"/><polygon points="209.6,108.2 209.2,155.3 201.2,203.5 189.3,249.5 176.8,301.4 167.3,365.9 160,419 155.6,461 156.5,461.1 161.5,419.2 169.4,366.2 179.5,301.9 192.6,250.3 205,204.4 213.7,155.7 214.8,108.2" fill="#ffffff"/><polygon points="-26.2,357.6 -47.3,350 -63.6,340.1 -85.2,340.5 -101.3,340.8 -131.8,338 -147.9,335.8 -176.5,335.3 -199.1,325.3 -214.4,318.6 -237.7,317 -259.7,315.6 -259.7,316.4 -237.8,318.1 -214.7,319.9 -199.8,326.8 -176.9,337.3 -148.1,338.1 -132.1,340.6 -101.4,343.8 -85.2,343.7 -64.5,343.6 -49,353.5 -27.6,361.5" fill="#ffffff"/><polygon points="23.7,317.8 34.1,349.5 25.2,374.8 26.5,414 29.8,460.6 44.7,483.9 40,510 50.4,541.2 43.8,584.4 44.6,584.5 51.6,541.1 41.7,509.8 46.8,483.5 32.2,459.9 29.4,413.9 28.6,375.2 38,349.4 27.8,316.5" fill="#ffffff"/><polygon points="678.8,-94.5 705.7,44.2 707.7,184.1 735.1,364.5 734.3,541.7 673.1,704.8 635.7,798.4 627.7,950.2 627.3,1068.7 664.8,1177.3 687.3,1336 685.8,1488.4 688.7,1488.5 691.3,1335.8 669.9,1176.2 633.6,1067.7 635.2,950.4 644.3,800 682.4,708.4 745.3,543.7 747.4,363.6 721.1,183 720.3,42.8 694.3,-97.5" fill="#ffffff"/><polygon points="739.4,367.3 808.1,407.2 851.7,452.2 891.9,513.5 929.4,552.9 974.4,581 1001.2,636.1 1043.4,702.8 1076.3,762 1098.9,827.4 1142.8,901.7 1171.7,941.4 1172.8,940.7 1144.4,900.7 1101.1,826.3 1079,760.8 1046.5,701 1004.8,634.1 978,578 932.7,548.9 896.4,510 856.6,448.3 812.2,401.7 743.1,360.9" fill="#ffffff"/><polygon points="1044.4,703.7 1075.3,713.4 1116.5,709 1136.4,704.2 1158,711.5 1187.9,721.8 1219.2,730.3 1249.4,735 1268.8,745.2 1304.6,746.6 1333.4,741.8 1333.3,741.1 1304.6,745.6 1269.1,743.9 1249.9,733.4 1219.7,728.4 1188.6,719.6 1158.9,709.1 1136.6,701.4 1116,705.8 1075.6,709.9 1045.5,700.1" fill="#ffffff"/><polygon points="931.1,552.7 956.5,552 983.2,555.9 1019.4,555.8 1055.4,557.9 1088.6,544.6 1108.9,546.7 1136.6,553 1167.4,554 1199,544.3 1225,533.7 1224.7,533.1 1198.7,543.4 1167.2,552.8 1136.8,551.5 1109.2,544.9 1088.2,542.5 1055,555.5 1019.5,553.1 983.4,552.9 956.7,548.7 931,549.1" fill="#ffffff"/><polygon points="1142.3,900 1114.5,932.3 1103.5,960.3 1082.7,987.8 1072.8,1034.6 1057.9,1087 1055.8,1139.4 1054.5,1196.6 1028.2,1241 1004.8,1269 1005.3,1269.4 1029,1241.6 1055.7,1197 1057.5,1139.5 1059.8,1087.3 1075,1035.1 1085.1,988.8 1106,961.8 1117.2,934.1 1145,902.3" fill="#ffffff"/><polygon points="1141.6,901 1138.1,941.2 1136,979.6 1148.5,1010.1 1160.1,1039.8 1155.4,1070.2 1164.8,1104.5 1165,1139 1161.4,1170.4 1162.9,1211.9 1163.6,1211.8 1162.5,1170.5 1166.4,1139.1 1166.6,1104.3 1157.6,1070.1 1162.7,1039.5 1151.3,1009.1 1139.3,979.1 1141.8,941.5 1145.7,901.4" fill="#ffffff"/><polygon points="630.3,953.5 724.1,986.9 780.2,1055.4 898.2,1094.6 1019.8,1135.2 1116.6,1173.3 1206.2,1219.1 1300.4,1266.3 1300.9,1265.2 1207.1,1217.3 1117.8,1170.7 1021,1131.8 899.6,1090.5 783,1051 727.5,982 632.6,947.1" fill="#ffffff"/><polygon points="1204.7,1218.4 1210.6,1275.7 1224.2,1331 1231,1373.2 1232.4,1421.2 1226.3,1476.7 1234.3,1516.4 1250.8,1566.7 1251.5,1566.5 1235.4,1516.1 1228,1476.7 1234.5,1421.3 1233.5,1373 1227.1,1330.4 1214,1275.2 1208.6,1218" fill="#ffffff"/><polygon points="781.2,1055.2 819.8,1062.2 847.8,1062.3 881.1,1066.7 915.9,1064.6 947.7,1067.7 984.2,1062.5 1036.1,1053.6 1068.5,1044.8 1068.3,1044.1 1035.9,1052.5 984,1060.9 947.6,1065.7 915.9,1062.2 881.2,1063.9 848,1059 820.2,1058.6 782,1051.2" fill="#ffffff"/><polygon points="1115.3,1172.4 1122.9,1212.7 1122.4,1248.8 1123.3,1279.2 1141.6,1310 1143.2,1339.6 1143.4,1369.2 1155.3,1396.3 1164.6,1421.9 1183.4,1443.4 1184,1442.9 1165.5,1421.4 1156.6,1395.8 1145.1,1368.9 1145.3,1339.6 1143.9,1309.3 1125.9,1278.4 1125.5,1248.8 1126.3,1212.4 1119.1,1171.7" fill="#ffffff"/><polygon points="1021.5,1134.8 1040.6,1118.6 1073.3,1108.4 1094.7,1085.9 1121.1,1071.9 1147.5,1050.4 1181.4,1047.1 1212.8,1024.6 1212.4,1024.1 1181,1046.2 1146.9,1049.2 1120.2,1070.5 1093.5,1084.2 1072,1106.3 1039.3,1116 1019.4,1132.2" fill="#ffffff"/><polygon points="945.8,-99.4 856.1,92.8 871,250.3 832,424.5 816.2,665.2 854.1,887.7 824.2,1053.5 781.3,1221.8 784.1,1222.6 828.7,1054.5 860.6,887.6 824.6,664.8 842.1,425.8 883.1,251.2 869.7,95.8 960.1,-92.6" fill="#ffffff"/><polygon points="854.6,890.6 925,955.1 992.4,997 1079.8,1047.5 1126.1,1106.9 1210.4,1138.9 1277.5,1212.3 1278.5,1211.4 1211.9,1136.8 1128.2,1103.9 1082.8,1043.9 995.4,992 929.2,949.7 860,884.8" fill="#ffffff"/><polygon points="1209.4,1137.9 1210.3,1174.7 1207.1,1220.9 1215.4,1261.2 1219,1306.3 1227.1,1354.4 1233.2,1379.8 1232.3,1405.5 1232.9,1405.5 1234.2,1379.7 1228.5,1354.1 1220.8,1306 1217.5,1260.9 1209.7,1220.7 1213.3,1174.8 1212.8,1137.8" fill="#ffffff"/><polygon points="925,952.4 925.2,984.2 935.5,1006 941.4,1026.6 950.6,1050.2 959,1080 958.7,1102.4 977.3,1125 984.7,1147.7 984.4,1168.4 985.1,1168.4 985.8,1147.6 978.6,1124.2 960.5,1101.7 961.3,1079.6 953.1,1049.4 944.3,1025.7 938.6,1004.8 928.9,983.5 929.1,952.4" fill="#ffffff"/><polygon points="835.5,422.1 771.9,454.8 692.9,489.5 629.6,546.4 572.6,564.4 518.9,612.7 466.4,654.3 405.5,721.7 365,766.1 365.9,767 406.9,723 468.2,656.2 521,615.2 574.6,567.8 632,550.3 695.8,494 774.5,460.3 838.6,428.1" fill="#ffffff"/><polygon points="693.1,490.3 675,506.7 657,527.8 637,551.2 619.9,570.4 610.9,603.5 588.5,627.9 570,662.4 553.3,689 547.8,725.9 529.1,743.3 529.6,743.8 548.7,726.3 554.6,689.5 571.4,663.2 590.1,629 612.8,604.6 622.1,571.5 639.2,553.1 659.4,529.9 677.5,509.1 695.6,493.1" fill="#ffffff"/><polygon points="405,721.3 371.7,758.7 347.7,805.8 308.4,849.3 263.3,884.4 240.1,926 206.7,969.3 177.4,1019.5 177.9,1019.8 207.5,969.8 241.2,926.7 264.6,885.6 309.8,850.8 349.8,807.3 374.1,760.3 407.4,723.4" fill="#ffffff"/><polygon points="-59.1,538.9 -0.6,643.3 75.8,694.8 113.7,762 170.6,827.5 208.7,916.6 294.2,972.9 364.4,1031.8 419.7,1124.7 421.1,1123.9 366.4,1030.2 296.3,970 212.2,913.6 175.3,824.6 119,758.2 81.2,689.6 5.8,637.8 -50.9,534.4" fill="#ffffff"/><polygon points="292.6,971.8 298.5,1012.5 290.2,1041.4 291.4,1086 305.3,1121.4 296,1174.3 277.6,1230.4 275.6,1267.1 283.1,1303.9 272.5,1338.1 273.5,1338.4 284.5,1303.9 277.6,1266.9 280,1230.9 298.9,1175 308.8,1121.2 295.3,1085.2 294.6,1041.9 303.4,1012.7 297.9,971.1" fill="#ffffff"/><polygon points="115.3,762.1 162.6,784.9 238.5,825 286.8,826.3 342.5,833.4 402.2,839 476.4,879.5 476.8,878.8 402.7,837.6 342.8,831.4 287.1,823.7 239.5,821.9 164.4,781.4 117.3,758" fill="#ffffff"/><polygon points="-0.1,641.4 12.2,681.9 36.1,712 40.5,748.8 45.4,776 49.9,808.1 51.3,842.5 57.2,875.2 65,911.4 60.1,946.7 61.1,946.8 66.6,911.3 59.2,874.8 53.8,842.2 53,807.9 49,775.4 44.6,748.3 40.4,710.2 16.8,679.5 5.3,639.7" fill="#ffffff"/><polygon points="77.5,694.6 114.5,708.8 143.9,728.1 177,738.4 223.6,736.7 271.9,740.1 311.4,740.8 352,746.6 389.3,743.8 438.4,742.7 438.4,741.8 389.3,742.4 352.1,744.7 311.6,738.5 272,737.3 223.6,733.5 177.4,734.7 145.7,724.3 116.7,704.7 79.4,689.8" fill="#ffffff"/><polygon points="1152.5,884.5 1077.7,931.1 995.7,968.1 928.8,965.7 857.1,1005.2 768.3,1019.5 674.3,1022.9 617.7,1041.9 618.2,1043.5 674.7,1025.6 768.7,1023.3 858.6,1010 930.4,971.5 997.3,975.1 1081.6,938.5 1157.5,892.5" fill="#ffffff"/><polygon points="855.3,1006.3 838.8,1040 811.9,1060.5 775.2,1073.4 756.9,1110.2 719.9,1135.1 691.2,1156.1 691.8,1157 720.9,1136.5 758.8,1111.9 777.4,1075.9 813.7,1064.1 842.5,1043.1 860.4,1008.9" fill="#ffffff"/><polygon points="998.1,969.6 961.1,940.2 932.8,908.7 905.3,883.2 853.1,862.3 831.1,828.8 798.9,815.2 798.6,816.1 830,830.1 851.7,864.2 903.7,885.9 930,911.4 958,943.4 994.8,973.6" fill="#ffffff"/><polygon points="672.6,1023.7 665.3,1051.5 662.3,1103.4 656.4,1134.4 637.8,1170.9 617.7,1206 609.8,1233 610.5,1233.2 618.8,1206.5 639.3,1171.8 658.6,1135.3 665.2,1103.7 668.7,1052 676.4,1024.8" fill="#ffffff"/></g><use href="#mhoodieface881f11" transform="translate(1080.6,1051.8) rotate(229.7) scale(0.224)"/><use href="#mhoodieface881f8" transform="translate(138.4,999.9) rotate(341.8) scale(0.139)"/><use href="#mhoodieface881f11" transform="translate(1075.6,1000.8) rotate(74.9) scale(0.237)"/><use href="#mhoodieface881f5" transform="translate(130.8,706.4) rotate(301.5) scale(0.265)"/><use href="#mhoodieface881f6" transform="translate(710.3,1136) rotate(318.4) scale(0.179)"/><use href="#mhoodieface881f7" transform="translate(44.5,481) rotate(204.7) scale(0.177)"/><use href="#mhoodieface881f3" transform="translate(-79.9,1139.6) rotate(113.2) scale(0.145)"/><use href="#mhoodieface881f0" transform="translate(367.8,772) rotate(205.7) scale(0.232)"/><use href="#mhoodieface881f5" transform="translate(283.1,1294.3) rotate(83.4) scale(0.240)"/><use href="#mhoodieface881f2" transform="translate(-20.8,1119.2) rotate(244.9) scale(0.151)"/><use href="#mhoodieface881f8" transform="translate(-186.7,1099.6) rotate(182.4) scale(0.143)"/><use href="#mhoodieface881f8" transform="translate(-159.4,1043.5) rotate(189.3) scale(0.238)"/><use href="#mhoodieface881f10" transform="translate(798.1,1236.4) rotate(10) scale(0.210)"/><use href="#mhoodieface881f1" transform="translate(574.1,666.4) rotate(317) scale(0.216)"/><use href="#mhoodieface881f8" transform="translate(1082.5,717.5) rotate(50.6) scale(0.194)"/><use href="#mhoodieface881f9" transform="translate(45.3,337.2) rotate(160.2) scale(0.269)"/><use href="#mhoodieface881f5" transform="translate(1209,1148.9) rotate(14) scale(0.261)"/><use href="#mhoodieface881f6" transform="translate(306.2,1131.1) rotate(100.6) scale(0.241)"/><use href="#mhoodieface881f6" transform="translate(-207.2,337.3) rotate(216.1) scale(0.139)"/><use href="#mhoodieface881f10" transform="translate(1074,546.1) rotate(85.6) scale(0.243)"/><use href="#mhoodieface881f0" transform="translate(469,889.6) rotate(164.9) scale(0.217)"/><use href="#mhoodieface881f8" transform="translate(754.5,1098.5) rotate(347.6) scale(0.205)"/><use href="#mhoodieface881f2" transform="translate(323.6,381.1) rotate(147.5) scale(0.149)"/><use href="#mhoodieface881f2" transform="translate(241.1,928.6) rotate(350.6) scale(0.241)"/><use href="#mhoodieface881f11" transform="translate(844.1,1065.8) rotate(238.7) scale(0.259)"/><use href="#mhoodieface881f2" transform="translate(258.8,885.9) rotate(209.1) scale(0.173)"/><use href="#mhoodieface881f4" transform="translate(943.2,1036.2) rotate(112.3) scale(0.134)"/><use href="#mhoodieface881f6" transform="translate(399.4,848.5) rotate(229.2) scale(0.220)"/><use href="#mhoodieface881f11" transform="translate(1002.3,1000.4) rotate(66) scale(0.187)"/><use href="#mhoodieface881f10" transform="translate(-31.5,1219.2) rotate(176) scale(0.255)"/><use href="#mhoodieface881f5" transform="translate(2,1069.5) rotate(180.8) scale(0.186)"/><use href="#mhoodieface881f1" transform="translate(276.6,740.3) rotate(224.9) scale(0.223)"/><use href="#mhoodieface881f8" transform="translate(1186.3,537.5) rotate(115) scale(0.257)"/><use href="#mhoodieface881f7" transform="translate(131.5,1026.1) rotate(55.9) scale(0.188)"/><use href="#mhoodieface881f7" transform="translate(306.9,966.2) rotate(52.3) scale(0.192)"/><use href="#mhoodieface881f10" transform="translate(1133.7,1035.9) rotate(295.6) scale(0.172)"/><use href="#mhoodieface881f0" transform="translate(-76.3,1014) rotate(26.9) scale(0.163)"/><use href="#mhoodieface881f2" transform="translate(187.5,306.7) rotate(206.9) scale(0.225)"/><use href="#mhoodieface881f0" transform="translate(1150.3,927.3) rotate(248.7) scale(0.159)"/><use href="#mhoodieface881f5" transform="translate(680.9,1020.3) rotate(204.4) scale(0.250)"/><use href="#mhoodieface881f9" transform="translate(838.2,831.7) rotate(11.5) scale(0.162)"/><use href="#mhoodieface881f7" transform="translate(990.3,1131.2) rotate(240.9) scale(0.208)"/><use href="#mhoodieface881f0" transform="translate(732,369.8) rotate(219.6) scale(0.210)"/><use href="#mhoodieface881f4" transform="translate(186.2,748.5) rotate(322.9) scale(0.257)"/><use href="#mhoodieface881f6" transform="translate(1061.5,1184.6) rotate(344.8) scale(0.158)"/><use href="#mhoodieface881f10" transform="translate(1315.4,1258.6) rotate(166.6) scale(0.247)"/><use href="#mhoodieface881f0" transform="translate(1123.1,1271.3) rotate(136.6) scale(0.185)"/><use href="#mhoodieface881f10" transform="translate(725.6,528.9) rotate(4.6) scale(0.246)"/><use href="#mhoodieface881f1" transform="translate(625.5,573.2) rotate(154) scale(0.214)"/><use href="#mhoodieface881f4" transform="translate(-10.6,1176.1) rotate(67.5) scale(0.186)"/><use href="#mhoodieface881f9" transform="translate(870.8,82.6) rotate(6.5) scale(0.167)"/><use href="#mhoodieface881f6" transform="translate(815,397.4) rotate(221.3) scale(0.221)"/><use href="#mhoodieface881f8" transform="translate(1204.9,1038.2) rotate(29.3) scale(0.235)"/><use href="#mhoodieface881f11" transform="translate(1230.9,1353.2) rotate(306.8) scale(0.187)"/><use href="#mhoodieface881f8" transform="translate(849.9,899.5) rotate(57) scale(0.233)"/><use href="#mhoodieface881f0" transform="translate(146.7,193.4) rotate(61.8) scale(0.162)"/><use href="#mhoodieface881f2" transform="translate(899.8,507.7) rotate(151.9) scale(0.218)"/><use href="#mhoodieface881f4" transform="translate(646.6,953.5) rotate(215.1) scale(0.159)"/><use href="#mhoodieface881f8" transform="translate(-92.8,1084.4) rotate(7.4) scale(0.173)"/><use href="#mhoodieface881f4" transform="translate(702.2,1486.3) rotate(273) scale(0.188)"/><use href="#mhoodieface881f6" transform="translate(-121,1193.6) rotate(198.6) scale(0.258)"/><use href="#mhoodieface881f0" transform="translate(68.4,835.2) rotate(284.6) scale(0.188)"/><use href="#mhoodieface881f4" transform="translate(1132.1,1360.9) rotate(248.2) scale(0.224)"/><use href="#mhoodieface881f5" transform="translate(1040.9,1235.8) rotate(100.1) scale(0.214)"/><use href="#mhoodieface881f9" transform="translate(254,39) rotate(74.5) scale(0.246)"/><use href="#mhoodieface881f9" transform="translate(464.2,660.3) rotate(114.9) scale(0.139)"/><use href="#mhoodieface881f2" transform="translate(1292.8,1217.1) rotate(131.5) scale(0.266)"/><use href="#mhoodieface881f6" transform="translate(823.3,678.2) rotate(241.1) scale(0.188)"/><use href="#mhoodieface881f4" transform="translate(1218.3,1418.6) rotate(108) scale(0.162)"/><use href="#mhoodieface881f0" transform="translate(22.4,1012.8) rotate(145.7) scale(0.228)"/><use href="#mhoodieface881f3" transform="translate(1179.3,714.3) rotate(139.5) scale(0.271)"/><use href="#mhoodieface881f3" transform="translate(956.2,557.8) rotate(134.9) scale(0.232)"/><use href="#mhoodieface881f1" transform="translate(947.1,993.2) rotate(174.7) scale(0.132)"/><use href="#mhoodieface881f5" transform="translate(721.3,994.6) rotate(258.5) scale(0.186)"/><use href="#mhoodieface881f10" transform="translate(1096,832.5) rotate(325.7) scale(0.151)"/><use href="#mhoodieface881f7" transform="translate(175.7,424.1) rotate(84.5) scale(0.273)"/><use href="#mhoodieface881f2" transform="translate(329,837.2) rotate(310) scale(0.241)"/><use href="#mhoodieface881f9" transform="translate(171.7,1025.2) rotate(55.8) scale(0.131)"/><use href="#mhoodieface881f4" transform="translate(942.8,924.2) rotate(2.8) scale(0.236)"/><use href="#mhoodieface881f11" transform="translate(1035.7,1140.1) rotate(78.8) scale(0.131)"/><use href="#mhoodieface881f7" transform="translate(626.4,1075.7) rotate(167.2) scale(0.267)"/><use href="#mhoodieface881f6" transform="translate(1317.6,745.8) rotate(70.5) scale(0.223)"/><use href="#mhoodieface881f0" transform="translate(60.2,765.2) rotate(325.5) scale(0.152)"/><use href="#mhoodieface881f5" transform="translate(207.9,737.9) rotate(347.5) scale(0.175)"/><use href="#mhoodieface881f9" transform="translate(705.8,191.9) rotate(222.2) scale(0.175)"/><use href="#mhoodieface881f5" transform="translate(1064.8,934.5) rotate(231.7) scale(0.192)"/><use href="#mhoodieface881f10" transform="translate(354.3,1032.7) rotate(326.8) scale(0.271)"/><use href="#mhoodieface881f5" transform="translate(-213.6,516.2) rotate(26) scale(0.161)"/><use href="#mhoodieface881f11" transform="translate(-147.4,342.1) rotate(264.9) scale(0.196)"/><use href="#mhoodieface881f1" transform="translate(688.7,508) rotate(150.8) scale(0.242)"/><use href="#mhoodieface881f0" transform="translate(-155,460.9) rotate(200.6) scale(0.178)"/><use href="#mhoodieface881f11" transform="translate(289.9,243.2) rotate(281.6) scale(0.212)"/><use href="#mhoodieface881f8" transform="translate(104,989.3) rotate(163.1) scale(0.244)"/><use href="#mhoodieface881f1" transform="translate(1166.3,1419.1) rotate(72.7) scale(0.233)"/><use href="#mhoodieface881f2" transform="translate(692.2,712.6) rotate(80.7) scale(0.150)"/><use href="#mhoodieface881f1" transform="translate(1113.4,1206.5) rotate(168.6) scale(0.241)"/><use href="#mhoodieface881f7" transform="translate(1255.5,731.3) rotate(344.9) scale(0.241)"/><use href="#mhoodieface881f5" transform="translate(616.5,1225.8) rotate(223.8) scale(0.132)"/><use href="#mhoodieface881f7" transform="translate(178,818.4) rotate(328.3) scale(0.244)"/><use href="#mhoodieface881f5" transform="translate(28.9,571.2) rotate(204.9) scale(0.238)"/><use href="#mhoodieface881f5" transform="translate(-118.3,389.3) rotate(240.9) scale(0.207)"/><use href="#mhoodieface881f4" transform="translate(-282.9,1089.6) rotate(35.7) scale(0.180)"/><use href="#mhoodieface881f9" transform="translate(222.5,960.6) rotate(156.5) scale(0.169)"/><use href="#mhoodieface881f5" transform="translate(1044.1,1088) rotate(327.6) scale(0.130)"/><use href="#mhoodieface881f3" transform="translate(1220.5,1225.1) rotate(248) scale(0.231)"/><use href="#mhoodieface881f10" transform="translate(62.5,546.2) rotate(296.4) scale(0.240)"/><use href="#mhoodieface881f2" transform="translate(783.3,1007.6) rotate(279.5) scale(0.171)"/><use href="#mhoodieface881f11" transform="translate(125.1,1091.1) rotate(296.4) scale(0.161)"/><use href="#mhoodieface881f9" transform="translate(201.5,240.6) rotate(167.6) scale(0.143)"/><use href="#mhoodieface881f4" transform="translate(-89.6,336.6) rotate(218.4) scale(0.232)"/><use href="#mhoodieface881f1" transform="translate(1155.5,1131.4) rotate(155.3) scale(0.193)"/><use href="#mhoodieface881f8" transform="translate(63.3,1224.4) rotate(171.3) scale(0.199)"/><use href="#mhoodieface881f1" transform="translate(321.7,1165.8) rotate(192.5) scale(0.198)"/><use href="#mhoodieface881f10" transform="translate(1223.6,1306.5) rotate(116) scale(0.271)"/><use href="#mhoodieface881f9" transform="translate(999.4,635.4) rotate(105.8) scale(0.130)"/><use href="#mhoodieface881f3" transform="translate(872.3,1005.3) rotate(297.4) scale(0.132)"/><use href="#mhoodieface881f9" transform="translate(4.5,629.3) rotate(282.1) scale(0.235)"/><use href="#mhoodieface881f3" transform="translate(840.9,447.5) rotate(273.8) scale(0.246)"/><use href="#mhoodieface881f9" transform="translate(579.8,579) rotate(54.5) scale(0.203)"/><use href="#mhoodieface881f3" transform="translate(452.3,748.1) rotate(110) scale(0.161)"/><use href="#mhoodieface881f2" transform="translate(964.8,955.8) rotate(208.2) scale(0.233)"/><use href="#mhoodieface881f5" transform="translate(728,33.8) rotate(131) scale(0.247)"/><use href="#mhoodieface881f8" transform="translate(221.7,112.9) rotate(279.6) scale(0.153)"/><use href="#mhoodieface881f1" transform="translate(86.3,1148.9) rotate(2.5) scale(0.207)"/><use href="#mhoodieface881f4" transform="translate(420.2,1115.8) rotate(295.9) scale(0.133)"/><use href="#mhoodieface881f11" transform="translate(285.4,488.6) rotate(24) scale(0.131)"/><use href="#mhoodieface881f1" transform="translate(0.5,669.7) rotate(63.6) scale(0.243)"/><use href="#mhoodieface881f9" transform="translate(1208.8,1249.4) rotate(275.4) scale(0.220)"/><use href="#mhoodieface881f8" transform="translate(909.8,1104.8) rotate(281) scale(0.135)"/><use href="#mhoodieface881f9" transform="translate(1220.3,1481.2) rotate(344.4) scale(0.266)"/><use href="#mhoodieface881f10" transform="translate(543.2,735.3) rotate(228.5) scale(0.214)"/><use href="#mhoodieface881f0" transform="translate(297.2,828.2) rotate(111.3) scale(0.178)"/><use href="#mhoodieface881f2" transform="translate(203.3,211.6) rotate(99.8) scale(0.268)"/><use href="#mhoodieface881f8" transform="translate(175,790) rotate(247.6) scale(0.198)"/><use href="#mhoodieface881f3" transform="translate(777.7,458.4) rotate(309.3) scale(0.250)"/><use href="#mhoodieface881f7" transform="translate(1248.7,1579.1) rotate(176.9) scale(0.242)"/><use href="#mhoodieface881f5" transform="translate(160.9,933.2) rotate(101.1) scale(0.225)"/><use href="#mhoodieface881f11" transform="translate(1116.5,1097) rotate(68.4) scale(0.250)"/><use href="#mhoodieface881f4" transform="translate(-260,328.6) rotate(111.2) scale(0.264)"/><use href="#mhoodieface881f1" transform="translate(1018.3,558.6) rotate(23) scale(0.170)"/><use href="#mhoodieface881f6" transform="translate(82.2,245.4) rotate(123.9) scale(0.210)"/><use href="#mhoodieface881f6" transform="translate(235.4,832.2) rotate(64.6) scale(0.164)"/><use href="#mhoodieface881f6" transform="translate(201.8,155.5) rotate(17.9) scale(0.163)"/><use href="#mhoodieface881f10" transform="translate(147.6,459.1) rotate(116.6) scale(0.180)"/><use href="#mhoodieface881f8" transform="translate(329.2,633.6) rotate(279.3) scale(0.223)"/><use href="#mhoodieface881f4" transform="translate(626.3,806) rotate(108.1) scale(0.143)"/><use href="#mhoodieface881f2" transform="translate(45.4,951.2) rotate(73.3) scale(0.251)"/><use href="#mhoodieface881f4" transform="translate(995.8,1182.7) rotate(200.8) scale(0.258)"/><use href="#mhoodieface881f5" transform="translate(1146.4,708.4) rotate(316.7) scale(0.162)"/><use href="#mhoodieface881f3" transform="translate(1124.9,548.6) rotate(314.9) scale(0.185)"/><use href="#mhoodieface881f2" transform="translate(280.5,1224.3) rotate(133.2) scale(0.187)"/><use href="#mhoodieface881f10" transform="translate(675.3,1104.7) rotate(138.2) scale(0.217)"/><use href="#mhoodieface881f11" transform="translate(534.7,614.7) rotate(344.1) scale(0.272)"/><use href="#mhoodieface881f1" transform="translate(340.8,1302.1) rotate(194.5) scale(0.254)"/><use href="#mhoodieface881f3" transform="translate(668.6,1191.1) rotate(113.1) scale(0.251)"/><use href="#mhoodieface881f6" transform="translate(890.4,254.3) rotate(206.9) scale(0.174)"/><use href="#mhoodieface881f10" transform="translate(182.1,377) rotate(7.6) scale(0.135)"/><use href="#mhoodieface881f8" transform="translate(102.7,746.8) rotate(278.5) scale(0.227)"/><use href="#mhoodieface881f2" transform="translate(1075,768.8) rotate(238) scale(0.137)"/><use href="#mhoodieface881f8" transform="translate(704.4,1333.9) rotate(68.3) scale(0.198)"/><use href="#mhoodieface881f1" transform="translate(306.2,1050.6) rotate(110.8) scale(0.258)"/><use href="#mhoodieface881f7" transform="translate(-29.1,372.3) rotate(87.6) scale(0.219)"/><use href="#mhoodieface881f4" transform="translate(27.7,405.3) rotate(16.4) scale(0.206)"/><use href="#mhoodieface881f2" transform="translate(-106.6,1042.7) rotate(236.2) scale(0.144)"/><use href="#mhoodieface881f5" transform="translate(807.3,587.6) rotate(347.3) scale(0.130)" opacity="0.9"/><use href="#mhoodieface881f3" transform="translate(1027.3,725.8) rotate(104.4) scale(0.152)" opacity="0.8"/><use href="#mhoodieface881f10" transform="translate(61,455.6) rotate(98.1) scale(0.175)" opacity="1"/><use href="#mhoodieface881f10" transform="translate(291.1,118.5) rotate(113.3) scale(0.110)" opacity="0.7"/><use href="#mhoodieface881f5" transform="translate(369.3,172.8) rotate(118.4) scale(0.104)" opacity="0.8"/><use href="#mhoodieface881f6" transform="translate(90.6,828.9) rotate(255) scale(0.196)" opacity="0.6"/><use href="#mhoodieface881f7" transform="translate(975.1,603.5) rotate(240.4) scale(0.140)" opacity="0.7"/><use href="#mhoodieface881f9" transform="translate(821.5,33.3) rotate(304.7) scale(0.153)" opacity="0.7"/><use href="#mhoodieface881f6" transform="translate(213.5,557.9) rotate(121.1) scale(0.191)" opacity="0.8"/><use href="#mhoodieface881f3" transform="translate(415.6,727.3) rotate(37.4) scale(0.172)" opacity="0.6"/><use href="#mhoodieface881p2" transform="translate(902.3,692.3) rotate(103.3) scale(0.079)" opacity="0.9"/><use href="#mhoodieface881p0" transform="translate(567.5,417.5) rotate(279.5) scale(0.106)" opacity="0.8"/><use href="#mhoodieface881p1" transform="translate(939.1,930.1) rotate(102.9) scale(0.110)" opacity="0.9"/><use href="#mhoodieface881p5" transform="translate(561.8,907.2) rotate(181.5) scale(0.112)" opacity="0.8"/><use href="#mhoodieface881p5" transform="translate(322.8,125.1) rotate(55.3) scale(0.104)" opacity="0.5"/><use href="#mhoodieface881p3" transform="translate(593.1,1006.2) rotate(0.1) scale(0.070)" opacity="0.5"/><use href="#mhoodieface881p3" transform="translate(113.3,673.1) rotate(11.1) scale(0.097)" opacity="0.7"/><use href="#mhoodieface881p2" transform="translate(384.9,839.4) rotate(93.8) scale(0.087)" opacity="0.8"/><use href="#mhoodieface881p2" transform="translate(588,670.8) rotate(111.5) scale(0.065)" opacity="0.6"/><use href="#mhoodieface881p0" transform="translate(693.8,1046.9) rotate(239.2) scale(0.070)" opacity="0.6"/><use href="#mhoodieface881p5" transform="translate(889.4,164.2) rotate(184) scale(0.111)" opacity="0.5"/><use href="#mhoodieface881p0" transform="translate(712.8,791.5) rotate(146.8) scale(0.099)" opacity="0.9"/><use href="#mhoodieface881p2" transform="translate(56.4,571.5) rotate(139) scale(0.072)" opacity="0.6"/><use href="#mhoodieface881p1" transform="translate(886.9,1064.8) rotate(326.5) scale(0.092)" opacity="0.8"/><use href="#mhoodieface881p2" transform="translate(812.9,875.4) rotate(73.7) scale(0.088)" opacity="0.6"/><use href="#mhoodieface881p1" transform="translate(1009.7,148.2) rotate(165.8) scale(0.105)" opacity="0.8"/><use href="#mhoodieface881p5" transform="translate(459.5,292.1) rotate(59) scale(0.060)" opacity="0.7"/></g>
  <rect x="254" y="844" width="392" height="42" fill="#000" opacity="0.5"/><line x1="254" y1="844" x2="254" y2="886" stroke="#fff" stroke-opacity="0.07" stroke-width="3"/><line x1="265" y1="844" x2="265" y2="886" stroke="#fff" stroke-opacity="0.07" stroke-width="3"/><line x1="276" y1="844" x2="276" y2="886" stroke="#fff" stroke-opacity="0.07" stroke-width="3"/><line x1="287" y1="844" x2="287" y2="886" stroke="#fff" stroke-opacity="0.07" stroke-width="3"/><line x1="298" y1="844" x2="298" y2="886" stroke="#fff" stroke-opacity="0.07" stroke-width="3"/><line x1="309" y1="844" x2="309" y2="886" stroke="#fff" stroke-opacity="0.07" stroke-width="3"/><line x1="320" y1="844" x2="320" y2="886" stroke="#fff" stroke-opacity="0.07" stroke-width="3"/><line x1="331" y1="844" x2="331" y2="886" stroke="#fff" stroke-opacity="0.07" stroke-width="3"/><line x1="342" y1="844" x2="342" y2="886" stroke="#fff" stroke-opacity="0.07" stroke-width="3"/><line x1="353" y1="844" x2="353" y2="886" stroke="#fff" stroke-opacity="0.07" stroke-width="3"/><line x1="364" y1="844" x2="364" y2="886" stroke="#fff" stroke-opacity="0.07" stroke-width="3"/><line x1="375" y1="844" x2="375" y2="886" stroke="#fff" stroke-opacity="0.07" stroke-width="3"/><line x1="386" y1="844" x2="386" y2="886" stroke="#fff" stroke-opacity="0.07" stroke-width="3"/><line x1="397" y1="844" x2="397" y2="886" stroke="#fff" stroke-opacity="0.07" stroke-width="3"/><line x1="408" y1="844" x2="408" y2="886" stroke="#fff" stroke-opacity="0.07" stroke-width="3"/><line x1="419" y1="844" x2="419" y2="886" stroke="#fff" stroke-opacity="0.07" stroke-width="3"/><line x1="430" y1="844" x2="430" y2="886" stroke="#fff" stroke-opacity="0.07" stroke-width="3"/><line x1="441" y1="844" x2="441" y2="886" stroke="#fff" stroke-opacity="0.07" stroke-width="3"/><line x1="452" y1="844" x2="452" y2="886" stroke="#fff" stroke-opacity="0.07" stroke-width="3"/><line x1="463" y1="844" x2="463" y2="886" stroke="#fff" stroke-opacity="0.07" stroke-width="3"/><line x1="474" y1="844" x2="474" y2="886" stroke="#fff" stroke-opacity="0.07" stroke-width="3"/><line x1="485" y1="844" x2="485" y2="886" stroke="#fff" stroke-opacity="0.07" stroke-width="3"/><line x1="496" y1="844" x2="496" y2="886" stroke="#fff" stroke-opacity="0.07" stroke-width="3"/><line x1="507" y1="844" x2="507" y2="886" stroke="#fff" stroke-opacity="0.07" stroke-width="3"/><line x1="518" y1="844" x2="518" y2="886" stroke="#fff" stroke-opacity="0.07" stroke-width="3"/><line x1="529" y1="844" x2="529" y2="886" stroke="#fff" stroke-opacity="0.07" stroke-width="3"/><line x1="540" y1="844" x2="540" y2="886" stroke="#fff" stroke-opacity="0.07" stroke-width="3"/><line x1="551" y1="844" x2="551" y2="886" stroke="#fff" stroke-opacity="0.07" stroke-width="3"/><line x1="562" y1="844" x2="562" y2="886" stroke="#fff" stroke-opacity="0.07" stroke-width="3"/><line x1="573" y1="844" x2="573" y2="886" stroke="#fff" stroke-opacity="0.07" stroke-width="3"/><line x1="584" y1="844" x2="584" y2="886" stroke="#fff" stroke-opacity="0.07" stroke-width="3"/><line x1="595" y1="844" x2="595" y2="886" stroke="#fff" stroke-opacity="0.07" stroke-width="3"/><line x1="606" y1="844" x2="606" y2="886" stroke="#fff" stroke-opacity="0.07" stroke-width="3"/><line x1="617" y1="844" x2="617" y2="886" stroke="#fff" stroke-opacity="0.07" stroke-width="3"/><line x1="628" y1="844" x2="628" y2="886" stroke="#fff" stroke-opacity="0.07" stroke-width="3"/><line x1="639" y1="844" x2="639" y2="886" stroke="#fff" stroke-opacity="0.07" stroke-width="3"/><rect x="104" y="620" width="162" height="60" fill="#000" opacity="0.5"/><line x1="104" y1="620" x2="104" y2="680" stroke="#fff" stroke-opacity="0.07" stroke-width="3"/><line x1="115" y1="620" x2="115" y2="680" stroke="#fff" stroke-opacity="0.07" stroke-width="3"/><line x1="126" y1="620" x2="126" y2="680" stroke="#fff" stroke-opacity="0.07" stroke-width="3"/><line x1="137" y1="620" x2="137" y2="680" stroke="#fff" stroke-opacity="0.07" stroke-width="3"/><line x1="148" y1="620" x2="148" y2="680" stroke="#fff" stroke-opacity="0.07" stroke-width="3"/><line x1="159" y1="620" x2="159" y2="680" stroke="#fff" stroke-opacity="0.07" stroke-width="3"/><line x1="170" y1="620" x2="170" y2="680" stroke="#fff" stroke-opacity="0.07" stroke-width="3"/><line x1="181" y1="620" x2="181" y2="680" stroke="#fff" stroke-opacity="0.07" stroke-width="3"/><line x1="192" y1="620" x2="192" y2="680" stroke="#fff" stroke-opacity="0.07" stroke-width="3"/><line x1="203" y1="620" x2="203" y2="680" stroke="#fff" stroke-opacity="0.07" stroke-width="3"/><line x1="214" y1="620" x2="214" y2="680" stroke="#fff" stroke-opacity="0.07" stroke-width="3"/><line x1="225" y1="620" x2="225" y2="680" stroke="#fff" stroke-opacity="0.07" stroke-width="3"/><line x1="236" y1="620" x2="236" y2="680" stroke="#fff" stroke-opacity="0.07" stroke-width="3"/><line x1="247" y1="620" x2="247" y2="680" stroke="#fff" stroke-opacity="0.07" stroke-width="3"/><line x1="258" y1="620" x2="258" y2="680" stroke="#fff" stroke-opacity="0.07" stroke-width="3"/><rect x="722" y="620" width="162" height="60" fill="#000" opacity="0.5"/><line x1="722" y1="620" x2="722" y2="680" stroke="#fff" stroke-opacity="0.07" stroke-width="3"/><line x1="733" y1="620" x2="733" y2="680" stroke="#fff" stroke-opacity="0.07" stroke-width="3"/><line x1="744" y1="620" x2="744" y2="680" stroke="#fff" stroke-opacity="0.07" stroke-width="3"/><line x1="755" y1="620" x2="755" y2="680" stroke="#fff" stroke-opacity="0.07" stroke-width="3"/><line x1="766" y1="620" x2="766" y2="680" stroke="#fff" stroke-opacity="0.07" stroke-width="3"/><line x1="777" y1="620" x2="777" y2="680" stroke="#fff" stroke-opacity="0.07" stroke-width="3"/><line x1="788" y1="620" x2="788" y2="680" stroke="#fff" stroke-opacity="0.07" stroke-width="3"/><line x1="799" y1="620" x2="799" y2="680" stroke="#fff" stroke-opacity="0.07" stroke-width="3"/><line x1="810" y1="620" x2="810" y2="680" stroke="#fff" stroke-opacity="0.07" stroke-width="3"/><line x1="821" y1="620" x2="821" y2="680" stroke="#fff" stroke-opacity="0.07" stroke-width="3"/><line x1="832" y1="620" x2="832" y2="680" stroke="#fff" stroke-opacity="0.07" stroke-width="3"/><line x1="843" y1="620" x2="843" y2="680" stroke="#fff" stroke-opacity="0.07" stroke-width="3"/><line x1="854" y1="620" x2="854" y2="680" stroke="#fff" stroke-opacity="0.07" stroke-width="3"/><line x1="865" y1="620" x2="865" y2="680" stroke="#fff" stroke-opacity="0.07" stroke-width="3"/><line x1="876" y1="620" x2="876" y2="680" stroke="#fff" stroke-opacity="0.07" stroke-width="3"/><path d="M507.6,320.5 C500.3,590.2 542.8,687.1 495.6,862.8" fill="none" stroke="#000" stroke-opacity="0.34" stroke-width="8" filter="url(#flou)"/><path d="M350,333.8 C354.1,503.6 321.3,677.4 291.9,849.4" fill="none" stroke="#000" stroke-opacity="0.34" stroke-width="10.6" filter="url(#flou)"/><path d="M409.4,306.5 C428.3,588.8 385.7,680.1 399.7,821.6" fill="none" stroke="#000" stroke-opacity="0.34" stroke-width="11.3" filter="url(#flou)"/><path d="M426.7,307.7 C432.2,531.5 457.3,639.7 370.6,859.1" fill="none" stroke="#000" stroke-opacity="0.34" stroke-width="10" filter="url(#flou)"/><path d="M290.3,356.4 C359.3,521.8 345.2,674.8 230.8,872.3" fill="none" stroke="#000" stroke-opacity="0.34" stroke-width="16.3" filter="url(#flou)"/><path d="M605.7,397.2 C549.4,500.1 617.6,628.5 624.5,866.7" fill="none" stroke="#000" stroke-opacity="0.34" stroke-width="14.3" filter="url(#flou)"/><path d="M611.4,341.5 C629.5,568.3 589,684.1 571.4,802.7" fill="none" stroke="#000" stroke-opacity="0.34" stroke-width="14" filter="url(#flou)"/>
  <path d="M352,214 C380,268 414,292 450,292 C486,292 520,268 548,214" fill="none" stroke="#000" stroke-opacity="0.75" stroke-width="26"/><path d="M404,272 C400,360 398,430 402,470" fill="none" stroke="#e8e8e8" stroke-width="7" stroke-linecap="round" opacity="0.9"/><path d="M496,272 C500,360 502,430 498,470" fill="none" stroke="#e8e8e8" stroke-width="7" stroke-linecap="round" opacity="0.9"/><circle cx="402" cy="474" r="7" fill="#d8d8d8"/><circle cx="498" cy="474" r="7" fill="#d8d8d8"/><path d="M318,606 L582,606 L566,772 L334,772 Z" fill="#000" opacity="0.45"/><path d="M318,606 L582,606 L566,772 L334,772 Z" fill="none" stroke="#000" stroke-opacity="0.8" stroke-width="5"/>
  <ellipse cx="450" cy="348.8" rx="144.9" ry="39.7" fill="#000" opacity="0.55" filter="url(#flou)"/><g transform="translate(349.4,320) scale(0.16)" color="#ffffff"><polygon points="67.6,42 53.5,67.8 41.1,94.4 70.2,116.1 60.5,144 79.1,163 77.7,185.7 76.5,212.7 58.6,241.4 83.5,258.7 117.1,257.3 115,230.9 106.4,208.1 122.5,186.8 126.9,158.3 99.6,135.2 93.5,112.5 103.5,87.7 86.8,65.6 86,42" fill="currentColor"/><polygon points="90.8,269.6 104.7,301.4 115.2,271.8 108.3,313.8 139.6,279.6 152.1,276.4 162.6,275.5 166,272.3 175.6,280.9 195.1,278.3 186.9,245.7 184.9,248.6 182.6,212.7 156.8,242.4 146.1,243.3 134.4,209.6 133.8,245.7 120.7,238.6 108.1,241.2 103.1,238.4" fill="currentColor"/><polygon points="203.8,262.7 224,239.9 243.8,211 223.7,187.3 218.7,160.2 213.4,134 219.2,110.9 220,85.1 223.2,60.1 223,34.2 206.2,33.8 196.3,57.5 199.6,82.7 197.1,107.1 189.1,132.8 192.6,158.1 172,179.7 150.7,206.5 160.1,226.1 171.6,253.3" fill="currentColor"/><polygon points="88.4,92.3 92.2,76.9 79,66.1 72.7,55.4 83.1,43.2 70.7,28.5 61.6,16.8 56.7,5.5 55.6,-7.8 50.9,-20.3 49,-19.7 52,-7.2 51.5,6.5 55.4,20 62.5,31.1 61.3,43.5 61.2,58.3 66.6,71.5 55.5,87.6 71.9,95.7" fill="currentColor"/><polygon points="280.7,296.6 324.6,267.2 280.5,237.7 319.5,211.4 292.3,183.5 312.4,156.9 302.2,120.9 284,95.1 288.4,67.6 289.3,38.5 272.5,37.5 269.8,65.3 263.5,94.2 265.6,124.6 238.9,146.4 255.7,178.2 235.1,206.8 250.6,236.2 252.7,265.3 247.5,291.4" fill="currentColor"/><polygon points="267.8,98.6 272.6,125 294.7,140.8 308,161.9 291.3,200.2 332,208.3 341.8,232.4 357.9,257.3 378.4,273.2 384.9,294.5 412,285.5 401.7,256.6 379,238.1 367.2,219.3 357.2,194.9 342.8,173.6 333.6,149.2 319.5,126.5 306.9,103.1 290.6,81.4" fill="currentColor"/><polygon points="411.2,302.7 459.4,278 452.5,242.5 450.9,216.7 437.1,186.6 444.7,157.2 415.8,130.3 416.7,102.9 439.5,76.8 420.3,46.5 403.5,45.5 401.1,73.1 396.3,100.8 393.4,129.4 392.1,158.2 392.6,186 359.3,211.8 387.8,242.2 387.5,268.3 379,293.3" fill="currentColor"/><polygon points="413.5,91.2 428.3,86.7 435.6,77 422.8,56.5 423.5,44.7 433.7,37.5 439,24.4 433.7,9.9 439.9,-0.9 439.8,-13.9 437.8,-14.1 436.4,-2 423.3,6.4 427,20.5 419.9,30.1 409.3,40.6 411.1,54.5 408.4,64.7 399.9,74.9 396.9,88.8" fill="currentColor"/><polygon points="607,101 592.7,93.6 579,94.2 567,89.8 553.1,90.7 552.5,67.5 531.1,81.2 511.3,55.7 506.8,82.8 497.6,78.3 485.8,109.7 500.4,114.2 517.8,114.2 525.4,124.3 526.7,144 553.2,116.8 563.4,133.8 576.2,127.1 585.8,132.9 598.1,119" fill="currentColor"/><polygon points="471.5,96.9 459.8,94.8 453.9,102.9 466,125.7 470.8,125.4 432.3,119 425.7,167.7 464.1,160.8 449,156.8 458.1,171.1 485,184.9 525.6,192.6 523.5,160.3 514.3,137 515.5,162.9 498.9,141.1 498.1,120.7 497.1,119.6 504.4,111.4 505.1,95.1" fill="currentColor"/><polygon points="474.3,188.9 463.9,218.2 489.6,199.4 514.8,219.3 518.7,196.4 529.5,209.3 546.8,208.9 554.6,214.8 569,243.1 591.3,221 586.9,191 576.9,193.2 569.8,188.7 553.7,179.4 548.6,167.6 541,150.3 505.5,132 511,156.7 492.8,157.6 468.8,159.1" fill="currentColor"/><polygon points="574.9,207.1 578.6,217.4 582.3,216.6 547.6,232.3 584.2,234.7 579.1,234.2 575,257.6 587.4,268.1 561.4,263.6 583.2,268.8 615.2,279.2 654.6,267.9 612.5,247 604.5,244.1 619.2,257.4 615.8,231.5 606.9,224 613.2,217.6 605.2,202.2 603.4,196.9" fill="currentColor"/><polygon points="591.1,259.3 589.6,238.1 572.3,241.4 536.2,249 536.2,275.6 522.6,257.9 503.5,258.2 495.9,269.1 481.1,280.4 465,280.8 464.6,299.2 478.8,300.4 495.3,304.4 512.8,302.4 526.1,299.9 544.5,301.2 574.9,311 564.3,303.6 583.3,297.7 607.3,288.7" fill="currentColor"/><polygon points="607,109.1 610.8,97.3 625.2,93.8 621.1,76.3 625.8,64.8 627.9,53.6 634.9,42.9 635.8,29.7 637.9,17.6 640.3,6.6 638.7,5.4 630.8,15.6 630.6,28.9 620.9,37.2 620.5,49.4 611.9,59.6 603.2,68.3 601,79.9 596.5,92.5 591.4,102.9" fill="currentColor"/><polygon points="658.8,70 658.2,97.1 664.9,122 663.7,146.5 646.7,174.1 635.9,200.4 668.6,222.7 668.5,247.8 643.7,274.1 668.9,298.3 702.5,297.7 701.2,272 731.9,245.3 716.9,219.6 694.4,195.3 691.7,170 688.3,145.3 687.8,118.8 705.3,90.1 679,70" fill="currentColor"/><polygon points="675.9,110.4 691.6,137.3 701.8,105.6 720,136.1 727.8,100.6 741.6,128 762.5,99.8 775,89.5 786.3,88.4 800.5,86.4 799.3,69.6 784.2,56.2 763.6,59.4 750,70.6 744.8,79.5 730.4,74.6 713.3,74.8 699.5,75.9 684.4,75.1 668.6,77.6" fill="currentColor"/><polygon points="681.2,198.1 681.7,220.2 690.6,229.8 710.6,214.3 718,197.7 722.5,222 734.9,199 738.7,212.2 754.7,205.2 768.2,202.2 764.4,185.8 757.7,187.4 755.4,169.2 739.9,178.9 729.5,175.1 718.1,174.4 707.2,173.6 704.3,154.1 698,135.8 676.7,169.9" fill="currentColor"/><polygon points="674,297.5 693.1,308.8 709,304.8 722.6,344.9 736.7,303.7 751.3,337.5 766.5,301.8 771.2,326.5 792.9,308.1 804.7,310.2 808.6,293.8 793.4,289.4 789.7,266 766.7,269.2 750.9,260.8 740.7,277.8 724.9,259.5 712.9,275.2 700,277.8 694,270.5" fill="currentColor"/><polygon points="852.9,71.1 854.8,96 854.7,122.3 832.6,147.6 855.6,170.7 856.3,197.7 836.7,228.9 864.6,249.6 846.1,272.5 862.9,297.7 896.5,298.3 896.3,272.5 894.8,244.5 886.1,219.4 903.7,194.7 908.7,173.6 897.3,144.5 877.6,119.1 876.4,94.6 872.9,68.9" fill="currentColor"/><polygon points="863.2,110.5 895.2,149.5 916.2,132.7 909.7,97.7 922.8,96.4 937.2,95.4 953.1,119.6 966.7,92 981,89 995,86.3 992.9,69.7 978.5,70.5 963,58 950.7,71.6 936.7,71.1 922.3,70.3 905,55.6 887.7,73 876.9,81.4 869.3,77.5" fill="currentColor"/><polygon points="875.1,198.1 882.7,196.1 892.8,197.3 903.9,194.3 906.5,192.3 917.1,203.3 936.8,208.7 930.4,211.4 941.3,222.3 963.5,201.8 957.1,186.2 957.5,177.4 945.5,178.4 923.4,161.9 925.1,182.8 918.4,172.3 901.4,169.8 892.3,171.3 883.2,168.8 870.8,169.9" fill="currentColor"/><polygon points="871.7,299.6 886,304.4 901.1,307.6 916.9,309.7 939.9,321.1 945.4,298.8 954.5,309.6 975.2,309 986.9,303.2 996.1,309.1 1005.2,294.9 989,284.6 969,276.7 964,289.3 950.9,262.2 928.2,282.8 919.2,281.8 907.9,278.5 896.2,274.3 884.3,268.4" fill="currentColor"/><polygon points="1056.9,294.7 1091,269.6 1059.7,236.6 1053.2,209.3 1061.7,183.4 1078.6,154 1064.5,124.2 1077.8,98.2 1086.8,66.9 1065.2,36.6 1048.6,39.4 1033.5,66.9 1046.7,93.6 1042.1,122.7 1040.9,151.1 1036.3,177.2 1025.2,207.2 999.9,238.8 1025.5,264.2 1023.3,293.3" fill="currentColor"/><polygon points="1043.9,98.7 1058.5,117.3 1066.9,142.8 1083.7,162.6 1091.4,188.4 1109.4,208.8 1120,233.2 1139.2,252.2 1149.4,273.8 1161.9,296.8 1187,283.2 1174.8,260.7 1191.5,214.6 1143.5,217 1133.5,193.4 1116.3,174.6 1138.3,133.4 1091.9,128.9 1083.8,103.9 1066.5,81.3" fill="currentColor"/><polygon points="1187.9,297 1218.9,278 1195.4,242.7 1184.5,214.5 1197.1,187.6 1187.9,155.9 1213,134.6 1193.4,103.8 1195.1,74.7 1196.3,46.6 1179.5,45.4 1176.5,73.2 1173.3,100.1 1164.4,128.1 1163.9,159.5 1171.1,185.1 1156.6,212.7 1165.5,242.1 1121.2,261.7 1154.3,299" fill="currentColor"/><polygon points="1189.3,92.3 1199.2,85 1202.6,73 1214.4,60.7 1201.7,45.6 1206.4,34.7 1209.4,22 1208.7,9.5 1214.9,-1.1 1215.8,-13.9 1213.8,-14.1 1211.5,-2.4 1199.3,6.6 1195.4,19.8 1198.5,31.5 1192,42.4 1182.1,53.1 1185.1,64.9 1177.7,75.2 1173.1,87.7" fill="currentColor"/></g>
  <rect width="900" height="1000" fill="url(#bordsmhoodieface881)"/>
  <rect width="900" height="1000" fill="url(#hautmhoodieface881)"/>
</g>
</svg>