<svg xmlns="http://www.w3.org/2000/svg" viewBox="0 0 900 1000" width="900" height="1000" role="img">
<defs>
<radialGradient id="degPetaleVif" cx="50%" cy="92%" r="88%">
  <stop offset="0" stop-color="#ffe3ef"/><stop offset="0.35" stop-color="#ff77b4"/>
  <stop offset="1" stop-color="#d70f61"/>
</radialGradient>
<radialGradient id="degPetaleDoux" cx="50%" cy="92%" r="88%">
  <stop offset="0" stop-color="#fffafc"/><stop offset="0.45" stop-color="#ffc0da"/>
  <stop offset="1" stop-color="#ff6aa9"/>
</radialGradient>
<radialGradient id="degPetaleProfond" cx="50%" cy="92%" r="88%">
  <stop offset="0" stop-color="#ffc7de"/><stop offset="0.3" stop-color="#f43a86"/>
  <stop offset="1" stop-color="#a80b48"/>
</radialGradient>
<filter id="lueur" x="-30%" y="-30%" width="160%" height="160%">
  <feGaussianBlur stdDeviation="7"/>
</filter>
<filter id="flou" x="-30%" y="-30%" width="160%" height="160%">
  <feGaussianBlur stdDeviation="9"/>
</filter>

<linearGradient id="bordsmteedos204" x1="0" y1="0" x2="1" y2="0">
  <stop offset="0" stop-color="#000" stop-opacity="0.6"/>
  <stop offset="0.16" stop-color="#000" stop-opacity="0"/>
  <stop offset="0.84" stop-color="#000" stop-opacity="0"/>
  <stop offset="1" stop-color="#000" stop-opacity="0.6"/>
</linearGradient>
<linearGradient id="hautmteedos204" x1="0" y1="0" x2="0" y2="1">
  <stop offset="0" stop-color="#fff" stop-opacity="0.09"/>
  <stop offset="0.45" stop-color="#fff" stop-opacity="0"/>
  <stop offset="1" stop-color="#000" stop-opacity="0.35"/>
</linearGradient>
<g id="mteedos204f0"><path d="M0,0 C-45.6,-19 -54.7,-60.8 -24.3,-87.4 C-16,-95 -8.4,-94 0,-76 C8.4,-94 16,-95 24.3,-87.4 C54.7,-60.8 45.6,-19 0,0 Z" transform="rotate(9.3)" fill="url(#degPetaleVif)"/><path d="M0,0 C-43.3,-18 -52,-57.7 -23.1,-83 C-15.2,-90.2 -7.9,-89.3 0,-72.2 C7.9,-89.3 15.2,-90.2 23.1,-83 C52,-57.7 43.3,-18 0,0 Z" transform="rotate(82.7)" fill="url(#degPetaleVif)"/><path d="M0,0 C-49.8,-20.8 -59.8,-66.4 -26.6,-95.5 C-17.4,-103.8 -9.1,-102.7 0,-83 C9.1,-102.7 17.4,-103.8 26.6,-95.5 C59.8,-66.4 49.8,-20.8 0,0 Z" transform="rotate(151.9)" fill="url(#degPetaleVif)"/><path d="M0,0 C-47.8,-19.9 -57.4,-63.7 -25.5,-91.6 C-16.7,-99.6 -8.8,-98.6 0,-79.7 C8.8,-98.6 16.7,-99.6 25.5,-91.6 C57.4,-63.7 47.8,-19.9 0,0 Z" transform="rotate(225.7)" fill="url(#degPetaleVif)"/><path d="M0,0 C-43.2,-18 -51.9,-57.7 -23.1,-82.9 C-15.1,-90.1 -7.9,-89.2 0,-72.1 C7.9,-89.2 15.1,-90.1 23.1,-82.9 C51.9,-57.7 43.2,-18 0,0 Z" transform="rotate(296.5)" fill="url(#degPetaleVif)"/><circle r="13" fill="#fff2f7" opacity=".92"/><line x2="19.4" y2="0.8" stroke="#fff7fa" stroke-width="4.5" stroke-linecap="round" opacity=".8"/><line x2="9.8" y2="26.6" stroke="#fff7fa" stroke-width="4.5" stroke-linecap="round" opacity=".8"/><line x2="-17.7" y2="18.4" stroke="#fff7fa" stroke-width="4.5" stroke-linecap="round" opacity=".8"/><line x2="-22.7" y2="-0.4" stroke="#fff7fa" stroke-width="4.5" stroke-linecap="round" opacity=".8"/><line x2="-6.7" y2="-20" stroke="#fff7fa" stroke-width="4.5" stroke-linecap="round" opacity=".8"/><line x2="13.3" y2="-12.8" stroke="#fff7fa" stroke-width="4.5" stroke-linecap="round" opacity=".8"/></g><g id="mteedos204f1"><path d="M0,0 C-47.3,-19.7 -56.8,-63.1 -25.3,-90.7 C-16.6,-98.6 -8.7,-97.6 0,-78.9 C8.7,-97.6 16.6,-98.6 25.3,-90.7 C56.8,-63.1 47.3,-19.7 0,0 Z" transform="rotate(22)" fill="url(#degPetaleDoux)"/><path d="M0,0 C-52.8,-22 -63.3,-70.4 -28.2,-101.2 C-18.5,-110 -9.7,-108.9 0,-88 C9.7,-108.9 18.5,-110 28.2,-101.2 C63.3,-70.4 52.8,-22 0,0 Z" transform="rotate(98)" fill="url(#degPetaleDoux)"/><path d="M0,0 C-44,-18.3 -52.8,-58.6 -23.4,-84.3 C-15.4,-91.6 -8.1,-90.7 0,-73.3 C8.1,-90.7 15.4,-91.6 23.4,-84.3 C52.8,-58.6 44,-18.3 0,0 Z" transform="rotate(163.5)" fill="url(#degPetaleDoux)"/><path d="M0,0 C-43.1,-17.9 -51.7,-57.4 -23,-82.5 C-15.1,-89.7 -7.9,-88.8 0,-71.8 C7.9,-88.8 15.1,-89.7 23,-82.5 C51.7,-57.4 43.1,-17.9 0,0 Z" transform="rotate(239.5)" fill="url(#degPetaleDoux)"/><path d="M0,0 C-47.6,-19.8 -57.1,-63.5 -25.4,-91.3 C-16.7,-99.2 -8.7,-98.2 0,-79.4 C8.7,-98.2 16.7,-99.2 25.4,-91.3 C57.1,-63.5 47.6,-19.8 0,0 Z" transform="rotate(305.2)" fill="url(#degPetaleDoux)"/><circle r="13" fill="#fff2f7" opacity=".92"/><line x2="22.3" y2="14.7" stroke="#fff7fa" stroke-width="4.5" stroke-linecap="round" opacity=".8"/><line x2="-0.6" y2="18.4" stroke="#fff7fa" stroke-width="4.5" stroke-linecap="round" opacity=".8"/><line x2="-19.7" y2="15.4" stroke="#fff7fa" stroke-width="4.5" stroke-linecap="round" opacity=".8"/><line x2="-23.2" y2="-8.6" stroke="#fff7fa" stroke-width="4.5" stroke-linecap="round" opacity=".8"/><line x2="-2" y2="-29.1" stroke="#fff7fa" stroke-width="4.5" stroke-linecap="round" opacity=".8"/><line x2="17.4" y2="-12.9" stroke="#fff7fa" stroke-width="4.5" stroke-linecap="round" opacity=".8"/></g><g id="mteedos204f2"><path d="M0,0 C-42.5,-17.7 -51,-56.6 -22.7,-81.4 C-14.9,-88.5 -7.8,-87.6 0,-70.8 C7.8,-87.6 14.9,-88.5 22.7,-81.4 C51,-56.6 42.5,-17.7 0,0 Z" transform="rotate(49.9)" fill="url(#degPetaleDoux)"/><path d="M0,0 C-49.1,-20.4 -58.9,-65.4 -26.2,-94 C-17.2,-102.2 -9,-101.2 0,-81.8 C9,-101.2 17.2,-102.2 26.2,-94 C58.9,-65.4 49.1,-20.4 0,0 Z" transform="rotate(128.9)" fill="url(#degPetaleDoux)"/><path d="M0,0 C-44.9,-18.7 -53.8,-59.8 -23.9,-86 C-15.7,-93.4 -8.2,-92.5 0,-74.8 C8.2,-92.5 15.7,-93.4 23.9,-86 C53.8,-59.8 44.9,-18.7 0,0 Z" transform="rotate(200.9)" fill="url(#degPetaleDoux)"/><path d="M0,0 C-48.4,-20.2 -58.1,-64.5 -25.8,-92.7 C-16.9,-100.8 -8.9,-99.8 0,-80.6 C8.9,-99.8 16.9,-100.8 25.8,-92.7 C58.1,-64.5 48.4,-20.2 0,0 Z" transform="rotate(272.2)" fill="url(#degPetaleDoux)"/><path d="M0,0 C-47.9,-20 -57.5,-63.9 -25.6,-91.8 C-16.8,-99.8 -8.8,-98.8 0,-79.9 C8.8,-98.8 16.8,-99.8 25.6,-91.8 C57.5,-63.9 47.9,-20 0,0 Z" transform="rotate(334.9)" fill="url(#degPetaleDoux)"/><circle r="13" fill="#fff2f7" opacity=".92"/><line x2="11.4" y2="15.1" stroke="#fff7fa" stroke-width="4.5" stroke-linecap="round" opacity=".8"/><line x2="-10" y2="20.4" stroke="#fff7fa" stroke-width="4.5" stroke-linecap="round" opacity=".8"/><line x2="-28" y2="0.3" stroke="#fff7fa" stroke-width="4.5" stroke-linecap="round" opacity=".8"/><line x2="-13.5" y2="-22.6" stroke="#fff7fa" stroke-width="4.5" stroke-linecap="round" opacity=".8"/><line x2="8" y2="-28.4" stroke="#fff7fa" stroke-width="4.5" stroke-linecap="round" opacity=".8"/><line x2="25.7" y2="-6.1" stroke="#fff7fa" stroke-width="4.5" stroke-linecap="round" opacity=".8"/></g><g id="mteedos204f3"><path d="M0,0 C-51.8,-21.6 -62.2,-69.1 -27.6,-99.3 C-18.1,-108 -9.5,-106.9 0,-86.4 C9.5,-106.9 18.1,-108 27.6,-99.3 C62.2,-69.1 51.8,-21.6 0,0 Z" transform="rotate(30)" fill="url(#degPetaleProfond)"/><path d="M0,0 C-42.7,-17.8 -51.3,-57 -22.8,-81.9 C-15,-89 -7.8,-88.2 0,-71.2 C7.8,-88.2 15,-89 22.8,-81.9 C51.3,-57 42.7,-17.8 0,0 Z" transform="rotate(108.1)" fill="url(#degPetaleProfond)"/><path d="M0,0 C-41.9,-17.5 -50.3,-55.9 -22.4,-80.3 C-14.7,-87.3 -7.7,-86.5 0,-69.9 C7.7,-86.5 14.7,-87.3 22.4,-80.3 C50.3,-55.9 41.9,-17.5 0,0 Z" transform="rotate(171.2)" fill="url(#degPetaleProfond)"/><path d="M0,0 C-45.7,-19 -54.8,-60.9 -24.3,-87.5 C-16,-95.1 -8.4,-94.2 0,-76.1 C8.4,-94.2 16,-95.1 24.3,-87.5 C54.8,-60.9 45.7,-19 0,0 Z" transform="rotate(250.3)" fill="url(#degPetaleProfond)"/><path d="M0,0 C-48.1,-20 -57.7,-64.1 -25.6,-92.1 C-16.8,-100.1 -8.8,-99.1 0,-80.1 C8.8,-99.1 16.8,-100.1 25.6,-92.1 C57.7,-64.1 48.1,-20 0,0 Z" transform="rotate(318.2)" fill="url(#degPetaleProfond)"/><circle r="13" fill="#fff2f7" opacity=".92"/><line x2="18.6" y2="15.8" stroke="#fff7fa" stroke-width="4.5" stroke-linecap="round" opacity=".8"/><line x2="-0.7" y2="18" stroke="#fff7fa" stroke-width="4.5" stroke-linecap="round" opacity=".8"/><line x2="-25.2" y2="9.7" stroke="#fff7fa" stroke-width="4.5" stroke-linecap="round" opacity=".8"/><line x2="-23.8" y2="-14" stroke="#fff7fa" stroke-width="4.5" stroke-linecap="round" opacity=".8"/><line x2="2.3" y2="-29.4" stroke="#fff7fa" stroke-width="4.5" stroke-linecap="round" opacity=".8"/><line x2="27.1" y2="-9.8" stroke="#fff7fa" stroke-width="4.5" stroke-linecap="round" opacity=".8"/></g><g id="mteedos204f4"><path d="M0,0 C-43.6,-18.2 -52.3,-58.1 -23.2,-83.5 C-15.3,-90.8 -8,-89.9 0,-72.7 C8,-89.9 15.3,-90.8 23.2,-83.5 C52.3,-58.1 43.6,-18.2 0,0 Z" transform="rotate(17.1)" fill="url(#degPetaleVif)"/><path d="M0,0 C-52.7,-22 -63.3,-70.3 -28.1,-101.1 C-18.5,-109.9 -9.7,-108.8 0,-87.9 C9.7,-108.8 18.5,-109.9 28.1,-101.1 C63.3,-70.3 52.7,-22 0,0 Z" transform="rotate(94.4)" fill="url(#degPetaleVif)"/><path d="M0,0 C-46.2,-19.2 -55.4,-61.5 -24.6,-88.5 C-16.2,-96.1 -8.5,-95.2 0,-76.9 C8.5,-95.2 16.2,-96.1 24.6,-88.5 C55.4,-61.5 46.2,-19.2 0,0 Z" transform="rotate(167.8)" fill="url(#degPetaleVif)"/><path d="M0,0 C-46.6,-19.4 -56,-62.2 -24.9,-89.4 C-16.3,-97.1 -8.5,-96.2 0,-77.7 C8.5,-96.2 16.3,-97.1 24.9,-89.4 C56,-62.2 46.6,-19.4 0,0 Z" transform="rotate(231.7)" fill="url(#degPetaleVif)"/><path d="M0,0 C-51.6,-21.5 -61.9,-68.8 -27.5,-98.9 C-18.1,-107.4 -9.5,-106.4 0,-86 C9.5,-106.4 18.1,-107.4 27.5,-98.9 C61.9,-68.8 51.6,-21.5 0,0 Z" transform="rotate(304.6)" fill="url(#degPetaleVif)"/><circle r="13" fill="#fff2f7" opacity=".92"/><line x2="19.4" y2="5.4" stroke="#fff7fa" stroke-width="4.5" stroke-linecap="round" opacity=".8"/><line x2="4.3" y2="22.1" stroke="#fff7fa" stroke-width="4.5" stroke-linecap="round" opacity=".8"/><line x2="-21.7" y2="20.6" stroke="#fff7fa" stroke-width="4.5" stroke-linecap="round" opacity=".8"/><line x2="-27.6" y2="-8.9" stroke="#fff7fa" stroke-width="4.5" stroke-linecap="round" opacity=".8"/><line x2="-2.7" y2="-21.8" stroke="#fff7fa" stroke-width="4.5" stroke-linecap="round" opacity=".8"/><line x2="25.1" y2="-13.6" stroke="#fff7fa" stroke-width="4.5" stroke-linecap="round" opacity=".8"/></g><g id="mteedos204f5"><path d="M0,0 C-48.3,-20.1 -57.9,-64.4 -25.8,-92.5 C-16.9,-100.6 -8.9,-99.6 0,-80.5 C8.9,-99.6 16.9,-100.6 25.8,-92.5 C57.9,-64.4 48.3,-20.1 0,0 Z" transform="rotate(29.7)" fill="url(#degPetaleVif)"/><path d="M0,0 C-51,-21.2 -61.2,-68 -27.2,-97.7 C-17.8,-106.2 -9.3,-105.2 0,-85 C9.3,-105.2 17.8,-106.2 27.2,-97.7 C61.2,-68 51,-21.2 0,0 Z" transform="rotate(98.6)" fill="url(#degPetaleVif)"/><path d="M0,0 C-42.3,-17.6 -50.7,-56.4 -22.6,-81.1 C-14.8,-88.1 -7.8,-87.2 0,-70.5 C7.8,-87.2 14.8,-88.1 22.6,-81.1 C50.7,-56.4 42.3,-17.6 0,0 Z" transform="rotate(166.4)" fill="url(#degPetaleVif)"/><path d="M0,0 C-41.6,-17.3 -49.9,-55.4 -22.2,-79.7 C-14.6,-86.6 -7.6,-85.8 0,-69.3 C7.6,-85.8 14.6,-86.6 22.2,-79.7 C49.9,-55.4 41.6,-17.3 0,0 Z" transform="rotate(241.4)" fill="url(#degPetaleVif)"/><path d="M0,0 C-44.6,-18.6 -53.5,-59.5 -23.8,-85.5 C-15.6,-92.9 -8.2,-92 0,-74.3 C8.2,-92 15.6,-92.9 23.8,-85.5 C53.5,-59.5 44.6,-18.6 0,0 Z" transform="rotate(307.4)" fill="url(#degPetaleVif)"/><circle r="13" fill="#fff2f7" opacity=".92"/><line x2="24.2" y2="10.8" stroke="#fff7fa" stroke-width="4.5" stroke-linecap="round" opacity=".8"/><line x2="-1.7" y2="19.6" stroke="#fff7fa" stroke-width="4.5" stroke-linecap="round" opacity=".8"/><line x2="-18.2" y2="16.3" stroke="#fff7fa" stroke-width="4.5" stroke-linecap="round" opacity=".8"/><line x2="-25.6" y2="-9.6" stroke="#fff7fa" stroke-width="4.5" stroke-linecap="round" opacity=".8"/><line x2="-5" y2="-20.9" stroke="#fff7fa" stroke-width="4.5" stroke-linecap="round" opacity=".8"/><line x2="18.9" y2="-16" stroke="#fff7fa" stroke-width="4.5" stroke-linecap="round" opacity=".8"/></g><g id="mteedos204f6"><path d="M0,0 C-44.6,-18.6 -53.6,-59.5 -23.8,-85.5 C-15.6,-93 -8.2,-92.1 0,-74.4 C8.2,-92.1 15.6,-93 23.8,-85.5 C53.6,-59.5 44.6,-18.6 0,0 Z" transform="rotate(40.8)" fill="url(#degPetaleProfond)"/><path d="M0,0 C-43.7,-18.2 -52.4,-58.2 -23.3,-83.7 C-15.3,-91 -8,-90 0,-72.8 C8,-90 15.3,-91 23.3,-83.7 C52.4,-58.2 43.7,-18.2 0,0 Z" transform="rotate(123.6)" fill="url(#degPetaleProfond)"/><path d="M0,0 C-46,-19.2 -55.2,-61.4 -24.6,-88.2 C-16.1,-95.9 -8.4,-95 0,-76.7 C8.4,-95 16.1,-95.9 24.6,-88.2 C55.2,-61.4 46,-19.2 0,0 Z" transform="rotate(194.5)" fill="url(#degPetaleProfond)"/><path d="M0,0 C-45.1,-18.8 -54.1,-60.1 -24,-86.4 C-15.8,-93.9 -8.3,-93 0,-75.1 C8.3,-93 15.8,-93.9 24,-86.4 C54.1,-60.1 45.1,-18.8 0,0 Z" transform="rotate(257)" fill="url(#degPetaleProfond)"/><path d="M0,0 C-51,-21.2 -61.2,-68 -27.2,-97.7 C-17.8,-106.2 -9.3,-105.1 0,-85 C9.3,-105.1 17.8,-106.2 27.2,-97.7 C61.2,-68 51,-21.2 0,0 Z" transform="rotate(340)" fill="url(#degPetaleProfond)"/><circle r="13" fill="#fff2f7" opacity=".92"/><line x2="18.3" y2="23.6" stroke="#fff7fa" stroke-width="4.5" stroke-linecap="round" opacity=".8"/><line x2="-9.1" y2="25.5" stroke="#fff7fa" stroke-width="4.5" stroke-linecap="round" opacity=".8"/><line x2="-27.4" y2="9.2" stroke="#fff7fa" stroke-width="4.5" stroke-linecap="round" opacity=".8"/><line x2="-13.6" y2="-15.9" stroke="#fff7fa" stroke-width="4.5" stroke-linecap="round" opacity=".8"/><line x2="4.4" y2="-27.5" stroke="#fff7fa" stroke-width="4.5" stroke-linecap="round" opacity=".8"/><line x2="24.6" y2="-3" stroke="#fff7fa" stroke-width="4.5" stroke-linecap="round" opacity=".8"/></g><g id="mteedos204f7"><path d="M0,0 C-48.7,-20.3 -58.4,-64.9 -25.9,-93.2 C-17,-101.4 -8.9,-100.3 0,-81.1 C8.9,-100.3 17,-101.4 25.9,-93.2 C58.4,-64.9 48.7,-20.3 0,0 Z" transform="rotate(17.1)" fill="url(#degPetaleDoux)"/><path d="M0,0 C-49.5,-20.6 -59.4,-66 -26.4,-94.9 C-17.3,-103.1 -9.1,-102.1 0,-82.5 C9.1,-102.1 17.3,-103.1 26.4,-94.9 C59.4,-66 49.5,-20.6 0,0 Z" transform="rotate(93.8)" fill="url(#degPetaleDoux)"/><path d="M0,0 C-47.6,-19.8 -57.1,-63.5 -25.4,-91.2 C-16.7,-99.2 -8.7,-98.2 0,-79.3 C8.7,-98.2 16.7,-99.2 25.4,-91.2 C57.1,-63.5 47.6,-19.8 0,0 Z" transform="rotate(158.4)" fill="url(#degPetaleDoux)"/><path d="M0,0 C-51.6,-21.5 -61.9,-68.8 -27.5,-98.9 C-18.1,-107.5 -9.5,-106.5 0,-86 C9.5,-106.5 18.1,-107.5 27.5,-98.9 C61.9,-68.8 51.6,-21.5 0,0 Z" transform="rotate(230.8)" fill="url(#degPetaleDoux)"/><path d="M0,0 C-48.7,-20.3 -58.4,-64.9 -26,-93.3 C-17,-101.5 -8.9,-100.4 0,-81.2 C8.9,-100.4 17,-101.5 26,-93.3 C58.4,-64.9 48.7,-20.3 0,0 Z" transform="rotate(299.2)" fill="url(#degPetaleDoux)"/><circle r="13" fill="#fff2f7" opacity=".92"/><line x2="24.5" y2="5" stroke="#fff7fa" stroke-width="4.5" stroke-linecap="round" opacity=".8"/><line x2="3.9" y2="27.8" stroke="#fff7fa" stroke-width="4.5" stroke-linecap="round" opacity=".8"/><line x2="-21" y2="17.5" stroke="#fff7fa" stroke-width="4.5" stroke-linecap="round" opacity=".8"/><line x2="-21.1" y2="-5.3" stroke="#fff7fa" stroke-width="4.5" stroke-linecap="round" opacity=".8"/><line x2="-2.8" y2="-22" stroke="#fff7fa" stroke-width="4.5" stroke-linecap="round" opacity=".8"/><line x2="12.8" y2="-17.6" stroke="#fff7fa" stroke-width="4.5" stroke-linecap="round" opacity=".8"/></g><g id="mteedos204f8"><path d="M0,0 C-45.2,-18.8 -54.2,-60.2 -24.1,-86.5 C-15.8,-94.1 -8.3,-93.1 0,-75.3 C8.3,-93.1 15.8,-94.1 24.1,-86.5 C54.2,-60.2 45.2,-18.8 0,0 Z" transform="rotate(67.9)" fill="url(#degPetaleDoux)"/><path d="M0,0 C-45,-18.7 -54,-60 -24,-86.2 C-15.7,-93.7 -8.2,-92.8 0,-75 C8.2,-92.8 15.7,-93.7 24,-86.2 C54,-60 45,-18.7 0,0 Z" transform="rotate(142.9)" fill="url(#degPetaleDoux)"/><path d="M0,0 C-45.1,-18.8 -54.1,-60.2 -24.1,-86.5 C-15.8,-94 -8.3,-93.1 0,-75.2 C8.3,-93.1 15.8,-94 24.1,-86.5 C54.1,-60.2 45.1,-18.8 0,0 Z" transform="rotate(216.8)" fill="url(#degPetaleDoux)"/><path d="M0,0 C-45.2,-18.8 -54.3,-60.3 -24.1,-86.7 C-15.8,-94.2 -8.3,-93.3 0,-75.4 C8.3,-93.3 15.8,-94.2 24.1,-86.7 C54.3,-60.3 45.2,-18.8 0,0 Z" transform="rotate(283.1)" fill="url(#degPetaleDoux)"/><path d="M0,0 C-52.6,-21.9 -63.1,-70.1 -28,-100.8 C-18.4,-109.6 -9.6,-108.5 0,-87.6 C9.6,-108.5 18.4,-109.6 28,-100.8 C63.1,-70.1 52.6,-21.9 0,0 Z" transform="rotate(360.4)" fill="url(#degPetaleDoux)"/><circle r="13" fill="#fff2f7" opacity=".92"/><line x2="7.2" y2="24.9" stroke="#fff7fa" stroke-width="4.5" stroke-linecap="round" opacity=".8"/><line x2="-14.5" y2="25.6" stroke="#fff7fa" stroke-width="4.5" stroke-linecap="round" opacity=".8"/><line x2="-27.5" y2="-4.5" stroke="#fff7fa" stroke-width="4.5" stroke-linecap="round" opacity=".8"/><line x2="-6.3" y2="-26.9" stroke="#fff7fa" stroke-width="4.5" stroke-linecap="round" opacity=".8"/><line x2="14.8" y2="-25.1" stroke="#fff7fa" stroke-width="4.5" stroke-linecap="round" opacity=".8"/><line x2="22.8" y2="4.2" stroke="#fff7fa" stroke-width="4.5" stroke-linecap="round" opacity=".8"/></g><g id="mteedos204f9"><path d="M0,0 C-45.5,-19 -54.7,-60.7 -24.3,-87.3 C-15.9,-94.9 -8.4,-93.9 0,-75.9 C8.4,-93.9 15.9,-94.9 24.3,-87.3 C54.7,-60.7 45.5,-19 0,0 Z" transform="rotate(24.3)" fill="url(#degPetaleVif)"/><path d="M0,0 C-45.6,-19 -54.8,-60.8 -24.3,-87.5 C-16,-95.1 -8.4,-94.1 0,-76.1 C8.4,-94.1 16,-95.1 24.3,-87.5 C54.8,-60.8 45.6,-19 0,0 Z" transform="rotate(97.7)" fill="url(#degPetaleVif)"/><path d="M0,0 C-43.1,-18 -51.7,-57.4 -23,-82.6 C-15.1,-89.8 -7.9,-88.9 0,-71.8 C7.9,-88.9 15.1,-89.8 23,-82.6 C51.7,-57.4 43.1,-18 0,0 Z" transform="rotate(177.9)" fill="url(#degPetaleVif)"/><path d="M0,0 C-42.6,-17.7 -51.1,-56.7 -22.7,-81.6 C-14.9,-88.7 -7.8,-87.8 0,-70.9 C7.8,-87.8 14.9,-88.7 22.7,-81.6 C51.1,-56.7 42.6,-17.7 0,0 Z" transform="rotate(246.3)" fill="url(#degPetaleVif)"/><path d="M0,0 C-42.1,-17.5 -50.5,-56.1 -22.4,-80.6 C-14.7,-87.6 -7.7,-86.8 0,-70.1 C7.7,-86.8 14.7,-87.6 22.4,-80.6 C50.5,-56.1 42.1,-17.5 0,0 Z" transform="rotate(316.5)" fill="url(#degPetaleVif)"/><circle r="13" fill="#fff2f7" opacity=".92"/><line x2="19.1" y2="13.2" stroke="#fff7fa" stroke-width="4.5" stroke-linecap="round" opacity=".8"/><line x2="1.6" y2="18.5" stroke="#fff7fa" stroke-width="4.5" stroke-linecap="round" opacity=".8"/><line x2="-17.5" y2="13.7" stroke="#fff7fa" stroke-width="4.5" stroke-linecap="round" opacity=".8"/><line x2="-16.7" y2="-14.2" stroke="#fff7fa" stroke-width="4.5" stroke-linecap="round" opacity=".8"/><line x2="2" y2="-26.9" stroke="#fff7fa" stroke-width="4.5" stroke-linecap="round" opacity=".8"/><line x2="22.6" y2="-18.4" stroke="#fff7fa" stroke-width="4.5" stroke-linecap="round" opacity=".8"/></g><g id="mteedos204f10"><path d="M0,0 C-45.4,-18.9 -54.5,-60.5 -24.2,-87 C-15.9,-94.6 -8.3,-93.6 0,-75.7 C8.3,-93.6 15.9,-94.6 24.2,-87 C54.5,-60.5 45.4,-18.9 0,0 Z" transform="rotate(15.5)" fill="url(#degPetaleProfond)"/><path d="M0,0 C-45.9,-19.1 -55.1,-61.2 -24.5,-88 C-16.1,-95.6 -8.4,-94.7 0,-76.5 C8.4,-94.7 16.1,-95.6 24.5,-88 C55.1,-61.2 45.9,-19.1 0,0 Z" transform="rotate(95.9)" fill="url(#degPetaleProfond)"/><path d="M0,0 C-50.6,-21.1 -60.8,-67.5 -27,-97.1 C-17.7,-105.5 -9.3,-104.4 0,-84.4 C9.3,-104.4 17.7,-105.5 27,-97.1 C60.8,-67.5 50.6,-21.1 0,0 Z" transform="rotate(169.7)" fill="url(#degPetaleProfond)"/><path d="M0,0 C-45.5,-19 -54.6,-60.6 -24.3,-87.2 C-15.9,-94.8 -8.3,-93.8 0,-75.8 C8.3,-93.8 15.9,-94.8 24.3,-87.2 C54.6,-60.6 45.5,-19 0,0 Z" transform="rotate(233.4)" fill="url(#degPetaleProfond)"/><path d="M0,0 C-46.4,-19.3 -55.6,-61.8 -24.7,-88.9 C-16.2,-96.6 -8.5,-95.6 0,-77.3 C8.5,-95.6 16.2,-96.6 24.7,-88.9 C55.6,-61.8 46.4,-19.3 0,0 Z" transform="rotate(306.2)" fill="url(#degPetaleProfond)"/><circle r="13" fill="#fff2f7" opacity=".92"/><line x2="18.4" y2="6.6" stroke="#fff7fa" stroke-width="4.5" stroke-linecap="round" opacity=".8"/><line x2="5.1" y2="18.2" stroke="#fff7fa" stroke-width="4.5" stroke-linecap="round" opacity=".8"/><line x2="-15.6" y2="15.4" stroke="#fff7fa" stroke-width="4.5" stroke-linecap="round" opacity=".8"/><line x2="-17.9" y2="-7.1" stroke="#fff7fa" stroke-width="4.5" stroke-linecap="round" opacity=".8"/><line x2="-8.2" y2="-28.1" stroke="#fff7fa" stroke-width="4.5" stroke-linecap="round" opacity=".8"/><line x2="24" y2="-17.9" stroke="#fff7fa" stroke-width="4.5" stroke-linecap="round" opacity=".8"/></g><g id="mteedos204f11"><path d="M0,0 C-52.5,-21.9 -63,-70 -28,-100.6 C-18.4,-109.3 -9.6,-108.2 0,-87.5 C9.6,-108.2 18.4,-109.3 28,-100.6 C63,-70 52.5,-21.9 0,0 Z" transform="rotate(33.9)" fill="url(#degPetaleDoux)"/><path d="M0,0 C-49.3,-20.5 -59.2,-65.8 -26.3,-94.5 C-17.3,-102.7 -9,-101.7 0,-82.2 C9,-101.7 17.3,-102.7 26.3,-94.5 C59.2,-65.8 49.3,-20.5 0,0 Z" transform="rotate(114.3)" fill="url(#degPetaleDoux)"/><path d="M0,0 C-52.4,-21.8 -62.9,-69.9 -27.9,-100.4 C-18.3,-109.2 -9.6,-108.1 0,-87.3 C9.6,-108.1 18.3,-109.2 27.9,-100.4 C62.9,-69.9 52.4,-21.8 0,0 Z" transform="rotate(181.2)" fill="url(#degPetaleDoux)"/><path d="M0,0 C-47.3,-19.7 -56.8,-63.1 -25.2,-90.7 C-16.6,-98.6 -8.7,-97.6 0,-78.9 C8.7,-97.6 16.6,-98.6 25.2,-90.7 C56.8,-63.1 47.3,-19.7 0,0 Z" transform="rotate(253.4)" fill="url(#degPetaleDoux)"/><path d="M0,0 C-51.4,-21.4 -61.7,-68.5 -27.4,-98.5 C-18,-107.1 -9.4,-106 0,-85.7 C9.4,-106 18,-107.1 27.4,-98.5 C61.7,-68.5 51.4,-21.4 0,0 Z" transform="rotate(327.2)" fill="url(#degPetaleDoux)"/><circle r="13" fill="#fff2f7" opacity=".92"/><line x2="21.1" y2="20" stroke="#fff7fa" stroke-width="4.5" stroke-linecap="round" opacity=".8"/><line x2="-8.7" y2="28.6" stroke="#fff7fa" stroke-width="4.5" stroke-linecap="round" opacity=".8"/><line x2="-22.9" y2="8" stroke="#fff7fa" stroke-width="4.5" stroke-linecap="round" opacity=".8"/><line x2="-18.8" y2="-17.4" stroke="#fff7fa" stroke-width="4.5" stroke-linecap="round" opacity=".8"/><line x2="1.1" y2="-21.1" stroke="#fff7fa" stroke-width="4.5" stroke-linecap="round" opacity=".8"/><line x2="24.6" y2="-10.6" stroke="#fff7fa" stroke-width="4.5" stroke-linecap="round" opacity=".8"/></g><g id="mteedos204p0"><path d="M0,0 C-39.8,-17 -47.8,-54.4 -21.2,-78.3 C-13.9,-85.1 -7.3,-84.2 0,-68 C7.3,-84.2 13.9,-85.1 21.2,-78.3 C47.8,-54.4 39.8,-17 0,0 Z" fill="url(#degPetaleVif)"/></g><g id="mteedos204p1"><path d="M0,0 C-45.7,-19.5 -54.8,-62.5 -24.4,-89.8 C-16,-97.6 -8.4,-96.6 0,-78.1 C8.4,-96.6 16,-97.6 24.4,-89.8 C54.8,-62.5 45.7,-19.5 0,0 Z" fill="url(#degPetaleVif)"/></g><g id="mteedos204p2"><path d="M0,0 C-53,-22.7 -63.6,-72.5 -28.3,-104.2 C-18.6,-113.3 -9.7,-112.2 0,-90.6 C9.7,-112.2 18.6,-113.3 28.3,-104.2 C63.6,-72.5 53,-22.7 0,0 Z" fill="url(#degPetaleVif)"/></g><g id="mteedos204p3"><path d="M0,0 C-44.4,-19 -53.3,-60.7 -23.7,-87.3 C-15.5,-94.9 -8.1,-94 0,-75.9 C8.1,-94 15.5,-94.9 23.7,-87.3 C53.3,-60.7 44.4,-19 0,0 Z" fill="url(#degPetaleDoux)"/></g><g id="mteedos204p4"><path d="M0,0 C-50.7,-21.7 -60.8,-69.3 -27,-99.7 C-17.7,-108.3 -9.3,-107.3 0,-86.7 C9.3,-107.3 17.7,-108.3 27,-99.7 C60.8,-69.3 50.7,-21.7 0,0 Z" fill="url(#degPetaleVif)"/></g><g id="mteedos204p5"><path d="M0,0 C-43.2,-18.5 -51.8,-59.1 -23,-84.9 C-15.1,-92.3 -7.9,-91.4 0,-73.8 C7.9,-91.4 15.1,-92.3 23,-84.9 C51.8,-59.1 43.2,-18.5 0,0 Z" fill="url(#degPetaleProfond)"/></g>
<mask id="mteedos204" maskUnits="userSpaceOnUse" x="0" y="0" width="900" height="1000"><rect width="900" height="1000" fill="#000"/><path d="M300,248 C300,230 316,220 334,220 L566,220 C584,220 600,230 600,248 L620,796 C622,820 610,832 588,832 L312,832 C290,832 278,820 280,796 Z" fill="#fff"/><path d="M314,232 C272,246 240,270 224,306 L186,410 C177,434 189,450 213,454 L302,470 C322,474 334,462 336,442 L344,318 Z" fill="#fff"/><path d="M586,232 C628,246 660,270 676,306 L714,410 C723,434 711,450 687,454 L598,470 C578,474 566,462 564,442 L556,318 Z" fill="#fff"/><ellipse cx="450" cy="222" rx="80" ry="30" fill="#000"/></mask>
</defs>
<g mask="url(#mteedos204)">
  <rect width="900" height="1000" fill="#0a0a0a"/>
  <g transform="translate(-100,-120)"><g filter="url(#lueur)" opacity=".5"><polygon points="287,-96.6 273.5,81.8 250.2,289.7 239.2,436.9 282.7,558.6 253.4,782.2 261.1,968.4 345.8,1196.6 387.8,1420.7 390.6,1420.2 350.1,1195.4 267.1,967.1 261.1,782.6 292,558.3 250.1,435.6 262.8,291 287.7,83.2 302.8,-95.4" fill="#ffd9ea"/><polygon points="346.1,1199.5 397,1225.6 465.9,1253.5 529.4,1334 595.6,1374 680.4,1393.8 724.5,1447.5 797.5,1487.4 856.7,1519.5 857.4,1518.3 798.6,1485.5 726.5,1445.1 682.3,1390.4 597.3,1369.7 533.2,1330 470,1248.6 399.9,1219.1 349.8,1192.4" fill="#ffd9ea"/><polygon points="400,1223.8 421.9,1200.4 444.6,1189.1 466.6,1175.1 495,1171 512.6,1161.1 537.4,1152.1 561.8,1140.3 583.9,1123.9 606.6,1110.6 639.2,1103 639,1102.3 606.2,1109.5 583.1,1122.6 560.9,1138.8 536.5,1150.1 511.6,1158.8 494.2,1168.2 465.5,1172.1 442.9,1186 419.5,1197.3 396.9,1220.9" fill="#ffd9ea"/><polygon points="399.8,1223.9 413.8,1211.5 438.7,1204.8 455.7,1203.9 470.1,1192.9 494.4,1180.9 513.1,1172.3 538.5,1171.2 562.9,1166 576.8,1147.1 590.9,1137.5 615.5,1130.9 615.3,1130.2 590.5,1136.5 575.9,1146.2 562,1164.6 538.3,1169.3 512.7,1170.1 493.3,1178.6 468.6,1190.4 454.6,1200.9 438.1,1201.3 412.2,1208.1 397.1,1220.8" fill="#ffd9ea"/><polygon points="595,1373 622.4,1409.2 641.8,1445 638.1,1475.1 663.3,1508.5 683.6,1545.3 702.3,1573 707.5,1607.3 708.1,1607.2 703.3,1572.6 684.9,1544.5 665,1507.5 640.4,1474.3 644.5,1444.3 625.1,1407.5 597.9,1370.8" fill="#ffd9ea"/><polygon points="468,1253.1 516.5,1250.9 544.6,1249.9 576.7,1244.8 611,1244.2 641.9,1235.5 679.1,1242.2 710.6,1219.1 710.1,1218.5 678.8,1241 641.9,1233.8 610.7,1242 576.5,1242.1 544.3,1246.7 516.4,1247.2 467.9,1249" fill="#ffd9ea"/><polygon points="278,80.3 233.4,133.1 186.5,196.4 109.5,246.3 77.4,289 28,339.8 -11.4,391.1 -60.2,435.5 -99.8,507 -158.9,568.7 -232.5,601.7 -273.2,676.7 -272.1,677.3 -231.3,603 -157.6,570.6 -97.5,508.7 -57.6,437.6 -8.6,393.7 31.3,342.6 81,292.2 112.9,250.4 190.5,200.7 238.4,137.1 283.2,84.8" fill="#ffd9ea"/><polygon points="79.6,289.2 10.6,272.3 -55.6,254.9 -118.8,270 -165,270.1 -231.6,245.5 -271.7,246.2 -271.7,246.8 -231.8,246.4 -165.3,271.4 -118.5,271.7 -55.6,257 10,274.7 78.9,292" fill="#ffd9ea"/><polygon points="77.6,290.9 85.9,335.9 95.8,370.8 99.6,413.1 117.8,450.6 137.5,484.8 133.4,514.6 129.2,544.8 130.5,572.4 141.8,604 153.5,640.4 153.4,665.4 154,665.4 154.3,640.2 142.8,603.6 131.7,572.1 130.7,544.9 135.1,514.8 139.4,484.4 119.8,449.5 102,412.4 98.5,370.3 88.8,335.3 80.8,290.3" fill="#ffd9ea"/><polygon points="-233.6,601.9 -240.4,628.8 -244.3,667 -253.1,708.6 -245.1,748.5 -236.8,797.2 -238.9,826.2 -227.7,869.6 -218.9,908.5 -213.4,943.6 -223.9,977.6 -223.3,977.8 -212.5,943.6 -217.7,908.3 -226.2,869.3 -237.2,826 -234.8,797.1 -242.8,748.1 -250.5,708.6 -241.4,667.5 -237.3,629.4 -230.3,602.8" fill="#ffd9ea"/><polygon points="561.9,-98.6 522.1,19.9 481.9,123.9 458.8,287 453.6,378.8 415.9,468 445.9,586.8 388.9,724.2 381.1,816.8 357.5,918.2 328.9,1004.5 331.6,1005.5 361.5,919.4 386.5,817.7 395.4,726.1 453.9,587.7 425.2,468.4 463.9,381.3 470.7,288.4 494.8,127 535.7,24.9 576.9,-93.4" fill="#ffd9ea"/><polygon points="456.1,383.6 489.2,408.5 542.8,431.3 574.7,466.5 601.8,511.4 639.4,532.7 668.9,578.5 713.5,600.7 733.7,644.3 768.1,674.9 794.8,701.1 795.9,700 769.7,673.3 736.2,642.5 716.2,598.1 671.9,575.2 643.1,529 606.1,507.4 580,462.6 547,425.3 493.2,401.5 461.4,376.6" fill="#ffd9ea"/><polygon points="545.6,430.6 564.8,425 582.2,426.5 600.8,420.8 622.4,422.3 639.2,418.9 664.8,420.4 678.7,415.1 696.2,410.6 718.6,402.7 742.1,393.4 755.5,382.1 754.9,381.5 741.5,392.3 718.1,401.3 695.6,408.7 678,412.9 664.6,417.8 639.1,415.9 622.3,418.9 600.4,417.1 581.7,422.4 564.4,420.6 544.3,426" fill="#ffd9ea"/><polygon points="712.3,600 720,631 731.6,646.7 745.5,663.9 753,689.6 762.6,707.1 772.7,726.7 773.6,726.3 764,706.4 755.2,688.7 748.3,662.6 734.6,644.4 724.2,629.3 717.4,598.8" fill="#ffd9ea"/><polygon points="544.8,430.3 567.9,432 591.1,431.5 612.5,426.9 633.5,421.6 656.6,422.1 669.8,416.1 681.4,407.2 696,403.3 714,405.6 714.1,404.9 695.9,402.3 680.8,406 668.9,414.6 656.3,420 633.2,419.2 611.9,424.1 590.7,428.4 568,428.4 545.1,426.4" fill="#ffd9ea"/><polygon points="488.8,405 489.6,433 498.7,452.9 507.3,470.7 516.7,484 515.6,501.8 524.5,519.6 536,535.5 539.6,548.5 537.8,568 541.2,585.1 542,584.9 539,567.9 541.3,548.4 537.9,534.5 526.7,518.3 518.4,501.2 519.9,483.2 510.5,468.9 502.5,451.2 494,432.1 493.6,404.9" fill="#ffd9ea"/><polygon points="524.9,23.6 548.8,102.1 564.3,159.7 592.9,229.5 638.1,306.7 666.7,364.2 685.3,416.3 686.7,415.8 669.1,363.2 641.4,305 597.3,227.3 570,157.8 555.6,100.2 532.8,21.2" fill="#ffd9ea"/><polygon points="551.7,103 571.7,108.5 589.5,105.5 617,111 633.8,118.1 650.2,119.4 668.4,119.3 685.9,128.4 704.7,135.5 729.1,140 747.5,138 747.5,137.3 729.1,138.9 705,134.2 686.6,126.9 668.9,117.3 650.3,117.1 634.5,115.5 617.9,108.2 589.7,102.2 571.9,104.9 552.8,99.2" fill="#ffd9ea"/><polygon points="567.2,160.4 603.4,159.7 627.1,163.5 659.1,179.8 702.7,191.2 744.8,202.9 780,214.7 780.2,214.2 745.1,201.9 703.1,189.7 659.8,178 627.9,161.3 603.6,156.8 567.2,157.1" fill="#ffd9ea"/><polygon points="665.4,363 658.8,389 642.3,409.5 627,423.4 610.8,448 599.6,480 587.1,509.9 575.4,525.5 551.4,540.6 551.9,541.4 576.3,526.6 588.9,510.8 601.9,480.9 613.5,449.3 629.6,425.6 645.2,412.3 662.8,391.1 670.3,364.3" fill="#ffd9ea"/><polygon points="666.5,362.8 646.8,394.1 645,418.6 631.3,441.9 618.6,463.2 600.9,488.1 596.9,520.5 597.5,520.6 601.9,488.5 619.9,464 633,442.9 647.3,419.4 649.5,395.1 669.3,364.6" fill="#ffd9ea"/><polygon points="527.5,18 465.8,38.1 433.3,83.5 400.1,120.5 342.7,138.3 291.8,181.3 253.2,210.5 203.5,242.4 165.9,265.8 134,302.8 135.2,303.9 167.6,267.7 205.2,245.2 255.5,214 294.9,185.3 345.6,143.5 403.5,126.2 439.2,88.2 470.6,45 530.3,26.8" fill="#ffd9ea"/><polygon points="344,138.8 317.4,141.5 300.5,135.2 286.3,135.1 264.2,130.8 248.7,128.8 226.2,126.8 209.3,123.5 194.4,120.7 194.2,121.5 209,124.7 226,128.4 248.4,130.9 263.7,133.2 285.9,138 299.8,138.5 317,145.2 344.3,143" fill="#ffd9ea"/><polygon points="293.5,181.3 281,180.6 266.6,176.6 254.5,173.2 241.6,167 227.9,164.4 209.9,158.2 196.1,157.5 185.8,147.7 170.9,143.7 161.4,134.6 160.9,135.1 170.4,144.6 185.1,148.9 195.4,159 209.5,160.1 227.3,166.6 240.8,169.5 253.4,176 265.7,179.7 280.4,184.2 293.2,185.3" fill="#ffd9ea"/><polygon points="251.5,212.8 258.4,247.5 253.4,284.1 259.5,314.6 254.9,352.7 265.1,388.3 269.1,421.6 279.1,453.3 280.1,453 270.7,421.3 267.4,387.9 257.9,352.5 263.1,314.5 257.7,284 263.4,247.4 257.1,211.8" fill="#ffd9ea"/><polygon points="781.6,-93.8 822.7,47.5 801,212 779.2,381.7 801.7,550.2 819.1,704.9 857.9,810.7 879.5,964 892.3,1142.1 960.5,1248.3 962.9,1246.8 896.4,1141 885.2,963.4 864.9,809.1 827.5,703.1 811.7,549.1 790.7,381.7 813.9,213.7 837.1,46.7 796.8,-98.2" fill="#ffd9ea"/><polygon points="889.9,1140.8 875.7,1226.6 839.8,1310.6 827,1409.6 816.2,1499.3 780.5,1580.6 761.1,1679 744.2,1763.6 740.2,1860.8 741.8,1860.9 746.7,1763.9 764.4,1679.7 784.6,1581.9 821.3,1500.7 833.2,1410.4 846.6,1312.4 883.4,1228.9 898.7,1142.3" fill="#ffd9ea"/><polygon points="877.6,1228.4 886.3,1255.8 892.9,1273.7 894.9,1288.3 900.9,1302.6 909.7,1320.2 919.3,1342.1 925.2,1366.1 933.3,1388.6 946.2,1408.1 952.1,1425.9 958.7,1443.4 959.4,1443.1 953.1,1425.5 947.4,1407.5 934.8,1387.9 927.1,1365.5 921.5,1341.4 912.1,1319.1 903.5,1301.4 898,1287.4 896.3,1272.8 889.9,1254.6 881.5,1227.1" fill="#ffd9ea"/><polygon points="781.6,1579.2 753.6,1591.9 717.9,1599.1 680.1,1602.2 653.9,1623.6 607.9,1642.5 571.7,1653.6 535,1661 500.4,1684.2 500.8,1684.9 535.5,1662.2 572.2,1655.3 608.6,1644.6 655.2,1625.9 681.2,1605.1 718.4,1602.6 754.8,1595.7 783.4,1583.3" fill="#ffd9ea"/><polygon points="760.7,1681 774,1697.7 785.5,1722.5 791.2,1746.7 803.5,1761.2 806.2,1789.9 812.5,1814.9 827.7,1830.1 832.2,1852.2 841.1,1878.6 845,1900.9 857.1,1918 857.9,1917.5 846.3,1900.4 842.8,1878.2 834.2,1851.6 830,1828.9 815,1813.6 809.4,1789.4 807,1760 794.9,1745 789.7,1721.1 778.2,1695.2 764.8,1677.7" fill="#ffd9ea"/><polygon points="743.3,1764.7 757.2,1796.6 768.1,1817.7 786.8,1836.5 793.9,1866.7 807.5,1887.4 818.1,1914.9 833.7,1943.8 858.8,1972.3 859.4,1971.8 834.8,1943.1 819.7,1914.1 809.5,1886.4 796.4,1865.7 789.7,1835 771.1,1815.5 761,1794.8 747.6,1762.8" fill="#ffd9ea"/><polygon points="893.1,1144.8 997.4,1185.1 1056,1217.9 1125.2,1251.4 1191.5,1295.6 1259.6,1324.9 1305.8,1392.3 1306.8,1391.7 1261,1323.3 1193,1292.8 1127.3,1247.9 1058.3,1213.5 999.9,1179.7 895.6,1138.3" fill="#ffd9ea"/><polygon points="1055.3,1215.2 1047.9,1241.3 1059.5,1280 1073.7,1306.8 1082.1,1335.7 1093.4,1371.6 1096.7,1397.2 1091.9,1432.4 1090.4,1472.2 1097.6,1511.5 1098.3,1511.3 1091.5,1472.1 1093.3,1432.6 1098.5,1397.2 1095.5,1371.1 1084.5,1335 1076.3,1305.8 1062.5,1278.8 1051.5,1241.1 1059,1216.3" fill="#ffd9ea"/><polygon points="1125.8,1251.2 1149.9,1257.8 1177.8,1245.8 1208.6,1247.4 1244.7,1249.6 1273.2,1244.6 1316.9,1249 1357,1255.2 1357.1,1254.7 1317.1,1248 1273.2,1243.2 1244.7,1247.9 1208.7,1245.3 1177.4,1243.3 1149.6,1254.9 1126.7,1248.1" fill="#ffd9ea"/><polygon points="827.8,50.3 906.3,101.6 968.5,188.4 1028.1,253.5 1070.4,315.8 1144.2,358 1176.8,429.4 1178,428.8 1146,356.4 1072.8,313.2 1031.7,250.7 972.9,184.9 911,96.9 832.1,43.8" fill="#ffd9ea"/><polygon points="1027.7,252 1026.2,286.5 1022,304.4 1027.6,330.1 1034.3,354.2 1040.7,373 1037.6,409.5 1031.2,436.9 1025.8,469.7 1026.6,469.8 1032.4,437.1 1039.3,409.8 1042.8,372.9 1036.8,353.4 1030.5,329.4 1025.5,304.3 1030.1,287 1032.1,252.2" fill="#ffd9ea"/><polygon points="1030.2,254.3 1059.9,249 1081.2,251.6 1097.7,240.8 1120.8,234.5 1150.2,232.1 1169.9,219.1 1185.7,201.7 1185.1,201.2 1169,218.1 1149.6,230.3 1120.5,232.2 1096.5,238.1 1080.5,248.2 1059.7,245.1 1029.5,249.9" fill="#ffd9ea"/><polygon points="1069.6,315.6 1079.4,332.2 1086.8,357.3 1088.9,372.3 1098,385.4 1100.3,411 1107.7,429.3 1110.8,458.3 1117.8,476.3 1128.7,501.6 1130.7,517.3 1131.5,517.2 1129.9,501.3 1119.3,475.7 1112.7,457.9 1110,428.9 1102.9,410.4 1100.9,384.5 1092.1,371.1 1090.5,356.5 1083.2,330.6 1073.6,313.4" fill="#ffd9ea"/><polygon points="1069.3,314.3 1067.5,338.2 1067.3,359.1 1063,375.5 1056.4,390.8 1051.7,407.4 1053.9,423 1048.9,445.8 1045.6,471.1 1049.4,498 1042.5,520.2 1035.8,541.4 1036.6,541.7 1043.6,520.6 1050.9,498.1 1047.5,471.1 1051.1,446.2 1056.4,423.2 1054.6,407.7 1059.4,392 1066.4,376.7 1071.2,359.6 1071.7,338.4 1073.9,314.7" fill="#ffd9ea"/><polygon points="784.4,385.8 837.6,392.1 905.9,410 965.8,419.9 1012.3,454.3 1078.2,460.8 1140.6,475.9 1207.8,505.4 1266.9,543.1 1326.6,550.9 1326.8,549.5 1267.8,541 1209.2,502.8 1141.9,472.4 1079,456.4 1014.2,449.4 968.2,414.3 907.3,403.4 839.1,384.7 785.4,377.6" fill="#ffd9ea"/><polygon points="1206.6,504.9 1225.5,549.1 1252.2,578.6 1273.1,603.6 1290.7,631.6 1304.6,668.1 1325.1,697.9 1325.7,697.5 1305.8,667.5 1292.4,630.7 1275.1,602.2 1254.5,576.7 1228.5,547.2 1210.4,503.3" fill="#ffd9ea"/><polygon points="907.2,408.4 927.8,400.4 948,397.3 962.5,387.6 984.5,384.9 998.5,377 1020,374.4 1043.4,364.1 1060.2,351.8 1085.3,349.2 1101.7,342.6 1124.7,337.9 1124.6,337.3 1101.4,341.7 1085,348.1 1059.8,350.5 1042.5,362.6 1019.5,372.5 997.9,374.9 983.8,382.5 961.7,385 947,394.4 927,397.2 906,405.1" fill="#ffd9ea"/><polygon points="964.6,417.5 967.5,433.4 969.6,448.2 980.5,463.6 989.1,475.4 996.6,498.8 1000.7,520.5 1013.2,537.4 1021.3,559 1028.6,584.4 1038.2,595.6 1052.7,615.7 1053.4,615.2 1039.2,594.8 1030,583.7 1023.1,558.4 1015.2,536.3 1003.1,519.4 999.5,498 992.2,474 983.5,461.5 973.4,446.6 971.9,432.7 969.4,416.7" fill="#ffd9ea"/><polygon points="1079.4,460.8 1108.9,449.3 1122.9,425.7 1148.9,405.8 1172.2,397.3 1197.4,380 1220.1,354.9 1246.5,348 1262.5,334.6 1283.7,320.5 1308.2,310.8 1307.9,310 1283.1,319.4 1261.5,333.2 1245.7,346.1 1218.8,352.8 1195.5,377.9 1170.7,394.4 1147.1,402.7 1120,423 1106.1,445.9 1077.7,456.3" fill="#ffd9ea"/><polygon points="-56,792.8 13.1,807.9 107.9,832.4 207.2,844.8 289.8,902 352,907.1 454.2,918.4 557.5,933.8 646.1,976.7 705.1,994.8 705.6,993.2 647,974.4 558.5,930.6 454.7,914.2 352.6,902 292.2,896.5 209.7,838.5 109.3,824.9 15.1,799.6 -54,783.7" fill="#ffd9ea"/><polygon points="349.6,905.3 364.6,957.7 402.5,997.2 463.3,1048.1 490.3,1102.7 522.2,1168.1 538.9,1241.6 539.9,1241.3 523.9,1167.5 492.6,1101.6 465.9,1045.9 405.3,994.1 368.9,955.3 355,903.8" fill="#ffd9ea"/><polygon points="106,829.9 120,857.2 134,897.8 140.2,944.6 146.5,968.8 150.4,1009.5 166.2,1048.1 187.8,1083.8 206.1,1127 221.3,1162.5 242.4,1197.7 252,1237.2 253,1236.9 243.7,1197.2 223,1161.7 208.3,1126.1 190.2,1082.6 169,1046.7 153.9,1008.6 150.5,968.2 144.6,943.9 138.8,896.7 125,855.2 111.2,827.3" fill="#ffd9ea"/><polygon points="12.9,805.2 37.2,825 48.3,857.7 63.2,884.9 77.4,903.7 90.7,929.1 108.5,952.2 121.4,982.4 131.5,1018.2 157.5,1033.1 157.9,1032.5 132.4,1017.6 122.7,981.9 110,951.4 92.4,928 79.5,902.5 65.6,883.5 51.1,856.5 40.1,823.1 15.3,802.3" fill="#ffd9ea"/><polygon points="1153.1,752.2 992.3,823.6 889.7,894.7 760.2,978.7 617.5,1086 493.7,1153.8 354,1251 354.9,1252.4 495.2,1156.3 619.8,1089.5 763.4,983.2 893.4,900.4 996.1,830.7 1156.9,760.8" fill="#ffd9ea"/><polygon points="994.8,824.9 948.8,812.7 899.6,803 836.8,799.4 773.5,811 730.4,795.7 673.4,791.4 637.3,775.2 636.9,775.9 673.1,792.7 730.1,797.5 773.4,813.4 837,802.3 899.2,806.4 947.9,816.6 993.6,829.3" fill="#ffd9ea"/><polygon points="890.6,895.1 861.8,906.6 813.6,915.1 763.1,943.2 714.3,965 672.1,976.7 642.6,999.6 599.3,1011 558.6,1012.8 558.7,1013.8 599.5,1012.5 643.4,1001.4 673.1,979 715.3,967.9 764.7,946.4 815,918.9 862.9,911.1 892.5,899.9" fill="#ffd9ea"/><polygon points="761.2,979.1 707.1,996.8 655.8,982.6 591.8,993.7 542,997.3 500,1001.4 466.3,988.7 466,989.3 499.8,1002.7 542.1,999 592.1,996 655.7,985.4 707.2,1000.2 762.4,982.8" fill="#ffd9ea"/><polygon points="-56.1,677 -11.9,687.1 45.7,701.6 99.7,741.1 171,754.2 226.3,767.8 262.5,781.8 318.9,791.5 350.2,827.3 419.6,845.5 459.3,882.2 460.5,881 420.7,843.3 351.8,824.5 320.7,788 263.7,777.2 227.9,762.5 172.4,748.1 102.5,734.6 49.2,694.6 -9.8,678.8 -53.9,667.9" fill="#ffd9ea"/><polygon points="98.8,739 106.5,754.1 104,778 113.1,795.4 111.6,808.8 117.6,827.2 125.6,850.1 127,869.5 128.6,889.9 135.8,911.4 138.7,934.7 140.2,955.8 141.1,955.7 139.9,934.6 137.5,911 130.6,889.5 129.4,869.3 128.3,849.5 120.6,826.2 115.1,808.3 117,794.5 108.2,777.4 111.1,753.5 103.4,736.7" fill="#ffd9ea"/><polygon points="-10,685 5.5,678.7 20.3,674 40.1,673.6 60.9,663.9 73.8,659.1 85.3,656.9 98.3,652.8 118.1,652.3 137.6,648.3 149.3,637.1 160.9,637.3 160.9,636.5 148.8,636 137,647 117.9,650.5 98.1,650.7 84.7,654.5 73.1,656.4 59.7,661 39.3,670.2 19.8,670.2 4.1,674.7 -11.7,680.9" fill="#ffd9ea"/><polygon points="-10.3,684.9 22.8,673.8 55.4,664.8 73.3,656.6 101.8,649 133.5,637.2 167,633.4 191.7,633.9 226.3,633.2 249.8,632.3 249.7,631.6 226.3,632.1 191.7,632.5 166.9,631.6 133,635.1 101,646.6 72.4,653.9 54.4,661.8 21.8,670.3 -11.5,681.1" fill="#ffd9ea"/><polygon points="169.6,751 168.2,771.4 177.1,808.7 174.7,832.8 186,860.3 185.2,897.8 194.5,927.7 191.7,946.9 190.4,983.2 191.2,983.2 192.9,947 196.1,927.5 187.2,897.6 188.5,859.9 177.6,832.3 180.5,808.4 172,770.9 173.8,751.3" fill="#ffd9ea"/><polygon points="1150.8,445.2 1098.8,547.1 1050.8,633.7 998.7,711.8 971.4,786.1 944.9,903.8 911,1028.6 863.2,1087.8 772.6,1155.6 697.2,1239.7 656.7,1325 658.2,1325.7 699.2,1241.1 774.7,1158 865.9,1090.7 915.4,1030.5 950.2,905.1 977.4,787.8 1004.9,715.1 1057.5,637.8 1106.4,551.1 1159.2,449.5" fill="#ffd9ea"/><polygon points="772.6,1154.3 727.7,1172.8 700.4,1193.4 668.2,1210.3 619.6,1235.4 594.1,1259.5 557.7,1270.9 509.4,1290 509.7,1290.9 558.3,1272.4 595.2,1261.5 621.2,1237.8 669.8,1213.4 702.5,1197 730,1177 774.6,1159.3" fill="#ffd9ea"/><polygon points="695.4,1240.6 698.8,1284.9 715.3,1327.1 723.9,1373.5 739.3,1413.1 750.3,1438.4 760.2,1465 780.9,1502.2 788.3,1535.6 791.2,1566.4 792.2,1566.4 789.9,1535.3 782.8,1501.4 762.5,1463.9 753.2,1437.3 742.6,1411.7 728,1372.4 719.8,1325.8 703.8,1283.7 701.1,1240.2" fill="#ffd9ea"/><polygon points="910.6,1029.8 915.2,1077 922.8,1120.4 934.6,1185.4 946.1,1241.1 957.2,1290.4 947,1339.7 950.1,1399.8 951.1,1399.7 948.6,1339.8 959.4,1290.4 948.8,1240.5 938,1184.8 926.8,1119.7 919.8,1076.4 915.8,1029.3" fill="#ffd9ea"/></g><g><polygon points="287,-96.6 273.5,81.8 250.2,289.7 239.2,436.9 282.7,558.6 253.4,782.2 261.1,968.4 345.8,1196.6 387.8,1420.7 390.6,1420.2 350.1,1195.4 267.1,967.1 261.1,782.6 292,558.3 250.1,435.6 262.8,291 287.7,83.2 302.8,-95.4" fill="#ffffff"/><polygon points="346.1,1199.5 397,1225.6 465.9,1253.5 529.4,1334 595.6,1374 680.4,1393.8 724.5,1447.5 797.5,1487.4 856.7,1519.5 857.4,1518.3 798.6,1485.5 726.5,1445.1 682.3,1390.4 597.3,1369.7 533.2,1330 470,1248.6 399.9,1219.1 349.8,1192.4" fill="#ffffff"/><polygon points="400,1223.8 421.9,1200.4 444.6,1189.1 466.6,1175.1 495,1171 512.6,1161.1 537.4,1152.1 561.8,1140.3 583.9,1123.9 606.6,1110.6 639.2,1103 639,1102.3 606.2,1109.5 583.1,1122.6 560.9,1138.8 536.5,1150.1 511.6,1158.8 494.2,1168.2 465.5,1172.1 442.9,1186 419.5,1197.3 396.9,1220.9" fill="#ffffff"/><polygon points="399.8,1223.9 413.8,1211.5 438.7,1204.8 455.7,1203.9 470.1,1192.9 494.4,1180.9 513.1,1172.3 538.5,1171.2 562.9,1166 576.8,1147.1 590.9,1137.5 615.5,1130.9 615.3,1130.2 590.5,1136.5 575.9,1146.2 562,1164.6 538.3,1169.3 512.7,1170.1 493.3,1178.6 468.6,1190.4 454.6,1200.9 438.1,1201.3 412.2,1208.1 397.1,1220.8" fill="#ffffff"/><polygon points="595,1373 622.4,1409.2 641.8,1445 638.1,1475.1 663.3,1508.5 683.6,1545.3 702.3,1573 707.5,1607.3 708.1,1607.2 703.3,1572.6 684.9,1544.5 665,1507.5 640.4,1474.3 644.5,1444.3 625.1,1407.5 597.9,1370.8" fill="#ffffff"/><polygon points="468,1253.1 516.5,1250.9 544.6,1249.9 576.7,1244.8 611,1244.2 641.9,1235.5 679.1,1242.2 710.6,1219.1 710.1,1218.5 678.8,1241 641.9,1233.8 610.7,1242 576.5,1242.1 544.3,1246.7 516.4,1247.2 467.9,1249" fill="#ffffff"/><polygon points="278,80.3 233.4,133.1 186.5,196.4 109.5,246.3 77.4,289 28,339.8 -11.4,391.1 -60.2,435.5 -99.8,507 -158.9,568.7 -232.5,601.7 -273.2,676.7 -272.1,677.3 -231.3,603 -157.6,570.6 -97.5,508.7 -57.6,437.6 -8.6,393.7 31.3,342.6 81,292.2 112.9,250.4 190.5,200.7 238.4,137.1 283.2,84.8" fill="#ffffff"/><polygon points="79.6,289.2 10.6,272.3 -55.6,254.9 -118.8,270 -165,270.1 -231.6,245.5 -271.7,246.2 -271.7,246.8 -231.8,246.4 -165.3,271.4 -118.5,271.7 -55.6,257 10,274.7 78.9,292" fill="#ffffff"/><polygon points="77.6,290.9 85.9,335.9 95.8,370.8 99.6,413.1 117.8,450.6 137.5,484.8 133.4,514.6 129.2,544.8 130.5,572.4 141.8,604 153.5,640.4 153.4,665.4 154,665.4 154.3,640.2 142.8,603.6 131.7,572.1 130.7,544.9 135.1,514.8 139.4,484.4 119.8,449.5 102,412.4 98.5,370.3 88.8,335.3 80.8,290.3" fill="#ffffff"/><polygon points="-233.6,601.9 -240.4,628.8 -244.3,667 -253.1,708.6 -245.1,748.5 -236.8,797.2 -238.9,826.2 -227.7,869.6 -218.9,908.5 -213.4,943.6 -223.9,977.6 -223.3,977.8 -212.5,943.6 -217.7,908.3 -226.2,869.3 -237.2,826 -234.8,797.1 -242.8,748.1 -250.5,708.6 -241.4,667.5 -237.3,629.4 -230.3,602.8" fill="#ffffff"/><polygon points="561.9,-98.6 522.1,19.9 481.9,123.9 458.8,287 453.6,378.8 415.9,468 445.9,586.8 388.9,724.2 381.1,816.8 357.5,918.2 328.9,1004.5 331.6,1005.5 361.5,919.4 386.5,817.7 395.4,726.1 453.9,587.7 425.2,468.4 463.9,381.3 470.7,288.4 494.8,127 535.7,24.9 576.9,-93.4" fill="#ffffff"/><polygon points="456.1,383.6 489.2,408.5 542.8,431.3 574.7,466.5 601.8,511.4 639.4,532.7 668.9,578.5 713.5,600.7 733.7,644.3 768.1,674.9 794.8,701.1 795.9,700 769.7,673.3 736.2,642.5 716.2,598.1 671.9,575.2 643.1,529 606.1,507.4 580,462.6 547,425.3 493.2,401.5 461.4,376.6" fill="#ffffff"/><polygon points="545.6,430.6 564.8,425 582.2,426.5 600.8,420.8 622.4,422.3 639.2,418.9 664.8,420.4 678.7,415.1 696.2,410.6 718.6,402.7 742.1,393.4 755.5,382.1 754.9,381.5 741.5,392.3 718.1,401.3 695.6,408.7 678,412.9 664.6,417.8 639.1,415.9 622.3,418.9 600.4,417.1 581.7,422.4 564.4,420.6 544.3,426" fill="#ffffff"/><polygon points="712.3,600 720,631 731.6,646.7 745.5,663.9 753,689.6 762.6,707.1 772.7,726.7 773.6,726.3 764,706.4 755.2,688.7 748.3,662.6 734.6,644.4 724.2,629.3 717.4,598.8" fill="#ffffff"/><polygon points="544.8,430.3 567.9,432 591.1,431.5 612.5,426.9 633.5,421.6 656.6,422.1 669.8,416.1 681.4,407.2 696,403.3 714,405.6 714.1,404.9 695.9,402.3 680.8,406 668.9,414.6 656.3,420 633.2,419.2 611.9,424.1 590.7,428.4 568,428.4 545.1,426.4" fill="#ffffff"/><polygon points="488.8,405 489.6,433 498.7,452.9 507.3,470.7 516.7,484 515.6,501.8 524.5,519.6 536,535.5 539.6,548.5 537.8,568 541.2,585.1 542,584.9 539,567.9 541.3,548.4 537.9,534.5 526.7,518.3 518.4,501.2 519.9,483.2 510.5,468.9 502.5,451.2 494,432.1 493.6,404.9" fill="#ffffff"/><polygon points="524.9,23.6 548.8,102.1 564.3,159.7 592.9,229.5 638.1,306.7 666.7,364.2 685.3,416.3 686.7,415.8 669.1,363.2 641.4,305 597.3,227.3 570,157.8 555.6,100.2 532.8,21.2" fill="#ffffff"/><polygon points="551.7,103 571.7,108.5 589.5,105.5 617,111 633.8,118.1 650.2,119.4 668.4,119.3 685.9,128.4 704.7,135.5 729.1,140 747.5,138 747.5,137.3 729.1,138.9 705,134.2 686.6,126.9 668.9,117.3 650.3,117.1 634.5,115.5 617.9,108.2 589.7,102.2 571.9,104.9 552.8,99.2" fill="#ffffff"/><polygon points="567.2,160.4 603.4,159.7 627.1,163.5 659.1,179.8 702.7,191.2 744.8,202.9 780,214.7 780.2,214.2 745.1,201.9 703.1,189.7 659.8,178 627.9,161.3 603.6,156.8 567.2,157.1" fill="#ffffff"/><polygon points="665.4,363 658.8,389 642.3,409.5 627,423.4 610.8,448 599.6,480 587.1,509.9 575.4,525.5 551.4,540.6 551.9,541.4 576.3,526.6 588.9,510.8 601.9,480.9 613.5,449.3 629.6,425.6 645.2,412.3 662.8,391.1 670.3,364.3" fill="#ffffff"/><polygon points="666.5,362.8 646.8,394.1 645,418.6 631.3,441.9 618.6,463.2 600.9,488.1 596.9,520.5 597.5,520.6 601.9,488.5 619.9,464 633,442.9 647.3,419.4 649.5,395.1 669.3,364.6" fill="#ffffff"/><polygon points="527.5,18 465.8,38.1 433.3,83.5 400.1,120.5 342.7,138.3 291.8,181.3 253.2,210.5 203.5,242.4 165.9,265.8 134,302.8 135.2,303.9 167.6,267.7 205.2,245.2 255.5,214 294.9,185.3 345.6,143.5 403.5,126.2 439.2,88.2 470.6,45 530.3,26.8" fill="#ffffff"/><polygon points="344,138.8 317.4,141.5 300.5,135.2 286.3,135.1 264.2,130.8 248.7,128.8 226.2,126.8 209.3,123.5 194.4,120.7 194.2,121.5 209,124.7 226,128.4 248.4,130.9 263.7,133.2 285.9,138 299.8,138.5 317,145.2 344.3,143" fill="#ffffff"/><polygon points="293.5,181.3 281,180.6 266.6,176.6 254.5,173.2 241.6,167 227.9,164.4 209.9,158.2 196.1,157.5 185.8,147.7 170.9,143.7 161.4,134.6 160.9,135.1 170.4,144.6 185.1,148.9 195.4,159 209.5,160.1 227.3,166.6 240.8,169.5 253.4,176 265.7,179.7 280.4,184.2 293.2,185.3" fill="#ffffff"/><polygon points="251.5,212.8 258.4,247.5 253.4,284.1 259.5,314.6 254.9,352.7 265.1,388.3 269.1,421.6 279.1,453.3 280.1,453 270.7,421.3 267.4,387.9 257.9,352.5 263.1,314.5 257.7,284 263.4,247.4 257.1,211.8" fill="#ffffff"/><polygon points="781.6,-93.8 822.7,47.5 801,212 779.2,381.7 801.7,550.2 819.1,704.9 857.9,810.7 879.5,964 892.3,1142.1 960.5,1248.3 962.9,1246.8 896.4,1141 885.2,963.4 864.9,809.1 827.5,703.1 811.7,549.1 790.7,381.7 813.9,213.7 837.1,46.7 796.8,-98.2" fill="#ffffff"/><polygon points="889.9,1140.8 875.7,1226.6 839.8,1310.6 827,1409.6 816.2,1499.3 780.5,1580.6 761.1,1679 744.2,1763.6 740.2,1860.8 741.8,1860.9 746.7,1763.9 764.4,1679.7 784.6,1581.9 821.3,1500.7 833.2,1410.4 846.6,1312.4 883.4,1228.9 898.7,1142.3" fill="#ffffff"/><polygon points="877.6,1228.4 886.3,1255.8 892.9,1273.7 894.9,1288.3 900.9,1302.6 909.7,1320.2 919.3,1342.1 925.2,1366.1 933.3,1388.6 946.2,1408.1 952.1,1425.9 958.7,1443.4 959.4,1443.1 953.1,1425.5 947.4,1407.5 934.8,1387.9 927.1,1365.5 921.5,1341.4 912.1,1319.1 903.5,1301.4 898,1287.4 896.3,1272.8 889.9,1254.6 881.5,1227.1" fill="#ffffff"/><polygon points="781.6,1579.2 753.6,1591.9 717.9,1599.1 680.1,1602.2 653.9,1623.6 607.9,1642.5 571.7,1653.6 535,1661 500.4,1684.2 500.8,1684.9 535.5,1662.2 572.2,1655.3 608.6,1644.6 655.2,1625.9 681.2,1605.1 718.4,1602.6 754.8,1595.7 783.4,1583.3" fill="#ffffff"/><polygon points="760.7,1681 774,1697.7 785.5,1722.5 791.2,1746.7 803.5,1761.2 806.2,1789.9 812.5,1814.9 827.7,1830.1 832.2,1852.2 841.1,1878.6 845,1900.9 857.1,1918 857.9,1917.5 846.3,1900.4 842.8,1878.2 834.2,1851.6 830,1828.9 815,1813.6 809.4,1789.4 807,1760 794.9,1745 789.7,1721.1 778.2,1695.2 764.8,1677.7" fill="#ffffff"/><polygon points="743.3,1764.7 757.2,1796.6 768.1,1817.7 786.8,1836.5 793.9,1866.7 807.5,1887.4 818.1,1914.9 833.7,1943.8 858.8,1972.3 859.4,1971.8 834.8,1943.1 819.7,1914.1 809.5,1886.4 796.4,1865.7 789.7,1835 771.1,1815.5 761,1794.8 747.6,1762.8" fill="#ffffff"/><polygon points="893.1,1144.8 997.4,1185.1 1056,1217.9 1125.2,1251.4 1191.5,1295.6 1259.6,1324.9 1305.8,1392.3 1306.8,1391.7 1261,1323.3 1193,1292.8 1127.3,1247.9 1058.3,1213.5 999.9,1179.7 895.6,1138.3" fill="#ffffff"/><polygon points="1055.3,1215.2 1047.9,1241.3 1059.5,1280 1073.7,1306.8 1082.1,1335.7 1093.4,1371.6 1096.7,1397.2 1091.9,1432.4 1090.4,1472.2 1097.6,1511.5 1098.3,1511.3 1091.5,1472.1 1093.3,1432.6 1098.5,1397.2 1095.5,1371.1 1084.5,1335 1076.3,1305.8 1062.5,1278.8 1051.5,1241.1 1059,1216.3" fill="#ffffff"/><polygon points="1125.8,1251.2 1149.9,1257.8 1177.8,1245.8 1208.6,1247.4 1244.7,1249.6 1273.2,1244.6 1316.9,1249 1357,1255.2 1357.1,1254.7 1317.1,1248 1273.2,1243.2 1244.7,1247.9 1208.7,1245.3 1177.4,1243.3 1149.6,1254.9 1126.7,1248.1" fill="#ffffff"/><polygon points="827.8,50.3 906.3,101.6 968.5,188.4 1028.1,253.5 1070.4,315.8 1144.2,358 1176.8,429.4 1178,428.8 1146,356.4 1072.8,313.2 1031.7,250.7 972.9,184.9 911,96.9 832.1,43.8" fill="#ffffff"/><polygon points="1027.7,252 1026.2,286.5 1022,304.4 1027.6,330.1 1034.3,354.2 1040.7,373 1037.6,409.5 1031.2,436.9 1025.8,469.7 1026.6,469.8 1032.4,437.1 1039.3,409.8 1042.8,372.9 1036.8,353.4 1030.5,329.4 1025.5,304.3 1030.1,287 1032.1,252.2" fill="#ffffff"/><polygon points="1030.2,254.3 1059.9,249 1081.2,251.6 1097.7,240.8 1120.8,234.5 1150.2,232.1 1169.9,219.1 1185.7,201.7 1185.1,201.2 1169,218.1 1149.6,230.3 1120.5,232.2 1096.5,238.1 1080.5,248.2 1059.7,245.1 1029.5,249.9" fill="#ffffff"/><polygon points="1069.6,315.6 1079.4,332.2 1086.8,357.3 1088.9,372.3 1098,385.4 1100.3,411 1107.7,429.3 1110.8,458.3 1117.8,476.3 1128.7,501.6 1130.7,517.3 1131.5,517.2 1129.9,501.3 1119.3,475.7 1112.7,457.9 1110,428.9 1102.9,410.4 1100.9,384.5 1092.1,371.1 1090.5,356.5 1083.2,330.6 1073.6,313.4" fill="#ffffff"/><polygon points="1069.3,314.3 1067.5,338.2 1067.3,359.1 1063,375.5 1056.4,390.8 1051.7,407.4 1053.9,423 1048.9,445.8 1045.6,471.1 1049.4,498 1042.5,520.2 1035.8,541.4 1036.6,541.7 1043.6,520.6 1050.9,498.1 1047.5,471.1 1051.1,446.2 1056.4,423.2 1054.6,407.7 1059.4,392 1066.4,376.7 1071.2,359.6 1071.7,338.4 1073.9,314.7" fill="#ffffff"/><polygon points="784.4,385.8 837.6,392.1 905.9,410 965.8,419.9 1012.3,454.3 1078.2,460.8 1140.6,475.9 1207.8,505.4 1266.9,543.1 1326.6,550.9 1326.8,549.5 1267.8,541 1209.2,502.8 1141.9,472.4 1079,456.4 1014.2,449.4 968.2,414.3 907.3,403.4 839.1,384.7 785.4,377.6" fill="#ffffff"/><polygon points="1206.6,504.9 1225.5,549.1 1252.2,578.6 1273.1,603.6 1290.7,631.6 1304.6,668.1 1325.1,697.9 1325.7,697.5 1305.8,667.5 1292.4,630.7 1275.1,602.2 1254.5,576.7 1228.5,547.2 1210.4,503.3" fill="#ffffff"/><polygon points="907.2,408.4 927.8,400.4 948,397.3 962.5,387.6 984.5,384.9 998.5,377 1020,374.4 1043.4,364.1 1060.2,351.8 1085.3,349.2 1101.7,342.6 1124.7,337.9 1124.6,337.3 1101.4,341.7 1085,348.1 1059.8,350.5 1042.5,362.6 1019.5,372.5 997.9,374.9 983.8,382.5 961.7,385 947,394.4 927,397.2 906,405.1" fill="#ffffff"/><polygon points="964.6,417.5 967.5,433.4 969.6,448.2 980.5,463.6 989.1,475.4 996.6,498.8 1000.7,520.5 1013.2,537.4 1021.3,559 1028.6,584.4 1038.2,595.6 1052.7,615.7 1053.4,615.2 1039.2,594.8 1030,583.7 1023.1,558.4 1015.2,536.3 1003.1,519.4 999.5,498 992.2,474 983.5,461.5 973.4,446.6 971.9,432.7 969.4,416.7" fill="#ffffff"/><polygon points="1079.4,460.8 1108.9,449.3 1122.9,425.7 1148.9,405.8 1172.2,397.3 1197.4,380 1220.1,354.9 1246.5,348 1262.5,334.6 1283.7,320.5 1308.2,310.8 1307.9,310 1283.1,319.4 1261.5,333.2 1245.7,346.1 1218.8,352.8 1195.5,377.9 1170.7,394.4 1147.1,402.7 1120,423 1106.1,445.9 1077.7,456.3" fill="#ffffff"/><polygon points="-56,792.8 13.1,807.9 107.9,832.4 207.2,844.8 289.8,902 352,907.1 454.2,918.4 557.5,933.8 646.1,976.7 705.1,994.8 705.6,993.2 647,974.4 558.5,930.6 454.7,914.2 352.6,902 292.2,896.5 209.7,838.5 109.3,824.9 15.1,799.6 -54,783.7" fill="#ffffff"/><polygon points="349.6,905.3 364.6,957.7 402.5,997.2 463.3,1048.1 490.3,1102.7 522.2,1168.1 538.9,1241.6 539.9,1241.3 523.9,1167.5 492.6,1101.6 465.9,1045.9 405.3,994.1 368.9,955.3 355,903.8" fill="#ffffff"/><polygon points="106,829.9 120,857.2 134,897.8 140.2,944.6 146.5,968.8 150.4,1009.5 166.2,1048.1 187.8,1083.8 206.1,1127 221.3,1162.5 242.4,1197.7 252,1237.2 253,1236.9 243.7,1197.2 223,1161.7 208.3,1126.1 190.2,1082.6 169,1046.7 153.9,1008.6 150.5,968.2 144.6,943.9 138.8,896.7 125,855.2 111.2,827.3" fill="#ffffff"/><polygon points="12.9,805.2 37.2,825 48.3,857.7 63.2,884.9 77.4,903.7 90.7,929.1 108.5,952.2 121.4,982.4 131.5,1018.2 157.5,1033.1 157.9,1032.5 132.4,1017.6 122.7,981.9 110,951.4 92.4,928 79.5,902.5 65.6,883.5 51.1,856.5 40.1,823.1 15.3,802.3" fill="#ffffff"/><polygon points="1153.1,752.2 992.3,823.6 889.7,894.7 760.2,978.7 617.5,1086 493.7,1153.8 354,1251 354.9,1252.4 495.2,1156.3 619.8,1089.5 763.4,983.2 893.4,900.4 996.1,830.7 1156.9,760.8" fill="#ffffff"/><polygon points="994.8,824.9 948.8,812.7 899.6,803 836.8,799.4 773.5,811 730.4,795.7 673.4,791.4 637.3,775.2 636.9,775.9 673.1,792.7 730.1,797.5 773.4,813.4 837,802.3 899.2,806.4 947.9,816.6 993.6,829.3" fill="#ffffff"/><polygon points="890.6,895.1 861.8,906.6 813.6,915.1 763.1,943.2 714.3,965 672.1,976.7 642.6,999.6 599.3,1011 558.6,1012.8 558.7,1013.8 599.5,1012.5 643.4,1001.4 673.1,979 715.3,967.9 764.7,946.4 815,918.9 862.9,911.1 892.5,899.9" fill="#ffffff"/><polygon points="761.2,979.1 707.1,996.8 655.8,982.6 591.8,993.7 542,997.3 500,1001.4 466.3,988.7 466,989.3 499.8,1002.7 542.1,999 592.1,996 655.7,985.4 707.2,1000.2 762.4,982.8" fill="#ffffff"/><polygon points="-56.1,677 -11.9,687.1 45.7,701.6 99.7,741.1 171,754.2 226.3,767.8 262.5,781.8 318.9,791.5 350.2,827.3 419.6,845.5 459.3,882.2 460.5,881 420.7,843.3 351.8,824.5 320.7,788 263.7,777.2 227.9,762.5 172.4,748.1 102.5,734.6 49.2,694.6 -9.8,678.8 -53.9,667.9" fill="#ffffff"/><polygon points="98.8,739 106.5,754.1 104,778 113.1,795.4 111.6,808.8 117.6,827.2 125.6,850.1 127,869.5 128.6,889.9 135.8,911.4 138.7,934.7 140.2,955.8 141.1,955.7 139.9,934.6 137.5,911 130.6,889.5 129.4,869.3 128.3,849.5 120.6,826.2 115.1,808.3 117,794.5 108.2,777.4 111.1,753.5 103.4,736.7" fill="#ffffff"/><polygon points="-10,685 5.5,678.7 20.3,674 40.1,673.6 60.9,663.9 73.8,659.1 85.3,656.9 98.3,652.8 118.1,652.3 137.6,648.3 149.3,637.1 160.9,637.3 160.9,636.5 148.8,636 137,647 117.9,650.5 98.1,650.7 84.7,654.5 73.1,656.4 59.7,661 39.3,670.2 19.8,670.2 4.1,674.7 -11.7,680.9" fill="#ffffff"/><polygon points="-10.3,684.9 22.8,673.8 55.4,664.8 73.3,656.6 101.8,649 133.5,637.2 167,633.4 191.7,633.9 226.3,633.2 249.8,632.3 249.7,631.6 226.3,632.1 191.7,632.5 166.9,631.6 133,635.1 101,646.6 72.4,653.9 54.4,661.8 21.8,670.3 -11.5,681.1" fill="#ffffff"/><polygon points="169.6,751 168.2,771.4 177.1,808.7 174.7,832.8 186,860.3 185.2,897.8 194.5,927.7 191.7,946.9 190.4,983.2 191.2,983.2 192.9,947 196.1,927.5 187.2,897.6 188.5,859.9 177.6,832.3 180.5,808.4 172,770.9 173.8,751.3" fill="#ffffff"/><polygon points="1150.8,445.2 1098.8,547.1 1050.8,633.7 998.7,711.8 971.4,786.1 944.9,903.8 911,1028.6 863.2,1087.8 772.6,1155.6 697.2,1239.7 656.7,1325 658.2,1325.7 699.2,1241.1 774.7,1158 865.9,1090.7 915.4,1030.5 950.2,905.1 977.4,787.8 1004.9,715.1 1057.5,637.8 1106.4,551.1 1159.2,449.5" fill="#ffffff"/><polygon points="772.6,1154.3 727.7,1172.8 700.4,1193.4 668.2,1210.3 619.6,1235.4 594.1,1259.5 557.7,1270.9 509.4,1290 509.7,1290.9 558.3,1272.4 595.2,1261.5 621.2,1237.8 669.8,1213.4 702.5,1197 730,1177 774.6,1159.3" fill="#ffffff"/><polygon points="695.4,1240.6 698.8,1284.9 715.3,1327.1 723.9,1373.5 739.3,1413.1 750.3,1438.4 760.2,1465 780.9,1502.2 788.3,1535.6 791.2,1566.4 792.2,1566.4 789.9,1535.3 782.8,1501.4 762.5,1463.9 753.2,1437.3 742.6,1411.7 728,1372.4 719.8,1325.8 703.8,1283.7 701.1,1240.2" fill="#ffffff"/><polygon points="910.6,1029.8 915.2,1077 922.8,1120.4 934.6,1185.4 946.1,1241.1 957.2,1290.4 947,1339.7 950.1,1399.8 951.1,1399.7 948.6,1339.8 959.4,1290.4 948.8,1240.5 938,1184.8 926.8,1119.7 919.8,1076.4 915.8,1029.3" fill="#ffffff"/></g><use href="#mteedos204f9" transform="translate(561,101.6) rotate(353.2) scale(0.273)"/><use href="#mteedos204f5" transform="translate(248.3,1203.8) rotate(222.2) scale(0.167)"/><use href="#mteedos204f9" transform="translate(387.4,120.7) rotate(268) scale(0.195)"/><use href="#mteedos204f1" transform="translate(533.6,1253.4) rotate(331.7) scale(0.144)"/><use href="#mteedos204f3" transform="translate(856.3,1102.1) rotate(303.5) scale(0.242)"/><use href="#mteedos204f6" transform="translate(941.4,1194.3) rotate(99.5) scale(0.157)"/><use href="#mteedos204f4" transform="translate(1241.3,536.8) rotate(325.5) scale(0.207)"/><use href="#mteedos204f7" transform="translate(819.7,223.7) rotate(315.5) scale(0.173)"/><use href="#mteedos204f7" transform="translate(451.7,282.9) rotate(223.1) scale(0.155)"/><use href="#mteedos204f0" transform="translate(447.2,390.1) rotate(152.3) scale(0.198)"/><use href="#mteedos204f0" transform="translate(158.3,1025.7) rotate(117.6) scale(0.246)"/><use href="#mteedos204f9" transform="translate(316.9,1006.4) rotate(137.5) scale(0.211)"/><use href="#mteedos204f2" transform="translate(99.5,661.2) rotate(316.9) scale(0.133)"/><use href="#mteedos204f9" transform="translate(772.5,1807.6) rotate(223.1) scale(0.167)"/><use href="#mteedos204f8" transform="translate(81.1,921.7) rotate(223.3) scale(0.202)"/><use href="#mteedos204f4" transform="translate(400.6,739.4) rotate(50.2) scale(0.169)"/><use href="#mteedos204f3" transform="translate(952.8,1404.3) rotate(264.6) scale(0.154)"/><use href="#mteedos204f10" transform="translate(778,1545) rotate(28.3) scale(0.273)"/><use href="#mteedos204f5" transform="translate(142,884.9) rotate(330.9) scale(0.199)"/><use href="#mteedos204f8" transform="translate(138.2,974.5) rotate(131.5) scale(0.130)"/><use href="#mteedos204f5" transform="translate(712.7,986.2) rotate(134.4) scale(0.223)"/><use href="#mteedos204f7" transform="translate(198.2,206.4) rotate(20.2) scale(0.206)"/><use href="#mteedos204f4" transform="translate(-285.8,664.6) rotate(140.4) scale(0.180)"/><use href="#mteedos204f7" transform="translate(444.5,872.5) rotate(36.2) scale(0.167)"/><use href="#mteedos204f3" transform="translate(-47.4,422.6) rotate(309.3) scale(0.265)"/><use href="#mteedos204f0" transform="translate(776.8,1582.6) rotate(86.9) scale(0.250)"/><use href="#mteedos204f1" transform="translate(1059.8,506.8) rotate(50.9) scale(0.187)"/><use href="#mteedos204f5" transform="translate(516.3,454.7) rotate(44.8) scale(0.184)"/><use href="#mteedos204f9" transform="translate(1035.8,364.5) rotate(236) scale(0.231)"/><use href="#mteedos204f6" transform="translate(812,1486.6) rotate(213.1) scale(0.211)"/><use href="#mteedos204f10" transform="translate(585.2,1133.1) rotate(292.2) scale(0.242)"/><use href="#mteedos204f3" transform="translate(754.1,663.3) rotate(292.3) scale(0.169)"/><use href="#mteedos204f7" transform="translate(901.8,1292.4) rotate(312.1) scale(0.155)"/><use href="#mteedos204f2" transform="translate(523.9,509.1) rotate(296.4) scale(0.209)"/><use href="#mteedos204f6" transform="translate(644.8,393.7) rotate(277.1) scale(0.259)"/><use href="#mteedos204f6" transform="translate(1118.1,419.9) rotate(280.7) scale(0.227)"/><use href="#mteedos204f0" transform="translate(110.4,805.6) rotate(208.1) scale(0.195)"/><use href="#mteedos204f9" transform="translate(1177,433.3) rotate(298.1) scale(0.221)"/><use href="#mteedos204f1" transform="translate(245.3,294.7) rotate(220.5) scale(0.188)"/><use href="#mteedos204f7" transform="translate(638.9,433.4) rotate(188.2) scale(0.153)"/><use href="#mteedos204f7" transform="translate(912.8,411.9) rotate(34.9) scale(0.145)"/><use href="#mteedos204f10" transform="translate(671.7,186.9) rotate(260.2) scale(0.225)"/><use href="#mteedos204f10" transform="translate(933.5,1120.7) rotate(12.6) scale(0.138)"/><use href="#mteedos204f3" transform="translate(1248.8,1242.2) rotate(66.2) scale(0.200)"/><use href="#mteedos204f1" transform="translate(457.6,1204.9) rotate(126) scale(0.268)"/><use href="#mteedos204f5" transform="translate(252.9,177.9) rotate(12.7) scale(0.160)"/><use href="#mteedos204f6" transform="translate(714.3,1452.4) rotate(188.6) scale(0.260)"/><use href="#mteedos204f8" transform="translate(836.2,1953.4) rotate(272.3) scale(0.256)"/><use href="#mteedos204f8" transform="translate(330.6,138.3) rotate(209.4) scale(0.164)"/><use href="#mteedos204f7" transform="translate(352.7,1203.1) rotate(12.4) scale(0.228)"/><use href="#mteedos204f11" transform="translate(653.2,1226.1) rotate(302) scale(0.217)"/><use href="#mteedos204f7" transform="translate(806.4,1896.7) rotate(93.8) scale(0.249)"/><use href="#mteedos204f0" transform="translate(134.5,564.1) rotate(246.3) scale(0.242)"/><use href="#mteedos204f4" transform="translate(411.7,1206.3) rotate(157.4) scale(0.161)"/><use href="#mteedos204f10" transform="translate(344.9,930) rotate(166.7) scale(0.139)"/><use href="#mteedos204f3" transform="translate(-245.4,602.2) rotate(126.5) scale(0.255)"/><use href="#mteedos204f2" transform="translate(954,383.3) rotate(331.7) scale(0.149)"/><use href="#mteedos204f7" transform="translate(962.2,1279.2) rotate(284.8) scale(0.151)"/><use href="#mteedos204f9" transform="translate(1044.9,596.3) rotate(117.3) scale(0.187)"/><use href="#mteedos204f8" transform="translate(1331.4,705.2) rotate(161.5) scale(0.204)"/><use href="#mteedos204f1" transform="translate(1065.2,466) rotate(186.8) scale(0.242)"/><use href="#mteedos204f8" transform="translate(1078.9,1301.5) rotate(69.1) scale(0.187)"/><use href="#mteedos204f5" transform="translate(703.1,1232.1) rotate(260.4) scale(0.133)"/><use href="#mteedos204f1" transform="translate(618.9,109.7) rotate(307.4) scale(0.255)"/><use href="#mteedos204f10" transform="translate(1318.1,563.5) rotate(98.7) scale(0.163)"/><use href="#mteedos204f3" transform="translate(257.8,135.5) rotate(32.4) scale(0.180)"/><use href="#mteedos204f0" transform="translate(158.6,257.9) rotate(161.6) scale(0.136)"/><use href="#mteedos204f3" transform="translate(596.5,162.7) rotate(287.8) scale(0.252)"/><use href="#mteedos204f4" transform="translate(898.8,813.9) rotate(78.6) scale(0.173)"/><use href="#mteedos204f7" transform="translate(1302.9,1248.4) rotate(161.2) scale(0.256)"/><use href="#mteedos204f0" transform="translate(640,303.9) rotate(331.3) scale(0.160)"/><use href="#mteedos204f2" transform="translate(756,947.8) rotate(113.7) scale(0.259)"/><use href="#mteedos204f2" transform="translate(607.8,221.7) rotate(147.1) scale(0.245)"/><use href="#mteedos204f8" transform="translate(690.3,1564.3) rotate(78) scale(0.247)"/><use href="#mteedos204f11" transform="translate(674.8,783.9) rotate(297.4) scale(0.247)"/><use href="#mteedos204f2" transform="translate(631,962.6) rotate(203.5) scale(0.142)"/><use href="#mteedos204f3" transform="translate(1053.2,1204.1) rotate(15) scale(0.153)"/><use href="#mteedos204f1" transform="translate(1059.9,410) rotate(85.6) scale(0.193)"/><use href="#mteedos204f11" transform="translate(587.6,515.4) rotate(170.8) scale(0.201)"/><use href="#mteedos204f8" transform="translate(793.8,537.7) rotate(243.2) scale(0.139)"/><use href="#mteedos204f2" transform="translate(474.7,1036.7) rotate(84.3) scale(0.273)"/><use href="#mteedos204f10" transform="translate(378.8,826.4) rotate(90.2) scale(0.132)"/><use href="#mteedos204f1" transform="translate(1256.5,320.8) rotate(51) scale(0.186)"/><use href="#mteedos204f5" transform="translate(116.3,860.7) rotate(346.3) scale(0.139)"/><use href="#mteedos204f0" transform="translate(967.4,784.3) rotate(192.2) scale(0.167)"/><use href="#mteedos204f10" transform="translate(1082.6,317.8) rotate(86.6) scale(0.132)"/><use href="#mteedos204f0" transform="translate(274.9,969.5) rotate(20.4) scale(0.186)"/><use href="#mteedos204f10" transform="translate(249.7,241.6) rotate(72.8) scale(0.163)"/><use href="#mteedos204f8" transform="translate(551.3,567.1) rotate(214.4) scale(0.186)"/><use href="#mteedos204f2" transform="translate(201.1,858.6) rotate(320.7) scale(0.265)"/><use href="#mteedos204f4" transform="translate(1078.2,374.5) rotate(196.2) scale(0.136)"/><use href="#mteedos204f0" transform="translate(97.9,733.3) rotate(116.6) scale(0.222)"/><use href="#mteedos204f7" transform="translate(740.3,798) rotate(297.3) scale(0.222)"/><use href="#mteedos204f9" transform="translate(1268.6,1316.9) rotate(282.2) scale(0.236)"/><use href="#mteedos204f3" transform="translate(200.3,1118.9) rotate(154.9) scale(0.161)"/><use href="#mteedos204f2" transform="translate(157.2,665.8) rotate(151.3) scale(0.258)"/><use href="#mteedos204f4" transform="translate(542.9,1175.6) rotate(289.5) scale(0.240)"/><use href="#mteedos204f7" transform="translate(816.7,1801.6) rotate(67.5) scale(0.131)"/><use href="#mteedos204f10" transform="translate(764.9,1688.1) rotate(231) scale(0.181)"/><use href="#mteedos204f5" transform="translate(579.5,426.1) rotate(193.9) scale(0.250)"/><use href="#mteedos204f8" transform="translate(807.7,923.8) rotate(104.2) scale(0.192)"/><use href="#mteedos204f6" transform="translate(843.8,399.9) rotate(146.8) scale(0.244)"/><use href="#mteedos204f3" transform="translate(147.4,122.4) rotate(326.8) scale(0.257)"/><use href="#mteedos204f5" transform="translate(246,444.3) rotate(89) scale(0.207)"/><use href="#mteedos204f6" transform="translate(1105.8,239.9) rotate(14.4) scale(0.270)"/><use href="#mteedos204f10" transform="translate(1001.5,481) rotate(114.7) scale(0.170)"/><use href="#mteedos204f10" transform="translate(200.5,109.8) rotate(4.2) scale(0.217)"/><use href="#mteedos204f11" transform="translate(1222.7,356.8) rotate(58.5) scale(0.139)"/><use href="#mteedos204f1" transform="translate(1137.7,510.7) rotate(120.8) scale(0.210)"/><use href="#mteedos204f5" transform="translate(1101.6,1484.7) rotate(90.5) scale(0.261)"/><use href="#mteedos204f7" transform="translate(163.9,798) rotate(98.7) scale(0.247)"/><use href="#mteedos204f2" transform="translate(1013.4,292.7) rotate(233.2) scale(0.248)"/><use href="#mteedos204f9" transform="translate(1002.3,832.4) rotate(156.9) scale(0.213)"/><use href="#mteedos204f10" transform="translate(1216.2,511.5) rotate(176) scale(0.203)"/><use href="#mteedos204f11" transform="translate(810.1,1764.3) rotate(57.9) scale(0.190)"/><use href="#mteedos204f5" transform="translate(633.3,1089.8) rotate(176.2) scale(0.270)"/><use href="#mteedos204f6" transform="translate(751.7,1769.3) rotate(53.6) scale(0.133)"/><use href="#mteedos204f11" transform="translate(717.7,414.2) rotate(67.3) scale(0.192)"/><use href="#mteedos204f2" transform="translate(102.5,242) rotate(288.6) scale(0.261)"/><use href="#mteedos204f7" transform="translate(-158.4,557) rotate(49.1) scale(0.182)"/><use href="#mteedos204f5" transform="translate(549.5,921) rotate(150.9) scale(0.232)"/><use href="#mteedos204f3" transform="translate(208,231.3) rotate(317.7) scale(0.266)"/><use href="#mteedos204f9" transform="translate(856,901.2) rotate(238) scale(0.141)"/><use href="#mteedos204f9" transform="translate(846.7,806.7) rotate(352.1) scale(0.231)"/><use href="#mteedos204f0" transform="translate(240.4,778.4) rotate(117) scale(0.268)"/><use href="#mteedos204f9" transform="translate(762.9,739) rotate(150.1) scale(0.209)"/><use href="#mteedos204f0" transform="translate(523.4,1325.6) rotate(241.5) scale(0.159)"/><use href="#mteedos204f2" transform="translate(-252.2,747.5) rotate(148.6) scale(0.247)"/><use href="#mteedos204f4" transform="translate(953.2,1250.1) rotate(28.1) scale(0.197)"/><use href="#mteedos204f10" transform="translate(258.6,363.2) rotate(183.3) scale(0.195)"/><use href="#mteedos204f11" transform="translate(711.2,1332.6) rotate(215.7) scale(0.130)"/><use href="#mteedos204f2" transform="translate(225.8,621) rotate(217.1) scale(0.134)"/><use href="#mteedos204f3" transform="translate(1198.9,198.8) rotate(54.5) scale(0.264)"/><use href="#mteedos204f4" transform="translate(102.1,322.3) rotate(52.2) scale(0.223)"/><use href="#mteedos204f10" transform="translate(488.4,1007.4) rotate(323.2) scale(0.241)"/><use href="#mteedos204f6" transform="translate(-214.2,985.6) rotate(213.5) scale(0.264)"/><use href="#mteedos204f8" transform="translate(1112.1,1262.8) rotate(297.7) scale(0.198)"/><use href="#mteedos204f3" transform="translate(1094.6,1365.9) rotate(87.1) scale(0.169)"/><use href="#mteedos204f7" transform="translate(163.5,763.5) rotate(120.8) scale(0.268)"/><use href="#mteedos204f10" transform="translate(813.9,695.6) rotate(154.7) scale(0.205)"/><use href="#mteedos204f10" transform="translate(434.1,85.1) rotate(47.6) scale(0.168)"/><use href="#mteedos204f10" transform="translate(1013.2,709.9) rotate(21.2) scale(0.267)"/><use href="#mteedos204f11" transform="translate(-215.2,858.7) rotate(221.9) scale(0.140)"/><use href="#mteedos204f10" transform="translate(1297.4,1406) rotate(196.2) scale(0.215)"/><use href="#mteedos204f2" transform="translate(34.9,672.1) rotate(342.2) scale(0.148)"/><use href="#mteedos204f8" transform="translate(638.4,1450) rotate(141.3) scale(0.255)"/><use href="#mteedos204f9" transform="translate(505.8,1160.8) rotate(31.3) scale(0.224)"/><use href="#mteedos204f6" transform="translate(714.4,1359.8) rotate(79.2) scale(0.181)"/><use href="#mteedos204f8" transform="translate(326.9,791.9) rotate(249.7) scale(0.233)"/><use href="#mteedos204f4" transform="translate(981.8,176.5) rotate(188.1) scale(0.174)"/><use href="#mteedos204f3" transform="translate(195.3,995.4) rotate(106.4) scale(0.264)"/><use href="#mteedos204f2" transform="translate(826.9,58.4) rotate(246.2) scale(0.189)"/><use href="#mteedos204f3" transform="translate(711.2,609.1) rotate(153.4) scale(0.199)"/><use href="#mteedos204f0" transform="translate(0.1,388.3) rotate(175.6) scale(0.156)"/><use href="#mteedos204f5" transform="translate(796.9,387.8) rotate(329.6) scale(0.155)"/><use href="#mteedos204f10" transform="translate(369.8,1262.7) rotate(62) scale(0.148)"/><use href="#mteedos204f11" transform="translate(15.1,351.6) rotate(323.3) scale(0.233)"/><use href="#mteedos204f7" transform="translate(654.8,542.1) rotate(293.7) scale(0.225)"/><use href="#mteedos204f2" transform="translate(535.6,35.3) rotate(169.9) scale(0.149)"/><use href="#mteedos204f9" transform="translate(133.9,443.3) rotate(177.9) scale(0.236)"/><use href="#mteedos204f0" transform="translate(459,1249.4) rotate(264.7) scale(0.165)"/><use href="#mteedos204f9" transform="translate(1267.8,610.2) rotate(304) scale(0.181)"/><use href="#mteedos204f9" transform="translate(1109.8,325.3) rotate(231.1) scale(0.136)"/><use href="#mteedos204f1" transform="translate(885.3,956.4) rotate(261.3) scale(0.193)"/><use href="#mteedos204f1" transform="translate(1192.2,1244.2) rotate(223) scale(0.233)"/><use href="#mteedos204f2" transform="translate(594.6,1635.6) rotate(249.4) scale(0.273)"/><use href="#mteedos204f7" transform="translate(736.5,634.2) rotate(14.8) scale(0.209)"/><use href="#mteedos204f5" transform="translate(292.8,568.7) rotate(342.2) scale(0.209)"/><use href="#mteedos204f6" transform="translate(774.2,1146.1) rotate(329.4) scale(0.156)"/><use href="#mteedos204f1" transform="translate(669.1,1381.8) rotate(162.3) scale(0.234)"/><use href="#mteedos204f8" transform="translate(553.8,436.8) rotate(46.2) scale(0.172)"/><use href="#mteedos204f5" transform="translate(412.6,837) rotate(131.2) scale(0.142)"/><use href="#mteedos204f1" transform="translate(937.7,902.5) rotate(141.9) scale(0.184)"/><use href="#mteedos204f1" transform="translate(396.3,983.3) rotate(253.6) scale(0.243)"/><use href="#mteedos204f9" transform="translate(934.3,1351.9) rotate(176.7) scale(0.229)"/><use href="#mteedos204f3" transform="translate(1009.1,368) rotate(304.6) scale(0.138)"/><use href="#mteedos204f8" transform="translate(197.2,1081.1) rotate(1.4) scale(0.182)"/><use href="#mteedos204f1" transform="translate(2,261.7) rotate(102.4) scale(0.211)"/><use href="#mteedos204f11" transform="translate(-225.7,788.1) rotate(89) scale(0.237)"/><use href="#mteedos204f4" transform="translate(528.4,992.4) rotate(118.6) scale(0.212)"/><use href="#mteedos204f0" transform="translate(917,1020) rotate(279.5) scale(0.143)"/><use href="#mteedos204f2" transform="translate(497.1,1280.6) rotate(78.5) scale(0.210)"/><use href="#mteedos204f7" transform="translate(718.1,187.6) rotate(272.1) scale(0.270)"/><use href="#mteedos204f9" transform="translate(1050,639.5) rotate(109.2) scale(0.267)"/><use href="#mteedos204f4" transform="translate(827.6,1847.7) rotate(202.1) scale(0.215)"/><use href="#mteedos204f4" transform="translate(39.2,851.6) rotate(352.6) scale(0.179)"/><use href="#mteedos204f5" transform="translate(-125.4,280.7) rotate(294) scale(0.199)"/><use href="#mteedos204f1" transform="translate(990.9,527.1) rotate(6.1) scale(0.158)"/><use href="#mteedos204f11" transform="translate(609.3,1358.8) rotate(162.3) scale(0.238)"/><use href="#mteedos204f4" transform="translate(779.2,823.1) rotate(33.6) scale(0.139)"/><use href="#mteedos204f2" transform="translate(1088.1,545.3) rotate(264.1) scale(0.160)"/><use href="#mteedos204f2" transform="translate(678.3,138) rotate(252.1) scale(0.218)"/><use href="#mteedos204f6" transform="translate(658,566.1) rotate(16.4) scale(0.174)"/><use href="#mteedos204f0" transform="translate(-112.1,511.2) rotate(214.7) scale(0.145)"/><use href="#mteedos204f0" transform="translate(731,1860.2) rotate(25.3) scale(0.181)"/><use href="#mteedos204f5" transform="translate(67.9,281.4) rotate(61.2) scale(0.234)"/><use href="#mteedos204f11" transform="translate(871.1,1237.6) rotate(233.6) scale(0.189)"/><use href="#mteedos204f6" transform="translate(1012.2,1186.8) rotate(189.9) scale(0.260)"/><use href="#mteedos204f5" transform="translate(271.5,84.5) rotate(171.5) scale(0.163)"/><use href="#mteedos204f9" transform="translate(698.2,1296.2) rotate(133.9) scale(0.169)"/><use href="#mteedos204f5" transform="translate(462.5,601.2) rotate(287.9) scale(0.176)"/><use href="#mteedos204f8" transform="translate(689.2,1206.5) rotate(126.3) scale(0.234)"/><use href="#mteedos204f11" transform="translate(147.5,505.4) rotate(133.6) scale(0.136)"/><use href="#mteedos204f0" transform="translate(1189.6,1307.2) rotate(275.6) scale(0.231)"/><use href="#mteedos204f7" transform="translate(185.6,917.9) rotate(221) scale(0.132)"/><use href="#mteedos204f9" transform="translate(-165.7,282.7) rotate(69.2) scale(0.258)"/><use href="#mteedos204f11" transform="translate(1297.7,323.6) rotate(312.5) scale(0.182)"/><use href="#mteedos204f1" transform="translate(11.7,810.1) rotate(141) scale(0.164)"/><use href="#mteedos204f11" transform="translate(140.6,294.5) rotate(177.9) scale(0.186)"/><use href="#mteedos204f4" transform="translate(285.8,889.3) rotate(106.6) scale(0.233)"/><use href="#mteedos204f9" transform="translate(828.6,1408.8) rotate(202.5) scale(0.269)"/><use href="#mteedos204f9" transform="translate(607.3,1007.5) rotate(316.1) scale(0.225)"/><use href="#mteedos204f6" transform="translate(495.5,133.9) rotate(338) scale(0.205)"/><use href="#mteedos204f11" transform="translate(-66.1,256.8) rotate(341.1) scale(0.152)"/><use href="#mteedos204f0" transform="translate(1155.2,226.1) rotate(274.5) scale(0.263)"/><use href="#mteedos204f4" transform="translate(729.6,132.8) rotate(83.1) scale(0.254)"/><use href="#mteedos204f10" transform="translate(642.3,1316.4) rotate(333.3) scale(0.247)"/><use href="#mteedos204f4" transform="translate(374.6,1423) rotate(234.5) scale(0.226)"/><use href="#mteedos204f11" transform="translate(753.7,198.3) rotate(314.6) scale(0.240)"/><use href="#mteedos204f11" transform="translate(919,1064.3) rotate(295.4) scale(0.262)"/><use href="#mteedos204f9" transform="translate(909.4,112.5) rotate(347.6) scale(0.168)"/><use href="#mteedos204f1" transform="translate(534,1659.3) rotate(71.4) scale(0.139)"/><use href="#mteedos204f0" transform="translate(669,1513.5) rotate(280) scale(0.261)"/><use href="#mteedos204f7" transform="translate(463.8,32.7) rotate(21.8) scale(0.245)"/><use href="#mteedos204f8" transform="translate(843.8,1515.3) rotate(123.4) scale(0.254)"/><use href="#mteedos204f2" transform="translate(-224.8,254.7) rotate(153.3) scale(0.198)"/><use href="#mteedos204f6" transform="translate(827.6,1325.3) rotate(338.9) scale(0.214)"/><use href="#mteedos204f6" transform="translate(412.7,466.2) rotate(85.8) scale(0.258)"/><use href="#mteedos204f7" transform="translate(967.8,433.1) rotate(11) scale(0.250)"/><use href="#mteedos204f0" transform="translate(482.7,1115.9) rotate(208.9) scale(0.141)"/><use href="#mteedos204f5" transform="translate(653.1,1628.3) rotate(48.6) scale(0.137)"/><use href="#mteedos204f9" transform="translate(599.1,1246.9) rotate(253.5) scale(0.265)"/><use href="#mteedos204f1" transform="translate(615.4,1140.1) rotate(177.2) scale(0.165)"/><use href="#mteedos204f9" transform="translate(908,408.6) rotate(95.9) scale(0.146)" opacity="0.8"/><use href="#mteedos204f3" transform="translate(111.7,193.7) rotate(175.7) scale(0.157)" opacity="0.6"/><use href="#mteedos204f4" transform="translate(286.9,1031.7) rotate(170.4) scale(0.116)" opacity="0.8"/><use href="#mteedos204f11" transform="translate(598.2,207.3) rotate(156.9) scale(0.137)" opacity="0.8"/><use href="#mteedos204f5" transform="translate(289,313.7) rotate(318.4) scale(0.161)" opacity="0.6"/><use href="#mteedos204f8" transform="translate(133.8,572.7) rotate(322.9) scale(0.114)" opacity="0.6"/><use href="#mteedos204f4" transform="translate(590.3,834.2) rotate(28.2) scale(0.121)" opacity="0.8"/><use href="#mteedos204f6" transform="translate(396.7,409.7) rotate(27.7) scale(0.136)" opacity="0.9"/><use href="#mteedos204f5" transform="translate(1003.1,729.8) rotate(52.7) scale(0.174)" opacity="0.8"/><use href="#mteedos204f9" transform="translate(261.5,377.7) rotate(101.5) scale(0.189)" opacity="1"/><use href="#mteedos204f4" transform="translate(56.1,542) rotate(243.2) scale(0.173)" opacity="0.7"/><use href="#mteedos204f2" transform="translate(768.7,291.2) rotate(203.5) scale(0.177)" opacity="0.7"/><use href="#mteedos204f1" transform="translate(179.2,425.8) rotate(126.8) scale(0.168)" opacity="0.7"/><use href="#mteedos204f1" transform="translate(160.3,998.9) rotate(68.7) scale(0.161)" opacity="0.6"/><use href="#mteedos204f8" transform="translate(263.9,733.1) rotate(76.8) scale(0.175)" opacity="0.7"/><use href="#mteedos204f7" transform="translate(673.9,755.7) rotate(131.8) scale(0.115)" opacity="0.8"/><use href="#mteedos204f1" transform="translate(1083.9,442.5) rotate(306.7) scale(0.168)" opacity="0.6"/><use href="#mteedos204f2" transform="translate(320.7,1152.5) rotate(62.4) scale(0.187)" opacity="0.8"/><use href="#mteedos204f11" transform="translate(985,276.4) rotate(235.9) scale(0.115)" opacity="0.8"/><use href="#mteedos204f11" transform="translate(56,382.6) rotate(216.5) scale(0.104)" opacity="0.6"/><use href="#mteedos204f6" transform="translate(449.8,97.5) rotate(37.5) scale(0.195)" opacity="0.6"/><use href="#mteedos204p2" transform="translate(242.2,999.7) rotate(305.5) scale(0.098)" opacity="0.5"/><use href="#mteedos204p4" transform="translate(306.1,112.3) rotate(41.8) scale(0.098)" opacity="0.6"/><use href="#mteedos204p1" transform="translate(725.3,1065.9) rotate(74.2) scale(0.125)" opacity="0.7"/><use href="#mteedos204p3" transform="translate(840.4,487.4) rotate(245.3) scale(0.073)" opacity="0.5"/><use href="#mteedos204p0" transform="translate(758,678) rotate(21.4) scale(0.071)" opacity="0.5"/><use href="#mteedos204p0" transform="translate(334.9,61.4) rotate(304.1) scale(0.115)" opacity="0.8"/><use href="#mteedos204p2" transform="translate(822.4,626.2) rotate(156.9) scale(0.072)" opacity="0.7"/><use href="#mteedos204p2" transform="translate(802.7,1016.1) rotate(283.8) scale(0.129)" opacity="0.8"/><use href="#mteedos204p5" transform="translate(1054.6,185.6) rotate(86.2) scale(0.093)" opacity="0.7"/><use href="#mteedos204p1" transform="translate(1080.5,385.6) rotate(93.3) scale(0.124)" opacity="0.5"/><use href="#mteedos204p2" transform="translate(616.4,306.3) rotate(24.1) scale(0.067)" opacity="0.7"/><use href="#mteedos204p0" transform="translate(908.7,871.1) rotate(339.3) scale(0.108)" opacity="0.7"/><use href="#mteedos204p4" transform="translate(1080.9,547.2) rotate(136.6) scale(0.108)" opacity="0.6"/><use href="#mteedos204p2" transform="translate(398.4,433.4) rotate(232.2) scale(0.099)" opacity="0.6"/><use href="#mteedos204p2" transform="translate(547.7,451.2) rotate(48.7) scale(0.069)" opacity="0.9"/><use href="#mteedos204p4" transform="translate(1091.6,556) rotate(209.2) scale(0.082)" opacity="0.5"/><use href="#mteedos204p2" transform="translate(66.9,514.3) rotate(38.3) scale(0.073)" opacity="0.6"/><use href="#mteedos204p1" transform="translate(58.2,1196.6) rotate(16.5) scale(0.124)" opacity="0.8"/><use href="#mteedos204p4" transform="translate(819.7,480.7) rotate(247.5) scale(0.099)" opacity="0.9"/><use href="#mteedos204p5" transform="translate(1065.8,563.5) rotate(305.9) scale(0.119)" opacity="0.6"/><use href="#mteedos204p3" transform="translate(731,260.6) rotate(332.1) scale(0.104)" opacity="0.5"/><use href="#mteedos204p1" transform="translate(814.1,704.2) rotate(197.1) scale(0.106)" opacity="0.8"/><use href="#mteedos204p3" transform="translate(972.4,1099) rotate(206.5) scale(0.068)" opacity="0.5"/><use href="#mteedos204p5" transform="translate(409.7,568.8) rotate(80.1) scale(0.111)" opacity="0.7"/><use href="#mteedos204p0" transform="translate(1093.3,1196.5) rotate(161.2) scale(0.111)" opacity="0.6"/><use href="#mteedos204p5" transform="translate(658.2,750.6) rotate(335.9) scale(0.066)" opacity="0.7"/><use href="#mteedos204p0" transform="translate(97.3,1179.1) rotate(166) scale(0.058)" opacity="0.6"/><use href="#mteedos204p5" transform="translate(378.6,961.1) rotate(148.6) scale(0.071)" opacity="0.9"/><use href="#mteedos204p4" transform="translate(1090.9,41.5) rotate(270.9) scale(0.091)" opacity="0.7"/><use href="#mteedos204p3" transform="translate(407.2,730.2) rotate(100.9) scale(0.093)" opacity="0.5"/><use href="#mteedos204p0" transform="translate(662.9,468.5) rotate(105.8) scale(0.118)" opacity="0.7"/><use href="#mteedos204p5" transform="translate(1002,640.6) rotate(2.3) scale(0.094)" opacity="0.6"/><use href="#mteedos204p2" transform="translate(141,369.4) rotate(312.8) scale(0.112)" opacity="0.5"/><use href="#mteedos204p0" transform="translate(173.3,498.3) rotate(34.3) scale(0.105)" opacity="0.5"/><use href="#mteedos204p0" transform="translate(732.9,477.4) rotate(214.8) scale(0.127)" opacity="0.7"/><use href="#mteedos204p3" transform="translate(574.6,448) rotate(158.7) scale(0.105)" opacity="0.7"/><use href="#mteedos204p2" transform="translate(139.8,658.8) rotate(84.6) scale(0.113)" opacity="0.7"/></g>
  <path d="M414.9,310.3 C426.7,513.3 412.1,653.2 438.5,812.6" fill="none" stroke="#000" stroke-opacity="0.34" stroke-width="17.7" filter="url(#flou)"/><path d="M304.6,308.1 C329,598.4 362.5,702.4 262.8,815.9" fill="none" stroke="#000" stroke-opacity="0.34" stroke-width="10.9" filter="url(#flou)"/><path d="M360.6,320.5 C333.2,537.7 332.4,700.8 400.7,810.7" fill="none" stroke="#000" stroke-opacity="0.34" stroke-width="13.2" filter="url(#flou)"/><path d="M528.1,304.2 C590.4,556.7 519.8,660.4 576.4,842.3" fill="none" stroke="#000" stroke-opacity="0.34" stroke-width="12.4" filter="url(#flou)"/><path d="M604.1,322 C599.1,592.6 658.3,697.9 646.3,811.8" fill="none" stroke="#000" stroke-opacity="0.34" stroke-width="14.7" filter="url(#flou)"/><path d="M451.9,419.8 C518.4,539.5 501.2,656.3 440.8,857.5" fill="none" stroke="#000" stroke-opacity="0.34" stroke-width="16.8" filter="url(#flou)"/><path d="M546,323.1 C485.2,594.4 551.9,677.9 570.3,875.4" fill="none" stroke="#000" stroke-opacity="0.34" stroke-width="15.3" filter="url(#flou)"/>
  
  <text x="600" y="330" fill="#ffffff" font-size="46" font-weight="700" font-family="serif" letter-spacing="6" writing-mode="tb" opacity="0.95">桜の力</text>
  <rect width="900" height="1000" fill="url(#bordsmteedos204)"/>
  <rect width="900" height="1000" fill="url(#hautmteedos204)"/>
</g>
</svg>